<?xml version="1.1" encoding="UTF-8"?>
<svg viewBox="-4.9 -6.9 19.8 13.8" height="13.8mm" width="19.8mm" xmlns:svgjs="http://svgjs.com/svgjs" xmlns:xlink="http://www.w3.org/1999/xlink" version="1.1" xmlns="http://www.w3.org/2000/svg" id="SvgjsSvg1347">
  <defs id="SvgjsDefs1348">
  </defs>
  <defs id="SvgjsDefs1348">
  </defs>
  <g id="SvgjsG1349">
    <g transform="matrix(1,0,0,1,0,0)" id="SvgjsG1350">
      <g fill="none" stroke-width="0.04" stroke="blue" id="SvgjsG1351">
        <circle cy="0" cx="0" r="3" id="SvgjsCircle1352">
        </circle>
        <circle cy="0" cx="0" r="4" id="SvgjsCircle1353">
        </circle>
      </g>
      <g fill="none" stroke-width="0.1" stroke="black" id="SvgjsG1354">
        <circle cy="0" cx="0" r="2" id="SvgjsCircle1355">
        </circle>
        <path d="M2.21976310870379 -3.236777514958  L2.2362094646082493 -3.126091590932116 L2.2475411159870964 -3.0191845950102945 L2.2540090882441155 -2.9176217384391916 L2.2561250543352367 -2.821536777662277 L2.2542596875864858 -2.728187687645862 L2.248913314301741 -2.64192787781127 L2.2403740245045363 -2.5598983616005824 L2.215693668858674 -2.4124659915280855 L2.183579901941009 -2.2864686674519055 L2.148127158576647 -2.1838546202266804 L2.1112251055556204 -2.1003108509626993 L2.0737769995064474 -2.0324328732870947 L1.992232437299443 -1.995572198110587 L1.9095461197592574 -1.951609101180962 L1.8340408395845558 -1.9044480826832682 L1.7658110454126252 -1.8546055527790193 L1.70495984613479 -1.8026029216297283 L1.6515307096262233 -1.7489849006670992 L1.605528802491909 -1.694262541068797 L1.5669666118449068 -1.638974214520562 L1.5357946632740491 -1.583645613216211 L1.5119375016060557 -1.5287874293495607 L1.4952836909055311 -1.4749126756225033 L1.485713134983044 -1.4225293647369308 L1.4830660966330094 -1.3721341696487732 L1.4871345373796556 -1.3242074235679988 L1.4977154187472088 -1.2792207994505373 L1.5145487407356697 -1.237624630506357 L1.5252326895580046 -1.2182394883206074 L1.6100297951184626 -1.1001465931551124 L1.6887495373796555 -0.9749999999999995 L1.7577697951184623 -0.8442534068448866 L1.8176426895580045 -0.7117705116793918 L1.8290887407356697 -0.6928253694936422 L1.8566954187472087 -0.6574492005494617 L1.8903645373796554 -0.6257925764320003 L1.9298360966330093 -0.5983058303512259 L1.9748031349830435 -0.5754006352630684 L2.024953690905531 -0.5574973243774959 L2.0799375016060555 -0.5449825706504385 L2.1393746632740487 -0.538214386783788 L2.2028766118449066 -0.5375457854794372 L2.270038802491909 -0.5432974589312023 L2.3404307096262227 -0.5557750993328997 L2.4135798461347897 -0.5752370783702706 L2.489041045412625 -0.6019344472209799 L2.5663208395845554 -0.6361019173167306 L2.644916119759257 -0.6779108988190365 L2.724332437299443 -0.7275378018894119 L2.7970269995064467 -0.7797271267129041 L2.87453510555562 -0.7782191490372994 L2.9653371585766464 -0.7684053797733181 L3.071929901941008 -0.7478013325480931 L3.1971036688586736 -0.7126140084719134 L3.3371240245045355 -0.6602716383994163 L3.4124333143017402 -0.6266521221887291 L3.489809687586485 -0.5881523123541361 L3.5715850543352357 -0.5430932223377216 L3.6537390882441145 -0.49321826156080695 L3.7384611159870955 -0.4368354049897041 L3.8253794646082486 -0.3735684090678828 L3.913013108703789 -0.3039824850419983 L3.993042818677039 -0.2347930956456712 A4 4 0 0 1 3.993042818677039 0.23479309564567274 L3.9130131087037894 0.3039824850419999 L3.8253794646082486 0.37356840906788413 L3.7384611159870955 0.4368354049897052 L3.6537390882441145 0.4932182615608083 L3.5715850543352357 0.5430932223377227 L3.489809687586485 0.5881523123541372 L3.4124333143017402 0.6266521221887305 L3.3371240245045355 0.6602716383994175 L3.1971036688586736 0.7126140084719146 L3.0719299019410085 0.7478013325480943 L2.965337158576647 0.7684053797733191 L2.8745351055556205 0.7782191490373004 L2.7970269995064467 0.779727126712905 L2.724332437299443 0.7275378018894129 L2.644916119759257 0.6779108988190375 L2.566320839584556 0.6361019173167315 L2.4890410454126246 0.6019344472209807 L2.4135798461347893 0.5752370783702713 L2.3404307096262227 0.5557750993329005 L2.2700388024919085 0.543297458931203 L2.2028766118449066 0.5375457854794379 L2.1393746632740487 0.5382143867837887 L2.0799375016060555 0.5449825706504392 L2.024953690905531 0.5574973243774967 L1.9748031349830435 0.5754006352630692 L1.929836096633009 0.5983058303512265 L1.8903645373796554 0.625792576432001 L1.8566954187472087 0.6574492005494623 L1.8290887407356695 0.6928253694936429 L1.8176426895580042 0.7117705116793925 L1.7577697951184623 0.8442534068448873 L1.6887495373796553 0.9750000000000002 L1.6100297951184621 1.100146593155113 L1.5252326895580044 1.218239488320608 L1.5145487407356695 1.2376246305063576 L1.4977154187472084 1.279220799450538 L1.4871345373796552 1.3242074235679993 L1.4830660966330091 1.3721341696487739 L1.4857131349830435 1.4225293647369313 L1.4952836909055307 1.474912675622504 L1.5119375016060552 1.5287874293495614 L1.5357946632740487 1.5836456132162116 L1.5669666118449064 1.6389742145205626 L1.6055288024919085 1.6942625410687977 L1.6515307096262224 1.7489849006670999 L1.7049598461347892 1.8026029216297292 L1.7658110454126246 1.8546055527790197 L1.8340408395845555 1.904448082683269 L1.9095461197592567 1.9516091011809626 L1.9922324372994429 1.9955721981105876 L2.0737769995064466 2.0324328732870955 L2.11122510555562 2.1003108509627 L2.1481271585766466 2.1838546202266813 L2.1835799019410085 2.2864686674519064 L2.2156936688586732 2.4124659915280864 L2.2403740245045354 2.5598983616005833 L2.24891331430174 2.6419278778112707 L2.254259687586485 2.7281876876458635 L2.256125054335236 2.821536777662278 L2.2540090882441146 2.9176217384391925 L2.2475411159870955 3.019184595010296 L2.2362094646082484 3.1260915909321167 L2.2197631087037886 3.236777514958001 L2.1998581948008606 3.3406799715505002 A4 4 0 0 1 1.793184623876178 3.575473067196172 L1.69325 3.54076 L1.58917 3.49966 L1.49092 3.45602 L1.39973 3.41084 L1.31546 3.36463 L1.23555 3.31634 L1.16352 3.26858 L1.09675 3.22017 L0.98141 3.12508 L0.88835 3.03427 L0.81721 2.95226 L0.76331 2.87853 L0.72325 2.81216 L0.7321 2.72311 L0.73537 2.62952 L0.73228 2.54055 L0.72323 2.45654 L0.70862 2.37784 L0.6889 2.30476 L0.66451 2.23756 L0.63591 2.17652 L0.60358 2.12186 L0.568 2.07377 L0.52967 2.03241 L0.48909 1.99793 L0.44677 1.97044 L0.40323 1.95 L0.35898 1.93667 L0.31454 1.93045 L0.29241 1.93001 L0.14774 1.9444 L0 1.95 L-0.14774 1.9444 L-0.29241 1.93001 L-0.31454 1.93045 L-0.35898 1.93667 L-0.40323 1.95 L-0.44677 1.97044 L-0.48909 1.99793 L-0.52967 2.03241 L-0.568 2.07377 L-0.60358 2.12186 L-0.63591 2.17652 L-0.66451 2.23756 L-0.6889 2.30476 L-0.70862 2.37784 L-0.72323 2.45654 L-0.73228 2.54055 L-0.73537 2.62952 L-0.7321 2.72311 L-0.72325 2.81216 L-0.76331 2.87853 L-0.81721 2.95226 L-0.88835 3.03427 L-0.98141 3.12508 L-1.09675 3.22017 L-1.16352 3.26858 L-1.23555 3.31634 L-1.31546 3.36463 L-1.39973 3.41084 L-1.49092 3.45602 L-1.58917 3.49966 L-1.69325 3.54076 L-1.793184623876178 3.575473067196172 A4 4 0 0 1 -2.1998581948008615 3.3406799715504993 L-2.2197631087037895 3.2367775149580007 L-2.2362094646082493 3.1260915909321163 L-2.247541115987096 3.019184595010295 L-2.254009088244115 2.917621738439192 L-2.2561250543352362 2.8215367776622773 L-2.2542596875864853 2.7281876876458626 L-2.2489133143017406 2.64192787781127 L-2.2403740245045363 2.559898361600583 L-2.215693668858674 2.4124659915280855 L-2.1835799019410085 2.2864686674519055 L-2.1481271585766466 2.183854620226681 L-2.1112251055556204 2.1003108509626998 L-2.073776999506447 2.032432873287095 L-1.9922324372994429 1.9955721981105874 L-1.9095461197592574 1.9516091011809624 L-1.8340408395845558 1.9044480826832686 L-1.765811045412625 1.8546055527790193 L-1.70495984613479 1.8026029216297288 L-1.651530709626223 1.7489849006670997 L-1.605528802491909 1.6942625410687973 L-1.5669666118449066 1.6389742145205621 L-1.535794663274049 1.5836456132162113 L-1.5119375016060554 1.528787429349561 L-1.4952836909055311 1.4749126756225035 L-1.4857131349830437 1.4225293647369308 L-1.4830660966330094 1.3721341696487734 L-1.4871345373796556 1.324207423567999 L-1.4977154187472088 1.2792207994505376 L-1.5145487407356697 1.2376246305063572 L-1.5252326895580046 1.2182394883206076 L-1.6100297951184626 1.1001465931551127 L-1.6887495373796555 0.9749999999999998 L-1.7577697951184623 0.8442534068448868 L-1.8176426895580045 0.711770511679392 L-1.8290887407356697 0.6928253694936424 L-1.8566954187472087 0.6574492005494619 L-1.8903645373796554 0.6257925764320005 L-1.9298360966330093 0.5983058303512261 L-1.9748031349830437 0.5754006352630686 L-2.024953690905531 0.5574973243774961 L-2.0799375016060555 0.5449825706504388 L-2.1393746632740487 0.5382143867837882 L-2.2028766118449066 0.5375457854794374 L-2.270038802491909 0.5432974589312025 L-2.340430709626223 0.5557750993328999 L-2.4135798461347897 0.5752370783702708 L-2.489041045412625 0.6019344472209801 L-2.566320839584556 0.636101917316731 L-2.644916119759257 0.677910898819037 L-2.724332437299443 0.7275378018894123 L-2.797026999506447 0.7797271267129046 L-2.87453510555562 0.7782191490372998 L-2.965337158576647 0.7684053797733186 L-3.0719299019410085 0.7478013325480933 L-3.1971036688586736 0.7126140084719136 L-3.3371240245045355 0.6602716383994165 L-3.4124333143017407 0.6266521221887293 L-3.4898096875864852 0.5881523123541363 L-3.571585054335236 0.5430932223377218 L-3.653739088244115 0.49321826156080717 L-3.738461115987096 0.4368354049897043 L-3.8253794646082486 0.373568409067883 L-3.9130131087037894 0.30398248504199876 L-3.993042818677039 0.23479309564567163 A4 4 0 0 1 -3.993042818677039 -0.2347930956456712 L-3.913013108703789 -0.3039824850419983 L-3.8253794646082486 -0.3735684090678828 L-3.7384611159870955 -0.4368354049897041 L-3.6537390882441145 -0.49321826156080695 L-3.5715850543352357 -0.5430932223377216 L-3.489809687586485 -0.5881523123541361 L-3.4124333143017402 -0.6266521221887291 L-3.3371240245045355 -0.6602716383994163 L-3.1971036688586736 -0.7126140084719134 L-3.071929901941008 -0.7478013325480931 L-2.9653371585766464 -0.7684053797733181 L-2.87453510555562 -0.7782191490372994 L-2.7970269995064467 -0.7797271267129041 L-2.724332437299443 -0.7275378018894119 L-2.644916119759257 -0.6779108988190365 L-2.5663208395845554 -0.6361019173167306 L-2.489041045412625 -0.6019344472209799 L-2.4135798461347897 -0.5752370783702706 L-2.3404307096262227 -0.5557750993328997 L-2.270038802491909 -0.5432974589312023 L-2.2028766118449066 -0.5375457854794372 L-2.1393746632740487 -0.538214386783788 L-2.0799375016060555 -0.5449825706504385 L-2.024953690905531 -0.5574973243774959 L-1.9748031349830435 -0.5754006352630684 L-1.9298360966330093 -0.5983058303512259 L-1.8903645373796554 -0.6257925764320003 L-1.8566954187472087 -0.6574492005494617 L-1.8290887407356697 -0.6928253694936422 L-1.8176426895580045 -0.7117705116793918 L-1.7577697951184623 -0.8442534068448866 L-1.6887495373796555 -0.9749999999999995 L-1.6100297951184626 -1.1001465931551124 L-1.5252326895580046 -1.2182394883206074 L-1.5145487407356697 -1.237624630506357 L-1.4977154187472088 -1.2792207994505373 L-1.4871345373796556 -1.3242074235679988 L-1.4830660966330094 -1.3721341696487732 L-1.485713134983044 -1.4225293647369308 L-1.4952836909055311 -1.4749126756225033 L-1.5119375016060557 -1.5287874293495607 L-1.5357946632740491 -1.583645613216211 L-1.5669666118449068 -1.638974214520562 L-1.605528802491909 -1.694262541068797 L-1.6515307096262233 -1.7489849006670992 L-1.70495984613479 -1.8026029216297283 L-1.7658110454126252 -1.8546055527790193 L-1.8340408395845558 -1.9044480826832682 L-1.9095461197592574 -1.951609101180962 L-1.992232437299443 -1.995572198110587 L-2.0737769995064474 -2.0324328732870947 L-2.1112251055556204 -2.1003108509626993 L-2.148127158576647 -2.1838546202266804 L-2.183579901941009 -2.2864686674519055 L-2.215693668858674 -2.4124659915280855 L-2.2403740245045363 -2.5598983616005824 L-2.248913314301741 -2.64192787781127 L-2.2542596875864858 -2.728187687645862 L-2.2561250543352367 -2.821536777662277 L-2.2540090882441155 -2.9176217384391916 L-2.2475411159870964 -3.0191845950102945 L-2.2362094646082493 -3.126091590932116 L-2.21976310870379 -3.236777514958 L-2.1998581948008615 -3.340679971550499 A4 4 0 0 1 -1.79318462387618 -3.575473067196171 L-1.693250000000002 -3.5407599999999992 L-1.589170000000002 -3.499659999999999 L-1.490920000000002 -3.456019999999999 L-1.399730000000002 -3.410839999999999 L-1.315460000000002 -3.364629999999999 L-1.2355500000000017 -3.316339999999999 L-1.1635200000000019 -3.2685799999999996 L-1.0967500000000017 -3.2201699999999995 L-0.9814100000000018 -3.1250799999999996 L-0.8883500000000016 -3.0342699999999994 L-0.8172100000000017 -2.9522599999999994 L-0.7633100000000017 -2.8785299999999996 L-0.7232500000000015 -2.8121599999999995 L-0.7321000000000015 -2.7231099999999997 L-0.7353700000000014 -2.6295199999999994 L-0.7322800000000015 -2.5405499999999996 L-0.7232300000000015 -2.4565399999999995 L-0.7086200000000014 -2.3778399999999995 L-0.6889000000000013 -2.3047599999999995 L-0.6645100000000013 -2.2375599999999998 L-0.6359100000000012 -2.1765199999999996 L-0.6035800000000012 -2.1218599999999994 L-0.5680000000000012 -2.0737699999999997 L-0.5296700000000011 -2.0324099999999996 L-0.48909000000000113 -1.9979299999999998 L-0.4467700000000011 -1.9704399999999997 L-0.4032300000000011 -1.9499999999999997 L-0.35898000000000113 -1.9366699999999997 L-0.3145400000000011 -1.9304499999999998 L-0.2924100000000011 -1.9300099999999998 L-0.14774000000000112 -1.9444 L-1.104780085041356e-15 -1.95 L0.1477399999999989 -1.9444 L0.2924099999999989 -1.9300100000000002 L0.3145399999999989 -1.9304500000000002 L0.3589799999999989 -1.9366700000000001 L0.40322999999999887 -1.9500000000000002 L0.4467699999999989 -1.9704400000000002 L0.4890899999999989 -1.9979300000000002 L0.5296699999999989 -2.0324100000000005 L0.5679999999999987 -2.0737700000000006 L0.6035799999999988 -2.1218600000000003 L0.6359099999999988 -2.1765200000000005 L0.6645099999999988 -2.2375600000000007 L0.6888999999999986 -2.3047600000000004 L0.7086199999999987 -2.3778400000000004 L0.7232299999999986 -2.4565400000000004 L0.7322799999999986 -2.5405500000000005 L0.7353699999999985 -2.6295200000000003 L0.7320999999999984 -2.7231100000000006 L0.7232499999999984 -2.8121600000000004 L0.7633099999999984 -2.8785300000000005 L0.8172099999999983 -2.9522600000000003 L0.8883499999999983 -3.0342700000000002 L0.9814099999999982 -3.1250800000000005 L1.0967499999999981 -3.2201700000000004 L1.1635199999999983 -3.2685800000000005 L1.2355499999999981 -3.3163400000000007 L1.315459999999998 -3.364630000000001 L1.399729999999998 -3.4108400000000008 L1.490919999999998 -3.456020000000001 L1.589169999999998 -3.499660000000001 L1.693249999999998 -3.540760000000001 L1.793184623876176 -3.5754730671961727 A4 4 0 0 1 2.1998581948008615 -3.340679971550499 Z" id="SvgjsPath1356">
        </path>
      </g>
    </g>
  </g>
</svg>
