<?xml version="1.1" encoding="UTF-8"?>
<svg viewBox="-7.1 -7.1 24.2 14.2" height="14.2mm" width="24.2mm" xmlns:svgjs="http://svgjs.com/svgjs" xmlns:xlink="http://www.w3.org/1999/xlink" version="1.1" xmlns="http://www.w3.org/2000/svg" id="SvgjsSvg1303">
  <defs id="SvgjsDefs1304">
  </defs>
  <defs id="SvgjsDefs1304">
  </defs>
  <g id="SvgjsG1305">
    <g transform="matrix(1,0,0,1,0,0)" id="SvgjsG1306">
      <g fill="none" stroke-width="0.04" stroke="blue" id="SvgjsG1307">
        <circle cy="0" cx="0" r="5" id="SvgjsCircle1308">
        </circle>
        <circle cy="0" cx="0" r="6" id="SvgjsCircle1309">
        </circle>
      </g>
      <g fill="none" stroke-width="0.1" stroke="black" id="SvgjsG1310">
        <circle cy="0" cx="0" r="2" id="SvgjsCircle1311">
        </circle>
        <path d="M4.978831419983197 -3.1648419093199758  L4.92568664897801 -3.0301363106434307 L4.869784276655709 -2.904176621580863 L4.812594961984049 -2.7886498697552105 L4.754610343138154 -2.682916686802572 L4.696847810535129 -2.5872760990414934 L4.638478832037628 -2.4992298001462068 L4.583494279073098 -2.423355064988244 L4.5279292891587914 -2.353085291288431 L4.429026089961351 -2.242678845876439 L4.342591843828615 -2.160980598064961 L4.276130683488606 -2.1079683667757596 L4.245013209885136 -2.0867542456170285 L4.136383717890114 -2.053981893414243 L4.0379712921180095 -2.0161385987155773 L3.9500001968402 -1.974022738334689 L3.872637872992416 -1.9284457699310034 L3.8060201396449553 -1.8802193912192784 L3.7501974608369837 -1.8301591102502113 L3.7051950991374487 -1.7790932758649367 L3.670984343894269 -1.727822185319765 L3.647495592080095 -1.6771749076218259 L3.6345957568813825 -1.6279493700234808 L3.632113709223937 -1.5809311390973162 L3.643315549232336 -1.5264565204164458 L3.69861420998164 -1.3866837815889714 L3.756673239365857 -1.220617127781042 L3.8073140279229714 -1.052140141416988 L3.844732826165927 -0.9065578830952645 L3.867689724715734 -0.8559027144648688 L3.897334366178738 -0.8193230776086895 L3.936704597115608 -0.7870811140211915 L3.98547711940954 -0.7599129475558613 L4.043290592683078 -0.7385423413864091 L4.1097140124326845 -0.7236809380621035 L4.184300203139103 -0.715993067361729 L4.266541835722161 -0.716134028609571 L4.355918740311243 -0.724733919659701 L4.451843933024263 -0.7423695853111523 L4.5537049884535925 -0.7695990892879637 L4.660851198875615 -0.8069365127689659 L4.698495111400284 -0.8080643203035434 L4.78342312732414 -0.8042414141789466 L4.901370926543233 -0.7889509184586446 L5.046280575863216 -0.7577640697246141 L5.132537133658842 -0.7335749102259927 L5.221618621782704 -0.7045100693759478 L5.320592433341073 -0.6675875420300518 L5.423539430861602 -0.6241646459784527 L5.532598378537788 -0.5727072079178288 L5.646770426972189 -0.5128591381386547 L5.76603364382113 -0.44381419910006437 L5.888206631029791 -0.3660727931665977 L5.992778168997361 -0.29357858612516163 A6 6 0 0 1 5.9927781689973605 0.2935785861251625 L5.888206631029791 0.36607279316659835 L5.766033643821129 0.44381419910006503 L5.646770426972188 0.5128591381386554 L5.532598378537788 0.5727072079178295 L5.423539430861602 0.6241646459784531 L5.320592433341072 0.6675875420300525 L5.221618621782703 0.7045100693759484 L5.132537133658842 0.7335749102259935 L5.046280575863215 0.7577640697246149 L4.901370926543232 0.7889509184586454 L4.78342312732414 0.804241414178947 L4.698495111400284 0.8080643203035441 L4.660851198875615 0.8069365127689665 L4.5537049884535925 0.7695990892879643 L4.451843933024263 0.7423695853111528 L4.3559187403112425 0.7247339196597016 L4.26654183572216 0.7161340286095715 L4.184300203139103 0.7159930673617295 L4.1097140124326845 0.7236809380621041 L4.043290592683078 0.7385423413864096 L3.9854771194095395 0.7599129475558618 L3.9367045971156074 0.7870811140211921 L3.8973343661787374 0.8193230776086899 L3.8676897247157336 0.8559027144648692 L3.8447328261659264 0.906557883095265 L3.807314027922971 1.0521401414169884 L3.7566732393658566 1.2206171277810425 L3.6986142099816397 1.3866837815889719 L3.6433155492323355 1.5264565204164462 L3.6321137092239364 1.5809311390973166 L3.634595756881382 1.6279493700234813 L3.6474955920800944 1.677174907621826 L3.6709843438942684 1.7278221853197655 L3.7051950991374483 1.7790932758649372 L3.750197460836983 1.8301591102502115 L3.806020139644955 1.8802193912192786 L3.872637872992415 1.9284457699310038 L3.950000196840199 1.9740227383346893 L4.0379712921180095 2.0161385987155778 L4.136383717890114 2.0539818934142433 L4.245013209885136 2.086754245617029 L4.276130683488606 2.10796836677576 L4.342591843828615 2.1609805980649615 L4.42902608996135 2.2426788458764393 L4.527929289158791 2.3530852912884312 L4.583494279073098 2.4233550649882445 L4.638478832037627 2.4992298001462068 L4.696847810535128 2.587276099041494 L4.754610343138154 2.682916686802572 L4.812594961984049 2.7886498697552113 L4.869784276655708 2.9041766215808638 L4.925686648978009 3.0301363106434316 L4.978831419983195 3.1648419093199767 L5.020820545551291 3.284956562637113 A6 6 0 0 1 4.6756982189248 3.759976693356765 L4.548487041805518 3.757160131020142 L4.403951766999982 3.74824276947715 L4.266882200853049 3.734000138530185 L4.13933726059265 3.7153095977683117 L4.0208607953211795 3.6928362985717547 L3.9120515868962356 3.6674554325121176 L3.810277574296169 3.6391510378130376 L3.7211252517078703 3.6103042030280545 L3.637124199356284 3.5791733115563025 L3.501558660656164 3.519228247397974 L3.397149358754159 3.462270541366779 L3.3261941027322774 3.4154439021229757 L3.296402446401305 3.3924049500405298 L3.231665728167747 3.299219377593134 L3.16526350412526 3.2173178199631876 L3.098024377216018 3.146666853144022 L3.030771831629411 3.08717496872168 L2.9643198081672035 3.03872050991985 L2.899459495320808 3.0010994650451037 L2.8369865062164794 2.974079886359076 L2.7776530966953903 2.9573871629562656 L2.72222624972092 2.950698902011246 L2.671423713118844 2.9536419573615094 L2.625939723304845 2.965810822164771 L2.5775928411665743 2.9932979880337385 L2.461749293041994 3.0890822913297797 L2.321751746555269 3.1956171277810426 L2.1771694751006625 3.2958416316761805 L2.0502755642329835 3.3764164154779728 L2.009193707813048 3.413903031397415 L1.9835651038214888 3.4534004902706616 L1.965067244685407 3.500807119631772 L1.9543003211801189 3.5555879699193613 L1.9518410126708494 3.617175730892271 L1.9582329437251071 3.6849405832672124 L1.9739697446730555 3.758251948661158 L1.999517868899666 3.8364248298188954 L2.035315833744975 3.9187698048503687 L2.081730863219005 4.004550364063543 L2.139104457604268 4.093011605109073 L2.2077244574108255 4.183375808345465 L2.220429674820599 4.218828784956328 L2.243038075258634 4.30078147087713 L2.264943824074282 4.417681516937111 L2.2800629126518595 4.565136049456743 L2.2837123971221267 4.654645772186184 L2.283597784551093 4.748348831709118 L2.2790669640902914 4.853888208559429 L2.269581707597731 4.965215034209272 L2.2543438440389103 5.084837479904729 L2.2327060505365686 5.211915621189334 L2.203894772156863 5.3466777402663475 L2.167711830758922 5.486894571466432 L2.1310801251184186 5.608749956039035 A6 6 0 0 1 1.5726604703603115 5.790191500633523 L1.4714 5.71314 L1.35971 5.62097 L1.25719 5.52888 L1.16499 5.43879 L1.08235 5.35097 L1.00924 5.26648 L0.94354 5.18376 L0.88837 5.10802 L0.83871 5.03346 L0.76427 4.90528 L0.71328 4.79783 L0.6834 4.71824 L0.67284 4.68209 L0.67524 4.56865 L0.66966 4.46336 L0.65679 4.36668 L0.63735 4.27902 L0.61207 4.20076 L0.58171 4.1322 L0.54705 4.07362 L0.50886 4.02524 L0.46795 3.98725 L0.42512 3.95977 L0.38117 3.94288 L0.3259 3.9367 L0.17588 3.9461 L0 3.95 L-0.17588 3.9461 L-0.3259 3.9367 L-0.38117 3.94288 L-0.42512 3.95977 L-0.46795 3.98725 L-0.50886 4.02524 L-0.54705 4.07362 L-0.58171 4.1322 L-0.61207 4.20076 L-0.63735 4.27902 L-0.65679 4.36668 L-0.66966 4.46336 L-0.67524 4.56865 L-0.67284 4.68209 L-0.6834 4.71824 L-0.71328 4.79783 L-0.76427 4.90528 L-0.83871 5.03346 L-0.88837 5.10802 L-0.94354 5.18376 L-1.00924 5.26648 L-1.08235 5.35097 L-1.16499 5.43879 L-1.25719 5.52888 L-1.35971 5.62097 L-1.4714 5.71314 L-1.5726604703603115 5.790191500633523 A6 6 0 0 1 -2.1310801251184186 5.608749956039035 L-2.167711830758922 5.486894571466432 L-2.203894772156863 5.3466777402663475 L-2.2327060505365686 5.211915621189334 L-2.2543438440389103 5.084837479904729 L-2.269581707597731 4.965215034209272 L-2.2790669640902914 4.853888208559429 L-2.283597784551093 4.748348831709118 L-2.2837123971221267 4.654645772186184 L-2.2800629126518595 4.565136049456743 L-2.264943824074282 4.417681516937111 L-2.243038075258634 4.30078147087713 L-2.220429674820599 4.218828784956328 L-2.2077244574108255 4.183375808345465 L-2.139104457604268 4.093011605109073 L-2.081730863219005 4.004550364063543 L-2.035315833744975 3.9187698048503687 L-1.999517868899666 3.8364248298188954 L-1.9739697446730555 3.758251948661158 L-1.9582329437251071 3.6849405832672124 L-1.9518410126708494 3.617175730892271 L-1.9543003211801189 3.5555879699193613 L-1.965067244685407 3.500807119631772 L-1.9835651038214888 3.4534004902706616 L-2.009193707813048 3.413903031397415 L-2.0502755642329835 3.3764164154779728 L-2.1771694751006625 3.2958416316761805 L-2.321751746555269 3.1956171277810426 L-2.461749293041994 3.0890822913297797 L-2.5775928411665743 2.9932979880337385 L-2.625939723304845 2.965810822164771 L-2.671423713118844 2.9536419573615094 L-2.72222624972092 2.950698902011246 L-2.7776530966953903 2.9573871629562656 L-2.8369865062164794 2.974079886359076 L-2.899459495320808 3.0010994650451037 L-2.9643198081672035 3.03872050991985 L-3.030771831629411 3.08717496872168 L-3.098024377216018 3.146666853144022 L-3.16526350412526 3.2173178199631876 L-3.231665728167747 3.299219377593134 L-3.296402446401305 3.3924049500405298 L-3.3261941027322774 3.4154439021229757 L-3.397149358754159 3.462270541366779 L-3.501558660656164 3.519228247397974 L-3.637124199356284 3.5791733115563025 L-3.7211252517078703 3.6103042030280545 L-3.810277574296169 3.6391510378130376 L-3.9120515868962356 3.6674554325121176 L-4.0208607953211795 3.6928362985717547 L-4.13933726059265 3.7153095977683117 L-4.266882200853049 3.734000138530185 L-4.403951766999982 3.74824276947715 L-4.548487041805518 3.757160131020142 L-4.6756982189248 3.759976693356765 A6 6 0 0 1 -5.020820545551291 3.284956562637113 L-4.978831419983195 3.1648419093199767 L-4.925686648978009 3.0301363106434316 L-4.869784276655708 2.9041766215808638 L-4.812594961984049 2.7886498697552113 L-4.754610343138154 2.682916686802572 L-4.696847810535128 2.587276099041494 L-4.638478832037627 2.4992298001462068 L-4.583494279073098 2.4233550649882445 L-4.527929289158791 2.3530852912884312 L-4.42902608996135 2.2426788458764393 L-4.342591843828615 2.1609805980649615 L-4.276130683488606 2.10796836677576 L-4.245013209885136 2.086754245617029 L-4.136383717890114 2.0539818934142433 L-4.0379712921180095 2.0161385987155778 L-3.950000196840199 1.9740227383346893 L-3.872637872992415 1.9284457699310038 L-3.806020139644955 1.8802193912192786 L-3.750197460836983 1.8301591102502115 L-3.7051950991374483 1.7790932758649372 L-3.6709843438942684 1.7278221853197655 L-3.6474955920800944 1.677174907621826 L-3.634595756881382 1.6279493700234813 L-3.6321137092239364 1.5809311390973166 L-3.6433155492323355 1.5264565204164462 L-3.6986142099816397 1.3866837815889719 L-3.7566732393658566 1.2206171277810425 L-3.807314027922971 1.0521401414169884 L-3.8447328261659264 0.906557883095265 L-3.8676897247157336 0.8559027144648692 L-3.8973343661787374 0.8193230776086899 L-3.9367045971156074 0.7870811140211921 L-3.9854771194095395 0.7599129475558618 L-4.043290592683078 0.7385423413864096 L-4.1097140124326845 0.7236809380621041 L-4.184300203139103 0.7159930673617295 L-4.26654183572216 0.7161340286095715 L-4.3559187403112425 0.7247339196597016 L-4.451843933024263 0.7423695853111528 L-4.5537049884535925 0.7695990892879643 L-4.660851198875615 0.8069365127689665 L-4.698495111400284 0.8080643203035441 L-4.78342312732414 0.804241414178947 L-4.901370926543232 0.7889509184586454 L-5.046280575863215 0.7577640697246149 L-5.132537133658842 0.7335749102259935 L-5.221618621782703 0.7045100693759484 L-5.320592433341072 0.6675875420300525 L-5.423539430861602 0.6241646459784531 L-5.532598378537788 0.5727072079178295 L-5.646770426972188 0.5128591381386554 L-5.766033643821129 0.44381419910006503 L-5.888206631029791 0.36607279316659835 L-5.9927781689973605 0.2935785861251625 A6 6 0 0 1 -5.992778168997361 -0.29357858612516163 L-5.888206631029791 -0.3660727931665977 L-5.76603364382113 -0.44381419910006437 L-5.646770426972189 -0.5128591381386547 L-5.532598378537788 -0.5727072079178288 L-5.423539430861602 -0.6241646459784527 L-5.320592433341073 -0.6675875420300518 L-5.221618621782704 -0.7045100693759478 L-5.132537133658842 -0.7335749102259927 L-5.046280575863216 -0.7577640697246141 L-4.901370926543233 -0.7889509184586446 L-4.78342312732414 -0.8042414141789466 L-4.698495111400284 -0.8080643203035434 L-4.660851198875615 -0.8069365127689659 L-4.5537049884535925 -0.7695990892879637 L-4.451843933024263 -0.7423695853111523 L-4.355918740311243 -0.724733919659701 L-4.266541835722161 -0.716134028609571 L-4.184300203139103 -0.715993067361729 L-4.1097140124326845 -0.7236809380621035 L-4.043290592683078 -0.7385423413864091 L-3.98547711940954 -0.7599129475558613 L-3.936704597115608 -0.7870811140211915 L-3.897334366178738 -0.8193230776086895 L-3.867689724715734 -0.8559027144648688 L-3.844732826165927 -0.9065578830952645 L-3.8073140279229714 -1.052140141416988 L-3.756673239365857 -1.220617127781042 L-3.69861420998164 -1.3866837815889714 L-3.643315549232336 -1.5264565204164458 L-3.632113709223937 -1.5809311390973162 L-3.6345957568813825 -1.6279493700234808 L-3.647495592080095 -1.6771749076218259 L-3.670984343894269 -1.727822185319765 L-3.7051950991374487 -1.7790932758649367 L-3.7501974608369837 -1.8301591102502113 L-3.8060201396449553 -1.8802193912192784 L-3.872637872992416 -1.9284457699310034 L-3.9500001968402 -1.974022738334689 L-4.0379712921180095 -2.0161385987155773 L-4.136383717890114 -2.053981893414243 L-4.245013209885136 -2.0867542456170285 L-4.276130683488606 -2.1079683667757596 L-4.342591843828615 -2.160980598064961 L-4.429026089961351 -2.242678845876439 L-4.5279292891587914 -2.353085291288431 L-4.583494279073098 -2.423355064988244 L-4.638478832037628 -2.4992298001462068 L-4.696847810535129 -2.5872760990414934 L-4.754610343138154 -2.682916686802572 L-4.812594961984049 -2.7886498697552105 L-4.869784276655709 -2.904176621580863 L-4.92568664897801 -3.0301363106434307 L-4.978831419983197 -3.1648419093199758 L-5.020820545551292 -3.284956562637113 A6 6 0 0 1 -4.6756982189248 -3.7599766933567635 L-4.548487041805519 -3.7571601310201417 L-4.403951766999983 -3.748242769477149 L-4.26688220085305 -3.7340001385301838 L-4.139337260592651 -3.7153095977683117 L-4.02086079532118 -3.6928362985717538 L-3.912051586896236 -3.6674554325121163 L-3.810277574296169 -3.6391510378130367 L-3.721125251707871 -3.6103042030280537 L-3.6371241993562844 -3.5791733115563025 L-3.5015586606561646 -3.5192282473979737 L-3.3971493587541595 -3.4622705413667783 L-3.326194102732278 -3.415443902122975 L-3.2964024464013058 -3.3924049500405293 L-3.2316657281677474 -3.2992193775931336 L-3.1652635041252606 -3.217317819963187 L-3.0980243772160185 -3.1466668531440214 L-3.0307718316294117 -3.0871749687216794 L-2.964319808167204 -3.0387205099198495 L-2.8994594953208086 -3.001099465045103 L-2.83698650621648 -2.9740798863590756 L-2.7776530966953907 -2.957387162956265 L-2.7222262497209204 -2.9506989020112457 L-2.6714237131188443 -2.953641957361509 L-2.6259397233048456 -2.9658108221647703 L-2.5775928411665747 -2.993297988033738 L-2.4617492930419944 -3.0890822913297793 L-2.3217517465552695 -3.195617127781042 L-2.177169475100663 -3.29584163167618 L-2.050275564232984 -3.3764164154779723 L-2.0091937078130484 -3.413903031397415 L-1.9835651038214892 -3.453400490270661 L-1.9650672446854074 -3.5008071196317716 L-1.9543003211801193 -3.555587969919361 L-1.95184101267085 -3.6171757308922707 L-1.9582329437251076 -3.6849405832672124 L-1.973969744673056 -3.7582519486611576 L-1.9995178688996664 -3.836424829818895 L-2.0353158337449755 -3.9187698048503683 L-2.0817308632190064 -4.004550364063542 L-2.1391044576042684 -4.093011605109073 L-2.2077244574108263 -4.183375808345465 L-2.2204296748205996 -4.218828784956328 L-2.2430380752586343 -4.300781470877129 L-2.2649438240742823 -4.417681516937111 L-2.28006291265186 -4.565136049456743 L-2.283712397122127 -4.654645772186182 L-2.2835977845510937 -4.748348831709118 L-2.2790669640902927 -4.853888208559428 L-2.2695817075977316 -4.965215034209271 L-2.2543438440389107 -5.084837479904729 L-2.232706050536569 -5.211915621189333 L-2.203894772156864 -5.346677740266347 L-2.167711830758923 -5.486894571466432 L-2.1310801251184195 -5.608749956039034 A6 6 0 0 1 -1.5726604703603122 -5.790191500633523 L-1.4714000000000007 -5.71314 L-1.3597100000000006 -5.62097 L-1.2571900000000007 -5.52888 L-1.1649900000000006 -5.43879 L-1.0823500000000006 -5.35097 L-1.0092400000000006 -5.26648 L-0.9435400000000007 -5.18376 L-0.8883700000000007 -5.10802 L-0.8387100000000006 -5.03346 L-0.7642700000000006 -4.90528 L-0.7132800000000006 -4.79783 L-0.6834000000000006 -4.71824 L-0.6728400000000005 -4.68209 L-0.6752400000000005 -4.56865 L-0.6696600000000006 -4.46336 L-0.6567900000000005 -4.36668 L-0.6373500000000005 -4.27902 L-0.6120700000000006 -4.20076 L-0.5817100000000005 -4.1322 L-0.5470500000000005 -4.07362 L-0.5088600000000004 -4.02524 L-0.4679500000000005 -3.98725 L-0.4251200000000005 -3.95977 L-0.3811700000000005 -3.94288 L-0.3259000000000005 -3.9367 L-0.17588000000000048 -3.9461 L-4.837354856632045e-16 -3.95 L0.17587999999999954 -3.9461 L0.3258999999999995 -3.9367 L0.3811699999999995 -3.94288 L0.4251199999999995 -3.95977 L0.4679499999999995 -3.98725 L0.5088599999999995 -4.02524 L0.5470499999999996 -4.07362 L0.5817099999999994 -4.1322 L0.6120699999999994 -4.20076 L0.6373499999999994 -4.27902 L0.6567899999999994 -4.36668 L0.6696599999999995 -4.46336 L0.6752399999999994 -4.56865 L0.6728399999999994 -4.68209 L0.6833999999999995 -4.71824 L0.7132799999999995 -4.79783 L0.7642699999999994 -4.90528 L0.8387099999999993 -5.03346 L0.8883699999999993 -5.10802 L0.9435399999999994 -5.18376 L1.0092399999999992 -5.26648 L1.0823499999999993 -5.35097 L1.1649899999999993 -5.43879 L1.2571899999999994 -5.52888 L1.3597099999999993 -5.62097 L1.4713999999999994 -5.71314 L1.5726604703603109 -5.790191500633523 A6 6 0 0 1 2.1310801251184177 -5.608749956039035 L2.167711830758922 -5.486894571466432 L2.203894772156862 -5.3466777402663475 L2.232706050536568 -5.211915621189333 L2.2543438440389094 -5.084837479904729 L2.2695817075977303 -4.965215034209272 L2.2790669640902914 -4.853888208559429 L2.283597784551092 -4.748348831709118 L2.283712397122126 -4.654645772186183 L2.280062912651859 -4.565136049456743 L2.264943824074281 -4.417681516937111 L2.2430380752586334 -4.30078147087713 L2.2204296748205987 -4.218828784956328 L2.207724457410825 -4.183375808345465 L2.1391044576042675 -4.093011605109073 L2.081730863219005 -4.004550364063543 L2.035315833744974 -3.9187698048503687 L1.9995178688996655 -3.8364248298188954 L1.973969744673055 -3.758251948661158 L1.9582329437251067 -3.6849405832672124 L1.951841012670849 -3.617175730892271 L1.9543003211801184 -3.5555879699193613 L1.9650672446854065 -3.500807119631772 L1.9835651038214883 -3.4534004902706616 L2.0091937078130475 -3.413903031397415 L2.050275564232983 -3.3764164154779728 L2.177169475100662 -3.29584163167618 L2.3217517465552686 -3.1956171277810426 L2.4617492930419935 -3.08908229132978 L2.577592841166574 -2.9932979880337385 L2.6259397233048447 -2.965810822164771 L2.6714237131188434 -2.9536419573615094 L2.7222262497209195 -2.950698902011246 L2.77765309669539 -2.9573871629562656 L2.836986506216479 -2.974079886359076 L2.8994594953208077 -3.0010994650451037 L2.964319808167203 -3.03872050991985 L3.0307718316294108 -3.08717496872168 L3.098024377216018 -3.146666853144022 L3.1652635041252593 -3.2173178199631876 L3.2316657281677466 -3.299219377593134 L3.2964024464013044 -3.3924049500405298 L3.326194102732277 -3.4154439021229757 L3.3971493587541586 -3.462270541366779 L3.5015586606561633 -3.519228247397974 L3.6371241993562835 -3.5791733115563025 L3.7211252517078703 -3.6103042030280545 L3.810277574296168 -3.639151037813038 L3.9120515868962347 -3.6674554325121176 L4.020860795321179 -3.692836298571755 L4.139337260592649 -3.715309597768312 L4.266882200853049 -3.734000138530185 L4.403951766999982 -3.7482427694771503 L4.548487041805517 -3.757160131020142 L4.675698218924799 -3.759976693356765 A6 6 0 0 1 5.020820545551292 -3.284956562637113 Z" id="SvgjsPath1312">
        </path>
      </g>
    </g>
  </g>
</svg>
