<?xml version="1.0" encoding="UTF-8" standalone="no"?>
<svg
   viewBox="-11.9 -11.9 20.099965 20.040002"
   height="20.040001mm"
   width="20.099964mm"
   version="1.1"
   id="SvgjsSvg1369"
   sodipodi:docname="gear18.svg"
   inkscape:version="1.1 (c68e22c387, 2021-05-23)"
   xmlns:inkscape="http://www.inkscape.org/namespaces/inkscape"
   xmlns:sodipodi="http://sodipodi.sourceforge.net/DTD/sodipodi-0.dtd"
   xmlns="http://www.w3.org/2000/svg"
   xmlns:svg="http://www.w3.org/2000/svg">
  <sodipodi:namedview
     id="namedview14"
     pagecolor="#ffffff"
     bordercolor="#666666"
     borderopacity="1.0"
     inkscape:pageshadow="2"
     inkscape:pageopacity="0.0"
     inkscape:pagecheckerboard="0"
     inkscape:document-units="mm"
     showgrid="false"
     inkscape:zoom="5.7808125"
     inkscape:cx="72.135189"
     inkscape:cy="37.970441"
     inkscape:window-width="1366"
     inkscape:window-height="705"
     inkscape:window-x="-8"
     inkscape:window-y="-8"
     inkscape:window-maximized="1"
     inkscape:current-layer="SvgjsSvg1369" />
  <defs
     id="SvgjsDefs1370" />
  <defs
     id="defs3" />
  <g
     id="SvgjsG1371"
     transform="translate(-1.8500178,-1.88)">
    <g
       id="SvgjsG1372">
      <g
         fill="none"
         stroke-width="0.04"
         stroke="#0000ff"
         id="SvgjsG1373">
        <circle
           cy="0"
           cx="0"
           r="9"
           id="SvgjsCircle1374" />
        <circle
           cy="0"
           cx="0"
           r="10"
           id="SvgjsCircle1375" />
      </g>
      <g
         fill="none"
         stroke-width="0.1"
         stroke="#000000"
         id="SvgjsG1376">
        <circle
           cy="0"
           cx="0"
           r="2"
           id="SvgjsCircle1377" />
        <path
           d="m 9.3808828,-2.9505284 -0.1382263,0.1480216 -0.1337838,0.1317529 -0.1283381,0.1162213 -0.1208203,0.1005783 -0.1154,0.088128 -0.1049145,0.073363 -0.095706,0.061148 -0.086818,0.050452 -0.073033,0.038446 -0.1123842,0.050868 -0.061769,0.022112 -0.1338372,0.040404 -0.097308,0.040543 -0.079747,0.044484 -0.062038,0.047017 -0.02436,0.024015 -0.019925,0.024116 -0.015498,0.024057 -0.011084,0.023807 -0.00669,0.023387 -0.00232,0.022798 0.00321,0.027409 0.069128,0.3468962 0.053686,0.349619 0.00636,0.026854 0.00997,0.0206314 0.014286,0.0196884 0.018558,0.0185797 0.022791,0.0173052 0.026972,0.0158472 0.031104,0.014235 0.074378,0.0229633 0.090152,0.014526 0.1053063,0.004817 0.1395848,-0.007807 0.065606,-3.477e-4 0.1230045,0.009363 0.081778,0.0111487 0.098838,0.0177161 0.1108479,0.0247271 0.123679,0.0330556 0.1385819,0.043344 0.1479338,0.0531896 0.1603484,0.0653181 0.1707778,0.0780505 0.1805166,0.0918186 0.1698926,0.0952317 a 10,10 0 0 1 0,0.6812589 L 9.8242804,0.435861 9.6437638,0.5276796 9.472986,0.6057301 9.3126376,0.6710482 9.1647038,0.7242378 9.0261219,0.7675818 8.9024429,0.8006374 8.791595,0.8253645 8.692757,0.8430806 8.610979,0.8542293 8.4879745,0.8635923 8.4223685,0.8632446 8.2827837,0.8554376 l -0.1053063,0.004817 -0.090152,0.014526 -0.074378,0.0229633 -0.031104,0.014235 -0.026972,0.0158472 -0.022791,0.0173052 -0.018558,0.0185797 -0.014286,0.0196884 -0.00997,0.0206314 -0.00636,0.026854 -0.053686,0.349619 -0.069128,0.3468962 -0.00321,0.027409 0.00232,0.022798 0.00669,0.023387 0.011084,0.023807 0.015498,0.024057 0.019925,0.024116 0.02436,0.024015 0.062038,0.047017 0.079747,0.044484 0.097308,0.040543 0.1338372,0.040404 0.061769,0.022112 0.1123842,0.050868 0.073033,0.038446 0.086818,0.050452 0.095706,0.061148 0.1049145,0.073363 0.1154,0.088128 0.1208203,0.1005783 0.1283381,0.1162213 0.1337838,0.1317529 0.1382263,0.1480216 0.1270757,0.1475952 A 10,10 0 0 1 9.2749543,3.7382976 L 9.0827362,3.7696794 8.8817023,3.7942203 8.6945288,3.8091543 8.5215105,3.8156909 8.3643063,3.8150765 8.2192573,3.8084087 8.0917314,3.79717 7.9791113,3.7824937 7.8801748,3.7653369 7.7995152,3.7478434 7.6807265,3.7145715 7.6191956,3.691806 7.490699,3.6367288 7.390096,3.6052383 7.300413,3.5880543 7.222667,3.5841943 7.18857,3.5869343 7.157805,3.5926043 7.13047,3.6010743 7.106676,3.6121863 7.086518,3.6258013 7.070089,3.6417773 7.054928,3.6648363 6.884902,3.975 6.7012973,4.2773326 l -0.012389,0.024659 -0.00562,0.022216 -0.00171,0.024265 0.00227,0.026162 0.00634,0.027906 0.010475,0.029477 0.014677,0.030898 0.042216,0.0654 0.059723,0.069076 0.077573,0.071379 0.1119466,0.083743 0.050481,0.041905 0.088209,0.086238 0.05548,0.061107 0.064326,0.077103 0.06902,0.090194 0.073496,0.1048213 0.078299,0.1222822 0.079134,0.1358356 0.080848,0.1531066 0.080653,0.169564 0.079264,0.1863709 0.068932,0.1821566 A 10,10 0 0 1 7.437033,6.6850718 L 7.2456739,6.6488186 7.0483704,6.6031219 6.8673771,6.5531382 6.7025574,6.5001048 6.5550439,6.4457605 6.421023,6.3898851 6.3050317,6.3357078 6.204223,6.2833983 6.117121,6.2334378 6.0473089,6.1894121 5.9470638,6.1175186 5.8970299,6.0750813 5.7951201,5.9793771 l -0.083766,-0.064 -0.078397,-0.046821 -0.071737,-0.030218 -0.032978,-0.00909 -0.030848,-0.0052 -0.028583,-0.00139 -0.026159,0.0023 -0.023599,0.0059 -0.020902,0.00939 -0.022133,0.016483 -0.2658568,0.2333147 -0.2759358,0.2213032 -0.020076,0.018935 -0.01288,0.018954 -0.00991,0.022216 -0.00681,0.025362 -0.00359,0.02839 -2.382e-4,0.031282 0.00322,0.034055 0.017302,0.075895 0.032496,0.085337 0.048481,0.093606 0.076554,0.1169804 0.033104,0.056643 0.053394,0.1112065 0.031234,0.076396 0.034076,0.094454 0.03401,0.1083606 0.033213,0.1236369 0.031754,0.1416875 0.027903,0.1547092 0.023607,0.1715249 0.017795,0.1869232 0.010741,0.2022412 0.00247,0.1947472 A 10,10 0 0 1 4.7020958,8.8255277 L 4.5346764,8.7260123 4.3649009,8.6155896 4.2119183,8.5067169 4.0751769,8.4005102 3.9551465,8.2989906 3.8483185,8.2006471 3.757852,8.1100657 3.6810138,8.0264322 3.6162522,7.9496941 3.565708,7.8844463 3.4960973,7.7826027 3.4635953,7.7256121 3.4005641,7.6008244 3.3437394,7.5120349 3.2860836,7.4412239 3.229008,7.3882928 l -0.02788,-0.01982 -0.02721,-0.015435 -0.026382,-0.011085 -0.02537,-0.00678 -0.024194,-0.00253 -0.022854,0.00168 -0.026436,0.00792 -0.3296221,0.1283157 -0.3349849,0.1135814 -0.025341,0.010926 -0.018586,0.013405 -0.016909,0.017488 -0.015075,0.021503 -0.013085,0.02545 -0.010923,0.029314 -0.00862,0.033104 -0.0097,0.077235 0.00135,0.091305 0.013543,0.1045429 0.031927,0.1361085 0.011735,0.064549 0.012139,0.1227616 0.00322,0.082472 -2.84e-4,0.1004128 -0.0051,0.1134576 L 2.323289,8.7557144 2.304668,8.8997176 2.277975,9.0546402 2.241493,9.2238949 2.194283,9.4056316 2.135206,9.5993498 2.070923,9.7831982 A 10,10 0 0 1 1.4000165,9.9014948 L 1.27673,9.75072 1.15496,9.58889 1.04844,9.43426 0.95627,9.28769 0.8782,9.15124 0.81145,9.02229 0.75742,8.90623 0.71382,8.80136 0.67921,8.7071 0.65403,8.6285 0.62345,8.50899 0.6124,8.44432 0.59585,8.3055 0.57282,8.20263 0.54286,8.11637 0.50733,8.04711 0.48791,8.01895 0.46762,7.99514 0.44662,7.9757 0.4251,7.96065 0.40323,7.95 0.38118,7.94376 0.35363,7.94216 0,7.95 -0.35363,7.94216 -0.38118,7.94376 -0.40323,7.95 -0.4251,7.96065 -0.44662,7.9757 -0.46762,7.99514 -0.48791,8.01895 -0.50733,8.04711 -0.54286,8.11637 -0.57282,8.20263 -0.59585,8.3055 -0.6124,8.44432 -0.62345,8.50899 -0.65403,8.6285 -0.67921,8.7071 -0.71382,8.80136 -0.75742,8.90623 -0.81145,9.02229 -0.8782,9.15124 -0.95627,9.28769 -1.04844,9.43426 -1.15496,9.58889 -1.27673,9.75072 -1.4000165,9.9014948 a 10,10 0 0 1 -0.670909,-0.1182994 l -0.064283,-0.1838484 -0.059077,-0.1937182 -0.04721,-0.1817367 -0.036482,-0.1692547 -0.026693,-0.1549226 -0.018621,-0.1440032 -0.011077,-0.1275401 -0.0051,-0.1134576 -2.84e-4,-0.1004128 0.00322,-0.082472 0.012139,-0.1227616 0.011735,-0.064549 0.031927,-0.1361085 0.013543,-0.1045429 0.00135,-0.091305 -0.0097,-0.077235 -0.00862,-0.033104 -0.010923,-0.029314 -0.013085,-0.02545 -0.015075,-0.021503 -0.016909,-0.017488 -0.018586,-0.013405 -0.025341,-0.010926 -0.3349849,-0.1135814 -0.3296221,-0.1283157 -0.026436,-0.00792 -0.022854,-0.00168 -0.024194,0.00253 -0.02537,0.00678 -0.026382,0.011085 -0.02721,0.015435 -0.02788,0.01982 -0.057076,0.052931 -0.057656,0.070811 -0.056825,0.088789 -0.063031,0.1247877 -0.032502,0.056991 -0.069611,0.1018436 -0.050544,0.065248 -0.064762,0.076738 -0.076838,0.083633 -0.090466,0.090581 -0.106828,0.098344 -0.1200304,0.1015196 -0.1367414,0.1062067 -0.1529826,0.1088727 -0.1697755,0.1104227 -0.1674194,0.099515 A 10,10 0 0 1 -5.2920833,8.4848983 l 0.00247,-0.1947472 0.010741,-0.2022412 0.017795,-0.1869232 0.023607,-0.1715249 0.027903,-0.1547092 0.031754,-0.1416875 0.033213,-0.1236369 0.03401,-0.1083606 0.034076,-0.094454 0.031234,-0.076396 0.053394,-0.1112065 0.033104,-0.056643 0.076554,-0.1169804 0.048481,-0.093606 0.032496,-0.085337 0.017302,-0.075895 0.00322,-0.034055 -2.382e-4,-0.031282 -0.00359,-0.02839 -0.00681,-0.025362 -0.00991,-0.022216 -0.01288,-0.018954 -0.020076,-0.018935 -0.2759358,-0.2213032 -0.2658568,-0.2333147 -0.022133,-0.016483 -0.020902,-0.00939 -0.023599,-0.0059 -0.026159,-0.0023 -0.028583,0.00139 -0.030848,0.0052 -0.032978,0.00909 -0.071737,0.030218 -0.078397,0.046821 -0.083766,0.064 -0.1019098,0.095704 -0.050034,0.042437 -0.1002451,0.071893 -0.069812,0.044026 -0.087102,0.049961 -0.1008087,0.052309 -0.1159913,0.054177 -0.1340209,0.055875 -0.1475135,0.054344 -0.1648197,0.053033 -0.1809933,0.049984 -0.1973035,0.045697 -0.1913591,0.036253 A 10,10 0 0 1 -7.8749378,6.1631972 l 0.068932,-0.1821566 0.079264,-0.1863709 0.080653,-0.169564 0.080848,-0.1531066 0.079134,-0.1358356 0.078299,-0.1222822 0.073496,-0.1048213 0.06902,-0.090194 0.064326,-0.077103 0.05548,-0.061107 0.088209,-0.086238 0.050481,-0.041905 0.1119466,-0.083743 0.077573,-0.071379 0.059723,-0.069076 0.042216,-0.0654 0.014677,-0.030898 0.010475,-0.029477 0.00634,-0.027906 0.00227,-0.026162 -0.00171,-0.024265 -0.00562,-0.022216 L -6.7012942,4.277332 -6.884902,3.975 -7.0549273,3.6648274 l -0.015161,-0.023059 -0.016429,-0.015976 -0.020158,-0.013615 -0.023794,-0.011112 -0.027335,-0.00847 -0.030765,-0.00567 -0.034097,-0.00274 -0.077746,0.00386 -0.089683,0.017184 -0.100603,0.031491 -0.1284966,0.055077 -0.061531,0.022765 -0.1187887,0.033272 -0.08066,0.017494 -0.098936,0.017157 -0.1126201,0.014676 -0.1275259,0.011239 -0.145049,0.00667 -0.1572042,6.144e-4 -0.1730183,-0.00654 -0.1871735,-0.014934 -0.2010339,-0.024541 -0.1922181,-0.031382 a 10,10 0 0 1 -0.2330042,-0.640174 l 0.1270757,-0.1475952 0.1382263,-0.1480216 0.1337838,-0.1317529 0.1283381,-0.1162213 0.1208203,-0.1005783 0.1154,-0.088128 0.1049145,-0.073363 0.095706,-0.061148 0.086818,-0.050452 0.073033,-0.038446 0.1123842,-0.050868 0.061769,-0.022112 0.1338372,-0.040404 0.097308,-0.040543 0.079747,-0.044484 0.062038,-0.047017 0.02436,-0.024015 0.019925,-0.024116 0.015498,-0.024057 0.011084,-0.023807 0.00669,-0.023387 0.00232,-0.022798 -0.00321,-0.027409 -0.069128,-0.3468962 -0.053686,-0.349619 -0.00636,-0.026854 -0.00997,-0.0206314 -0.014286,-0.0196884 -0.018558,-0.0185797 -0.022791,-0.0173052 -0.026972,-0.0158472 -0.031104,-0.014235 -0.074378,-0.0229633 -0.090152,-0.014526 -0.1053063,-0.004817 -0.1395848,0.007807 -0.065606,3.477e-4 L -8.6109783,0.8542198 -8.6927563,0.8430711 -8.7915943,0.825355 -8.9024422,0.8006279 -9.0261212,0.7675723 -9.1647031,0.7242283 -9.3126369,0.6710387 -9.4729853,0.6057206 -9.6437631,0.5276701 -9.8242797,0.4358515 -9.9941723,0.3406198 a 10,10 0 0 1 0,-0.6812589 l 0.1698926,-0.0952317 0.1805166,-0.0918186 0.1707778,-0.0780505 0.1603484,-0.0653181 0.1479338,-0.0531896 0.1385819,-0.043344 0.123679,-0.0330556 0.1108479,-0.0247271 0.098838,-0.0177161 0.081778,-0.0111487 0.1230045,-0.009363 0.065606,3.477e-4 0.1395848,0.007807 0.1053063,-0.004817 0.090152,-0.014526 0.074378,-0.0229633 0.031104,-0.014235 0.026972,-0.0158472 0.022791,-0.0173052 0.018558,-0.0185797 0.014286,-0.0196884 0.00997,-0.0206314 0.00636,-0.026854 0.053686,-0.349619 0.069128,-0.3468962 0.00321,-0.027409 -0.00232,-0.022798 -0.00669,-0.023387 -0.011084,-0.023807 -0.015498,-0.024057 -0.019925,-0.024116 -0.02436,-0.024015 -0.062038,-0.047017 -0.079747,-0.044484 -0.097308,-0.040543 -0.1338372,-0.040404 -0.061769,-0.022112 -0.1123842,-0.050868 -0.073033,-0.038446 -0.086818,-0.050452 -0.095706,-0.061148 -0.1049145,-0.073363 -0.1154,-0.088128 -0.1208203,-0.1005783 -0.1283381,-0.1162213 -0.1337838,-0.1317529 -0.1382263,-0.1480216 -0.1270757,-0.1475952 a 10,10 0 0 1 0.2330042,-0.640174 l 0.1922181,-0.031382 0.2010339,-0.024541 0.1871735,-0.014934 0.1730183,-0.00654 0.1572042,6.144e-4 0.145049,0.00667 0.1275259,0.011239 0.1126201,0.014676 0.098936,0.017157 0.08066,0.017494 0.1187887,0.033272 0.061531,0.022765 0.1284966,0.055077 0.100603,0.031491 0.089683,0.017184 0.077746,0.00386 0.034097,-0.00274 0.030765,-0.00567 0.027335,-0.00847 0.023794,-0.011112 0.020158,-0.013615 0.016429,-0.015976 0.015161,-0.023059 0.1700253,-0.3101726 0.1836047,-0.3023326 0.012389,-0.024659 0.00562,-0.022216 0.00171,-0.024265 -0.00227,-0.026162 -0.00634,-0.027906 -0.010475,-0.029477 -0.014677,-0.030898 -0.042216,-0.0654 -0.059723,-0.069076 -0.077573,-0.071379 -0.1119466,-0.083743 -0.050481,-0.041905 -0.088209,-0.086238 -0.05548,-0.061107 -0.064326,-0.077103 -0.06902,-0.090194 -0.073496,-0.1048213 -0.078299,-0.1222822 -0.079134,-0.1358356 -0.080848,-0.1531066 -0.080653,-0.169564 -0.079264,-0.1863709 -0.068932,-0.1821566 a 10,10 0 0 1 0.4379048,-0.5218746 l 0.1913591,0.036253 0.1973035,0.045697 0.1809933,0.049984 0.1648197,0.053033 0.1475135,0.054344 0.1340209,0.055875 0.1159913,0.054177 0.1008087,0.052309 0.087102,0.049961 0.069812,0.044026 0.1002451,0.071893 0.050034,0.042437 0.1019098,0.095704 0.083766,0.064 0.078397,0.046821 0.071737,0.030218 0.032978,0.00909 0.030848,0.0052 0.028583,0.00139 0.026159,-0.0023 0.023599,-0.0059 0.020902,-0.00939 0.022133,-0.016483 0.2658568,-0.2333147 0.2759358,-0.2213032 0.020076,-0.018935 0.01288,-0.018954 0.00991,-0.022216 0.00681,-0.025362 0.00359,-0.02839 2.382e-4,-0.031282 -0.00322,-0.034055 -0.017302,-0.075895 -0.032496,-0.085337 -0.048481,-0.093606 -0.076554,-0.1169804 -0.033104,-0.056643 -0.053394,-0.1112065 -0.031234,-0.076396 -0.034076,-0.094454 -0.03401,-0.1083606 -0.033213,-0.1236369 -0.031754,-0.1416875 -0.027903,-0.1547092 -0.023607,-0.1715249 -0.017795,-0.1869232 -0.010741,-0.2022412 -0.00247,-0.1947472 a 10,10 0 0 1 0.5899875,-0.3406294 l 0.1674194,0.099515 0.1697755,0.1104227 0.1529826,0.1088727 0.1367414,0.1062067 0.1200304,0.1015196 0.106828,0.098344 0.090466,0.090581 0.076838,0.083633 0.064762,0.076738 0.050544,0.065248 0.069611,0.1018436 0.032502,0.056991 0.063031,0.1247877 0.056825,0.088789 0.057656,0.070811 0.057076,0.052931 0.02788,0.01982 0.02721,0.015435 0.026382,0.011085 0.02537,0.00678 0.024194,0.00253 0.022854,-0.00168 0.026436,-0.00792 0.3296221,-0.1283157 0.3349849,-0.1135814 0.025341,-0.010926 0.018586,-0.013405 0.016909,-0.017488 0.015075,-0.021503 0.013085,-0.02545 0.010923,-0.029314 0.00862,-0.033104 0.0097,-0.077235 -0.00135,-0.091305 -0.013543,-0.1045429 -0.031927,-0.1361085 -0.011735,-0.064549 -0.012139,-0.1227616 -0.00322,-0.082472 2.84e-4,-0.1004128 0.0051,-0.1134576 0.011077,-0.1275401 0.018621,-0.1440032 0.026693,-0.1549226 0.036482,-0.1692547 0.04721,-0.1817367 0.059077,-0.1937182 0.064283,-0.1838484 a 10,10 0 0 1 0.670909,-0.1182994 l 0.1232865,0.1507748 0.12177,0.16183 0.10652,0.15463 0.09217,0.14657 0.07807,0.13645 0.06675,0.12895 0.05403,0.11606 0.0436,0.10487 0.03461,0.09426 0.02518,0.0786 0.03058,0.11951 0.01105,0.06467 0.01655,0.13882 0.02303,0.10287 0.02996,0.08626 0.03553,0.06926 0.01942,0.02816 0.02029,0.02381 0.021,0.01944 0.02152,0.01505 0.02187,0.01065 0.02205,0.00624 0.02755,0.0016 L 0,-7.95 0.35363,-7.94216 0.38118,-7.94376 0.40323,-7.95 0.4251,-7.96065 0.44662,-7.9757 0.46762,-7.99514 0.48791,-8.01895 0.50733,-8.04711 0.54286,-8.11637 0.57282,-8.20263 0.59585,-8.3055 0.6124,-8.44432 0.62345,-8.50899 0.65403,-8.6285 0.67921,-8.7071 0.71382,-8.80136 0.75742,-8.90623 0.81145,-9.02229 0.8782,-9.15124 0.95627,-9.28769 1.04844,-9.43426 1.15496,-9.58889 1.27673,-9.75072 1.4000165,-9.9014948 a 10,10 0 0 1 0.670909,0.1182994 l 0.064283,0.1838484 0.059077,0.1937182 0.04721,0.1817367 0.036482,0.1692547 0.026693,0.1549226 0.018621,0.1440032 0.011077,0.1275401 0.0051,0.1134576 2.84e-4,0.1004128 -0.00322,0.082472 -0.012139,0.1227616 -0.011735,0.064549 -0.031927,0.1361085 -0.013543,0.1045429 -0.00135,0.091305 0.0097,0.077235 0.00862,0.033104 0.010923,0.029314 0.013085,0.02545 0.015075,0.021503 0.016909,0.017488 0.018586,0.013405 0.025341,0.010926 0.3349849,0.1135814 0.3296221,0.1283157 0.026436,0.00792 0.022854,0.00168 0.024194,-0.00253 0.02537,-0.00678 0.026382,-0.011085 0.02721,-0.015435 0.02788,-0.01982 0.057076,-0.052931 0.057656,-0.070811 0.056825,-0.088789 0.063031,-0.1247877 0.032502,-0.056991 0.069611,-0.1018436 0.050544,-0.065248 0.064762,-0.076738 0.076838,-0.083633 0.090466,-0.090581 0.106828,-0.098344 0.1200304,-0.1015196 0.1367414,-0.1062067 0.1529826,-0.1088727 0.1697755,-0.1104227 0.1674194,-0.099515 a 10,10 0 0 1 0.5899875,0.3406294 l -0.00247,0.1947472 -0.010741,0.2022412 -0.017795,0.1869232 -0.023607,0.1715249 -0.027903,0.1547092 -0.031754,0.1416875 -0.033213,0.1236369 -0.03401,0.1083606 -0.034076,0.094454 -0.031234,0.076396 -0.053394,0.1112065 -0.033104,0.056643 -0.076554,0.1169804 -0.048481,0.093606 -0.032496,0.085337 -0.017302,0.075895 -0.00322,0.034055 2.382e-4,0.031282 0.00359,0.02839 0.00681,0.025362 0.00991,0.022216 0.01288,0.018954 0.020076,0.018935 0.2759358,0.2213032 0.2658568,0.2333147 0.022133,0.016483 0.020902,0.00939 0.023599,0.0059 0.026159,0.0023 0.028583,-0.00139 0.030848,-0.0052 0.032978,-0.00909 0.071737,-0.030218 0.078397,-0.046821 0.083766,-0.064 0.1019098,-0.095704 0.050034,-0.042437 0.1002451,-0.071893 0.069812,-0.044026 0.087102,-0.049961 0.1008087,-0.052309 0.1159913,-0.054177 0.1340209,-0.055875 0.1475135,-0.054344 0.1648197,-0.053033 0.1809933,-0.049984 0.1973035,-0.045697 0.1913591,-0.036253 a 10,10 0 0 1 0.4379048,0.5218746 l -0.068932,0.1821566 -0.079264,0.1863709 -0.080653,0.169564 -0.080848,0.1531066 -0.079134,0.1358356 -0.078299,0.1222822 -0.073496,0.1048213 -0.06902,0.090194 -0.064326,0.077103 -0.05548,0.061107 -0.088209,0.086238 -0.050481,0.041905 -0.1119466,0.083743 -0.077573,0.071379 -0.059723,0.069076 -0.042216,0.0654 -0.014677,0.030898 -0.010475,0.029477 -0.00634,0.027906 -0.00227,0.026162 0.00171,0.024265 0.00562,0.022216 0.012389,0.024659 0.1836047,0.3023326 0.1700253,0.3101726 0.015161,0.023059 0.016429,0.015976 0.020158,0.013615 0.023794,0.011112 0.027335,0.00847 0.030765,0.00567 0.034097,0.00274 0.077746,-0.00386 0.089683,-0.017184 0.100603,-0.031491 0.1284966,-0.055077 0.061531,-0.022765 0.1187887,-0.033272 0.08066,-0.017494 0.098936,-0.017157 0.1126201,-0.014676 0.1275259,-0.011239 0.145049,-0.00667 0.1572042,-6.144e-4 0.1730183,0.00654 0.1871735,0.014934 0.2010339,0.024541 0.1922181,0.031382 a 10,10 0 0 1 0.2330042,0.640174 z"
           id="SvgjsPath1378" />
      </g>
    </g>
  </g>
  <path
     style="fill:#008000"
     id="path36"
     sodipodi:type="arc"
     sodipodi:cx="-2.1740394"
     sodipodi:cy="-5.8813462"
     sodipodi:rx="0.61788458"
     sodipodi:ry="0.70942307"
     sodipodi:start="4.9173819"
     sodipodi:end="4.8743427"
     sodipodi:arc-type="slice"
     d="m -2.0482626,-6.5759157 a 0.61788458,0.70942307 0 0 1 0.4804891,0.8314982 0.61788458,0.70942307 0 0 1 -0.7189962,0.5605873 0.61788458,0.70942307 0 0 1 -0.4959614,-0.8194347 0.61788458,0.70942307 0 0 1 0.7083236,-0.578221 l -0.099632,0.7001397 z" />
</svg>
