<?xml version="1.0" encoding="UTF-8" standalone="no"?>
<svg
   viewBox="-11.9 -11.9 20.040001 20.099965"
   height="20.099964mm"
   width="20.040001mm"
   version="1.1"
   id="SvgjsSvg1435"
   sodipodi:docname="spur18.svg"
   inkscape:version="1.1 (c68e22c387, 2021-05-23)"
   xmlns:inkscape="http://www.inkscape.org/namespaces/inkscape"
   xmlns:sodipodi="http://sodipodi.sourceforge.net/DTD/sodipodi-0.dtd"
   xmlns="http://www.w3.org/2000/svg"
   xmlns:svg="http://www.w3.org/2000/svg">
  <sodipodi:namedview
     id="namedview14"
     pagecolor="#ffffff"
     bordercolor="#666666"
     borderopacity="1.0"
     inkscape:pageshadow="2"
     inkscape:pageopacity="0.0"
     inkscape:pagecheckerboard="0"
     inkscape:document-units="mm"
     showgrid="false"
     inkscape:zoom="5.7808125"
     inkscape:cx="3.9786795"
     inkscape:cy="38.143427"
     inkscape:window-width="1366"
     inkscape:window-height="705"
     inkscape:window-x="-8"
     inkscape:window-y="-8"
     inkscape:window-maximized="1"
     inkscape:current-layer="SvgjsSvg1435" />
  <defs
     id="SvgjsDefs1436" />
  <defs
     id="defs3" />
  <g
     id="SvgjsG1437"
     transform="translate(-19.88,-1.8500178)">
    <g
       transform="translate(18)"
       id="SvgjsG1438">
      <g
         fill="none"
         stroke-width="0.04"
         stroke="#0000ff"
         id="SvgjsG1439">
        <circle
           cy="0"
           cx="0"
           r="9"
           id="SvgjsCircle1440" />
        <circle
           cy="0"
           cx="0"
           r="10"
           id="SvgjsCircle1441" />
      </g>
      <g
         fill="none"
         stroke-width="0.1"
         stroke="#000000"
         id="SvgjsG1442">
        <circle
           cy="0"
           cx="0"
           r="2"
           id="SvgjsCircle1443" />
        <path
           d="m -8.7260123,4.5346764 0.1104227,-0.1697755 0.1088727,-0.1529826 0.1062067,-0.1367414 0.1015196,-0.1200304 0.098344,-0.106828 0.090581,-0.090466 0.083633,-0.076838 0.076738,-0.064762 0.065248,-0.050544 0.1018436,-0.069611 0.056991,-0.032502 0.1247877,-0.063031 0.088789,-0.056825 0.070811,-0.057656 0.052931,-0.057076 0.01982,-0.02788 0.015435,-0.02721 0.011085,-0.026382 0.00678,-0.02537 0.00253,-0.024194 -0.00168,-0.022854 -0.00792,-0.026436 -0.1283157,-0.3296221 -0.1135814,-0.3349849 -0.010926,-0.025341 -0.013405,-0.018586 -0.017488,-0.016909 -0.021503,-0.015075 -0.02545,-0.013085 -0.029314,-0.010923 -0.033104,-0.00862 -0.077235,-0.0097 -0.091305,0.00135 -0.1045429,0.013543 -0.1361085,0.031927 -0.064549,0.011735 -0.1227616,0.012139 -0.082472,0.00322 -0.1004128,-2.84e-4 -0.1134576,-0.0051 -0.1275401,-0.011077 -0.1440032,-0.018621 -0.1549226,-0.026693 -0.1692547,-0.036482 -0.1817367,-0.04721 -0.1937182,-0.059077 -0.1838484,-0.064283 A 10,10 0 0 1 -9.9014948,1.4000165 L -9.75072,1.27673 -9.58889,1.15496 -9.43426,1.04844 -9.28769,0.95627 -9.15124,0.8782 -9.02229,0.81145 -8.90623,0.75742 -8.80136,0.71382 -8.7071,0.67921 -8.6285,0.65403 -8.50899,0.62345 -8.44432,0.6124 -8.3055,0.59585 -8.20263,0.57282 -8.11637,0.54286 -8.04711,0.50733 -8.01895,0.48791 -7.99514,0.46762 -7.9757,0.44662 -7.96065,0.4251 -7.95,0.40323 -7.94376,0.38118 -7.94216,0.35363 -7.95,0 -7.94216,-0.35363 -7.94376,-0.38118 -7.95,-0.40323 -7.96065,-0.4251 -7.9757,-0.44662 -7.99514,-0.46762 -8.01895,-0.48791 -8.04711,-0.50733 -8.11637,-0.54286 -8.20263,-0.57282 -8.3055,-0.59585 -8.44432,-0.6124 -8.50899,-0.62345 -8.6285,-0.65403 -8.7071,-0.67921 -8.80136,-0.71382 -8.90623,-0.75742 -9.02229,-0.81145 -9.15124,-0.8782 -9.28769,-0.95627 -9.43426,-1.04844 -9.58889,-1.15496 -9.75072,-1.27673 -9.9014948,-1.4000165 a 10,10 0 0 1 0.1182994,-0.670909 l 0.1838484,-0.064283 0.1937182,-0.059077 0.1817367,-0.04721 0.1692547,-0.036482 0.1549226,-0.026693 0.1440032,-0.018621 0.1275401,-0.011077 0.1134576,-0.0051 0.1004128,-2.84e-4 0.082472,0.00322 0.1227616,0.012139 0.064549,0.011735 0.1361085,0.031927 0.1045429,0.013543 0.091305,0.00135 0.077235,-0.0097 0.033104,-0.00862 0.029314,-0.010923 0.02545,-0.013085 0.021503,-0.015075 0.017488,-0.016909 0.013405,-0.018586 0.010926,-0.025341 0.1135814,-0.3349849 0.1283157,-0.3296221 0.00792,-0.026436 0.00168,-0.022854 -0.00253,-0.024194 -0.00678,-0.02537 -0.011085,-0.026382 -0.015435,-0.02721 -0.01982,-0.02788 -0.052931,-0.057076 -0.070811,-0.057656 -0.088789,-0.056825 -0.1247877,-0.063031 -0.056991,-0.032502 -0.1018436,-0.069611 -0.065248,-0.050544 -0.076738,-0.064762 -0.083633,-0.076838 -0.090581,-0.090466 -0.098344,-0.106828 -0.1015196,-0.1200304 -0.1062067,-0.1367414 -0.1088727,-0.1529826 -0.1104227,-0.1697755 -0.099515,-0.1674194 a 10,10 0 0 1 0.3406294,-0.5899875 l 0.1947472,0.00247 0.2022412,0.010741 0.1869232,0.017795 0.1715249,0.023607 0.1547092,0.027903 0.1416875,0.031754 0.1236369,0.033213 0.1083606,0.03401 0.094454,0.034076 0.076396,0.031234 0.1112065,0.053394 0.056643,0.033104 0.1169804,0.076554 0.093606,0.048481 0.085337,0.032496 0.075895,0.017302 0.034055,0.00322 0.031282,-2.382e-4 0.02839,-0.00359 0.025362,-0.00681 0.022216,-0.00991 0.018954,-0.01288 0.018935,-0.020076 0.2213032,-0.2759358 0.2333147,-0.2658568 0.016483,-0.022133 0.00939,-0.020902 0.0059,-0.023599 0.0023,-0.026159 -0.00139,-0.028583 -0.0052,-0.030848 -0.00909,-0.032978 -0.030218,-0.071737 -0.046821,-0.078397 -0.064,-0.083766 -0.095704,-0.1019098 -0.042437,-0.050034 -0.071893,-0.1002451 -0.044026,-0.069812 -0.049961,-0.087102 -0.052309,-0.1008087 -0.054177,-0.1159913 -0.055875,-0.1340209 -0.054344,-0.1475135 -0.053033,-0.1648197 -0.049984,-0.1809933 -0.045697,-0.1973035 -0.036253,-0.1913591 a 10,10 0 0 1 0.5218746,-0.4379048 l 0.1821566,0.068932 0.1863709,0.079264 0.169564,0.080653 0.1531066,0.080848 0.1358356,0.079134 0.1222822,0.078299 0.1048213,0.073496 0.090194,0.06902 0.077103,0.064326 0.061107,0.05548 0.086238,0.088209 0.041905,0.050481 0.083743,0.1119466 0.071379,0.077573 0.069076,0.059723 0.0654,0.042216 0.030898,0.014677 0.029477,0.010475 0.027906,0.00634 0.026162,0.00227 0.024265,-0.00171 0.022216,-0.00562 0.024659,-0.012389 0.3023326,-0.1836047 0.3101726,-0.1700253 0.023059,-0.015161 0.015976,-0.016429 0.013615,-0.020158 0.011112,-0.023794 0.00847,-0.027335 0.00567,-0.030765 0.00274,-0.034097 -0.00386,-0.077746 -0.017184,-0.089683 -0.031491,-0.100603 -0.055077,-0.1284966 -0.022765,-0.061531 -0.033272,-0.1187887 -0.017494,-0.08066 -0.017157,-0.098936 -0.014676,-0.1126201 -0.011239,-0.1275259 -0.00667,-0.145049 -6.144e-4,-0.1572042 0.00654,-0.1730183 0.014934,-0.1871735 0.024541,-0.2010339 0.031382,-0.1922181 a 10,10 0 0 1 0.640174,-0.2330042 l 0.1475952,0.1270757 0.1480216,0.1382263 0.1317529,0.1337838 0.1162213,0.1283381 0.1005783,0.1208203 0.088128,0.1154 0.073363,0.1049145 0.061148,0.095706 0.050452,0.086818 0.038446,0.073033 0.050868,0.1123842 0.022112,0.061769 0.040404,0.1338372 0.040543,0.097308 0.044484,0.079747 0.047017,0.062038 0.024015,0.02436 0.024116,0.019925 0.024057,0.015498 0.023807,0.011084 0.023387,0.00669 0.022798,0.00232 0.027409,-0.00321 0.3468962,-0.069128 0.349619,-0.053686 0.026854,-0.00636 0.0206314,-0.00997 0.0196884,-0.014286 0.0185797,-0.018558 0.0173052,-0.022791 0.0158472,-0.026972 0.014235,-0.031104 0.0229633,-0.074378 0.014526,-0.090152 0.004817,-0.1053063 -0.007807,-0.1395848 -3.477e-4,-0.065606 0.009363,-0.1230045 0.0111487,-0.081778 0.0177161,-0.098838 0.0247271,-0.1108479 0.0330556,-0.123679 0.043344,-0.1385819 0.0531896,-0.1479338 0.0653181,-0.1603484 0.0780505,-0.1707778 0.0918186,-0.1805166 0.0952317,-0.1698926 a 10,10 0 0 1 0.6812589,0 l 0.0952317,0.1698926 0.0918186,0.1805166 0.0780505,0.1707778 0.0653181,0.1603484 0.0531896,0.1479338 0.043344,0.1385819 0.0330556,0.123679 0.0247271,0.1108479 0.0177161,0.098838 0.0111487,0.081778 0.009363,0.1230045 -3.477e-4,0.065606 -0.007807,0.1395848 0.004817,0.1053063 0.014526,0.090152 0.0229633,0.074378 0.014235,0.031104 0.0158472,0.026972 0.0173052,0.022791 0.0185797,0.018558 0.0196884,0.014286 0.0206314,0.00997 0.026854,0.00636 0.349619,0.053686 0.3468962,0.069128 0.027409,0.00321 0.022798,-0.00232 0.023387,-0.00669 0.023807,-0.011084 0.024057,-0.015498 0.024116,-0.019925 0.024015,-0.02436 0.047017,-0.062038 0.044484,-0.079747 0.040543,-0.097308 0.040404,-0.1338372 0.022112,-0.061769 0.050868,-0.1123842 0.038446,-0.073033 0.050452,-0.086818 0.061148,-0.095706 0.073363,-0.1049145 0.088128,-0.1154 0.1005783,-0.1208203 0.1162213,-0.1283381 0.1317529,-0.1337838 0.1480216,-0.1382263 0.1475952,-0.1270757 a 10,10 0 0 1 0.640174,0.2330042 l 0.031382,0.1922181 0.024541,0.2010339 0.014934,0.1871735 0.00654,0.1730183 -6.144e-4,0.1572042 -0.00667,0.145049 -0.011239,0.1275259 -0.014676,0.1126201 -0.017157,0.098936 -0.017494,0.08066 -0.033272,0.1187887 -0.022765,0.061531 -0.055077,0.1284966 -0.031491,0.100603 -0.017184,0.089683 -0.00386,0.077746 0.00274,0.034097 0.00567,0.030765 0.00847,0.027335 0.011112,0.023794 0.013615,0.020158 0.015976,0.016429 0.023059,0.015161 0.3101726,0.1700253 0.3023326,0.1836047 0.024659,0.012389 0.022216,0.00562 0.024265,0.00171 0.026162,-0.00227 0.027906,-0.00634 0.029477,-0.010475 0.030898,-0.014677 0.0654,-0.042216 0.069076,-0.059723 0.071379,-0.077573 0.083743,-0.1119466 0.041905,-0.050481 0.086238,-0.088209 0.061107,-0.05548 0.077103,-0.064326 0.090194,-0.06902 0.1048213,-0.073496 0.1222822,-0.078299 0.1358356,-0.079134 0.1531066,-0.080848 0.169564,-0.080653 0.1863709,-0.079264 0.1821566,-0.068932 A 10,10 0 0 1 6.685091,-7.437044 L 6.648838,-7.2456849 6.603141,-7.0483814 6.553157,-6.8673881 6.500124,-6.7025684 6.44578,-6.5550549 6.389905,-6.421034 6.335728,-6.3050427 6.283419,-6.204234 6.233458,-6.117132 6.189432,-6.04732 l -0.071893,0.1002451 -0.042437,0.050034 -0.095704,0.1019098 -0.064,0.083766 -0.046821,0.078397 -0.030218,0.071737 -0.00909,0.032978 -0.0052,0.030848 -0.00139,0.028583 0.0023,0.026159 0.0059,0.023599 0.00939,0.020902 0.016483,0.022133 0.2333147,0.2658568 0.2213032,0.2759358 0.018935,0.020076 0.018954,0.01288 0.022216,0.00991 0.025362,0.00681 0.02839,0.00359 0.031282,2.382e-4 0.034055,-0.00322 0.075895,-0.017302 0.085337,-0.032496 0.093606,-0.048481 0.1169804,-0.076554 0.056643,-0.033104 0.1112065,-0.053394 0.076396,-0.031234 0.094454,-0.034076 0.1083606,-0.03401 0.1236369,-0.033213 0.1416875,-0.031754 0.1547092,-0.027903 0.1715249,-0.023607 0.1869232,-0.017795 0.2022412,-0.010741 0.1947472,-0.00247 a 10,10 0 0 1 0.3406294,0.5899875 l -0.099515,0.1674194 -0.1104227,0.1697755 -0.1088727,0.1529826 -0.1062067,0.1367414 -0.1015196,0.1200304 -0.098344,0.106828 -0.090581,0.090466 -0.083633,0.076838 -0.076738,0.064762 -0.065248,0.050544 -0.1018436,0.069611 -0.056991,0.032502 -0.1247877,0.063031 -0.088789,0.056825 -0.070811,0.057656 -0.052931,0.057076 -0.01982,0.02788 -0.015435,0.02721 -0.011085,0.026382 -0.00678,0.02537 -0.00253,0.024194 0.00168,0.022854 0.00792,0.026436 0.1283157,0.3296221 0.1135814,0.3349849 0.010926,0.025341 0.013405,0.018586 0.017488,0.016909 0.021503,0.015075 0.02545,0.013085 0.029314,0.010923 0.033104,0.00862 0.077235,0.0097 0.091305,-0.00135 0.1045429,-0.013543 0.1361085,-0.031927 0.064549,-0.011735 0.1227616,-0.012139 0.082472,-0.00322 0.1004128,2.84e-4 0.1134576,0.0051 0.1275401,0.011077 0.1440032,0.018621 0.1549226,0.026693 0.1692547,0.036482 0.1817367,0.04721 0.1937182,0.059077 0.1838484,0.064283 a 10,10 0 0 1 0.1182994,0.670909 L 9.75072,-1.27673 9.58889,-1.15496 9.43426,-1.04844 9.28769,-0.95627 9.15124,-0.8782 9.02229,-0.81145 8.90623,-0.75742 8.80136,-0.71382 8.7071,-0.67921 8.6285,-0.65403 8.50899,-0.62345 8.44432,-0.6124 8.3055,-0.59585 8.20263,-0.57282 8.11637,-0.54286 8.04711,-0.50733 8.01895,-0.48791 7.99514,-0.46762 7.9757,-0.44662 7.96065,-0.4251 7.95,-0.40323 7.94376,-0.38118 7.94216,-0.35363 7.95,0 7.94216,0.35363 7.94376,0.38118 7.95,0.40323 7.96065,0.4251 7.9757,0.44662 7.99514,0.46762 8.01895,0.48791 8.04711,0.50733 8.11637,0.54286 8.20263,0.57282 8.3055,0.59585 8.44432,0.6124 8.50899,0.62345 8.6285,0.65403 8.7071,0.67921 8.80136,0.71382 8.90623,0.75742 9.02229,0.81145 9.15124,0.8782 9.28769,0.95627 9.43426,1.04844 9.58889,1.15496 9.75072,1.27673 9.9014948,1.4000165 A 10,10 0 0 1 9.7831954,2.0709255 L 9.599347,2.1352089 9.4056288,2.1942861 9.2238921,2.2414956 9.0546374,2.2779772 8.8997148,2.3046704 8.7557116,2.3232913 8.6281715,2.3343681 8.5147139,2.339471 8.4143011,2.339755 8.3318292,2.3365336 8.2090676,2.3243946 8.1445183,2.3126598 8.0084098,2.2807325 7.9038669,2.26719 7.8125619,2.26584 7.7353269,2.27554 7.7022229,2.28416 7.6729089,2.295083 7.6474589,2.308168 7.6259559,2.323243 7.6084679,2.340152 7.5950629,2.358738 7.5841369,2.384079 7.4705555,2.7190639 7.3422398,3.048686 l -0.00792,0.026436 -0.00168,0.022854 0.00253,0.024194 0.00678,0.02537 0.011085,0.026382 0.015435,0.02721 0.01982,0.02788 0.052931,0.057076 0.070811,0.057656 0.088789,0.056825 0.1247877,0.063031 0.056991,0.032502 0.1018436,0.069611 0.065248,0.050544 0.076738,0.064762 0.083633,0.076838 0.090581,0.090466 0.098344,0.106828 0.1015196,0.1200304 0.1062067,0.1367414 0.1088727,0.1529826 0.1104227,0.1697755 0.099515,0.1674194 A 10,10 0 0 1 8.4848983,5.2920833 L 8.2901511,5.2896101 8.0879099,5.278869 7.9009867,5.2610738 7.7294618,5.2374667 7.5747526,5.2095635 7.4330651,5.1778095 7.3094282,5.1445969 7.2010676,5.1105873 7.1066133,5.076511 7.0302169,5.0452768 6.9190104,4.9918829 6.8623675,4.9587787 6.7453871,4.8822249 l -0.093606,-0.048481 -0.085337,-0.032496 -0.075895,-0.017302 -0.034055,-0.00322 -0.031282,2.382e-4 -0.02839,0.00359 -0.025362,0.00681 -0.022216,0.00991 -0.018954,0.01288 -0.018935,0.020076 -0.2213032,0.2759358 -0.2333147,0.2658568 -0.016483,0.022133 -0.00939,0.020902 -0.0059,0.023599 -0.0023,0.026159 0.00139,0.028583 0.0052,0.030848 0.00909,0.032978 0.030218,0.071737 0.046821,0.078397 0.064,0.083766 0.095704,0.1019098 0.042437,0.050034 0.071893,0.1002451 0.044026,0.069812 0.049961,0.087102 0.052309,0.1008087 0.054177,0.1159913 0.055875,0.1340209 0.054344,0.1475135 0.053033,0.1648197 0.049984,0.1809933 0.045697,0.1973035 0.036253,0.1913591 A 10,10 0 0 1 6.1631972,7.8749378 L 5.9810406,7.8060062 5.7946697,7.7267423 5.6251057,7.6460888 5.4719991,7.5652405 5.3361635,7.4861063 5.2138813,7.4078073 5.10906,7.3343114 5.0188663,7.2652913 4.9417631,7.2009648 4.8806566,7.1454852 4.7944185,7.0572765 4.752514,7.0067956 4.6687712,6.894849 4.5973917,6.817276 4.5283157,6.757553 4.4629157,6.715337 4.4320177,6.70066 4.4025407,6.690185 4.3746347,6.683845 4.3484727,6.681575 4.3242077,6.683285 4.3019917,6.688905 4.2773327,6.701294 3.975,6.884902 3.6648274,7.0549273 l -0.023059,0.015161 -0.015976,0.016429 -0.013615,0.020158 -0.011112,0.023794 -0.00847,0.027335 -0.00567,0.030765 -0.00274,0.034097 0.00386,0.077746 0.017184,0.089683 0.031491,0.100603 0.055077,0.1284966 0.022765,0.061531 0.033272,0.1187887 0.017494,0.08066 0.017157,0.098936 0.014676,0.1126201 0.011239,0.1275259 0.00667,0.145049 6.144e-4,0.1572042 -0.00654,0.1730183 -0.014934,0.1871735 -0.024541,0.2010339 -0.031382,0.1922181 A 10,10 0 0 1 3.0981236,9.5079585 L 2.9505284,9.3808828 2.8025068,9.2426565 2.6707539,9.1088727 2.5545326,8.9805346 2.4539543,8.8597143 2.3658265,8.7443143 2.2924637,8.6393998 2.2313156,8.543694 2.1808633,8.456876 2.1424171,8.3838426 2.091549,8.2714584 2.069437,8.2096897 2.0290326,8.0758525 l -0.040543,-0.097308 -0.044484,-0.079747 -0.047017,-0.062038 -0.024015,-0.02436 -0.024116,-0.019925 -0.024057,-0.015498 -0.023807,-0.011084 -0.023387,-0.00669 -0.022798,-0.00232 -0.027409,0.00321 -0.3468962,0.069128 -0.349619,0.053686 -0.026854,0.00636 -0.0206314,0.00997 -0.0196884,0.014286 -0.0185797,0.018558 -0.0173052,0.022791 -0.0158472,0.026972 -0.014235,0.031104 -0.0229633,0.074378 -0.014526,0.090152 -0.004817,0.1053063 0.007807,0.1395848 3.477e-4,0.065606 L 0.8542289,8.6109791 0.8430802,8.6927571 0.8253641,8.7915951 0.800637,8.902443 0.7675814,9.026122 0.7242374,9.1647039 0.6710478,9.3126377 0.6057297,9.4729861 0.5276792,9.6437639 0.4358606,9.8242805 0.3406289,9.9941731 a 10,10 0 0 1 -0.6812589,0 L -0.4358617,9.8242805 -0.5276803,9.6437639 -0.6057308,9.4729861 -0.6710489,9.3126377 -0.7242385,9.1647039 -0.7675825,9.026122 -0.8006381,8.902443 -0.8253652,8.7915951 -0.8430813,8.6927571 -0.85423,8.6109791 -0.863593,8.4879746 l 3.477e-4,-0.065606 0.007807,-0.1395848 -0.004817,-0.1053063 -0.014526,-0.090152 -0.0229633,-0.074378 -0.014235,-0.031104 -0.0158472,-0.026972 -0.0173052,-0.022791 -0.0185797,-0.018558 -0.0196884,-0.014286 -0.0206314,-0.00997 -0.026854,-0.00636 -0.349619,-0.053686 -0.3468962,-0.069128 -0.027409,-0.00321 -0.022798,0.00232 -0.023387,0.00669 -0.023807,0.011084 -0.024057,0.015498 -0.024116,0.019925 -0.024015,0.02436 -0.047017,0.062038 -0.044484,0.079747 -0.040543,0.097308 -0.040404,0.1338372 -0.022112,0.061769 -0.050868,0.1123842 -0.038446,0.073033 -0.050452,0.086818 -0.061148,0.095706 -0.073363,0.1049145 -0.088128,0.1154 L -2.554533,8.9805347 -2.6707543,9.1088728 -2.8025072,9.2426566 -2.9505288,9.3808829 -3.098124,9.5079586 A 10,10 0 0 1 -3.738298,9.2749544 L -3.76968,9.0827363 -3.794221,8.8817024 -3.809155,8.6945289 l -0.00654,-0.1730183 6.144e-4,-0.1572042 0.00667,-0.145049 0.011239,-0.1275259 0.014676,-0.1126201 0.017157,-0.098936 0.017494,-0.08066 0.033272,-0.1187887 0.022765,-0.061531 0.055077,-0.1284966 0.031491,-0.100603 0.017184,-0.089683 0.00386,-0.077746 -0.00274,-0.034097 -0.00567,-0.030765 -0.00847,-0.027335 -0.011112,-0.023794 -0.013615,-0.020158 -0.015976,-0.016429 -0.023059,-0.015161 L -3.975,6.884902 -4.2773326,6.7012973 l -0.024659,-0.012389 -0.022216,-0.00562 -0.024265,-0.00171 -0.026162,0.00227 -0.027906,0.00634 -0.029477,0.010475 -0.030898,0.014677 -0.0654,0.042216 -0.069076,0.059723 -0.071379,0.077573 -0.083743,0.1119466 -0.041905,0.050481 -0.086238,0.088209 -0.061107,0.05548 -0.077103,0.064326 -0.090194,0.06902 -0.1048213,0.073496 -0.1222822,0.078299 -0.1358356,0.079134 -0.1531066,0.080848 -0.169564,0.080653 -0.1863709,0.079264 -0.1821566,0.068932 A 10,10 0 0 1 -6.6850718,7.437033 l 0.036253,-0.1913591 0.045697,-0.1973035 0.049984,-0.1809933 0.053033,-0.1648197 0.054344,-0.1475135 0.055875,-0.1340209 0.054177,-0.1159913 0.052309,-0.1008087 0.049961,-0.087102 0.044026,-0.069812 0.071893,-0.1002451 0.042437,-0.050034 0.095704,-0.1019098 0.064,-0.083766 0.046821,-0.078397 0.030218,-0.071737 0.00909,-0.032978 0.0052,-0.030848 0.00139,-0.028583 -0.0023,-0.026159 -0.0059,-0.023599 -0.00939,-0.020902 -0.016483,-0.022133 -0.2333147,-0.2658568 -0.2213032,-0.2759358 -0.018935,-0.020076 -0.018954,-0.01288 -0.022216,-0.00991 -0.025362,-0.00681 -0.02839,-0.00359 -0.031282,-2.382e-4 -0.034055,0.00322 -0.075895,0.017302 -0.085337,0.032496 -0.093606,0.048481 -0.1169804,0.076554 -0.056643,0.033104 -0.1112065,0.053394 -0.076396,0.031234 -0.094454,0.034076 -0.1083606,0.03401 -0.1236369,0.033213 -0.1416875,0.031754 -0.1547092,0.027903 -0.1715249,0.023607 -0.1869232,0.017795 -0.2022412,0.010741 -0.1947472,0.00247 A 10,10 0 0 1 -8.8255277,4.7020958 Z"
           id="SvgjsPath1444" />
      </g>
    </g>
  </g>
  <rect
     style="fill:#800000;stroke-width:0.264583"
     id="rect58"
     width="1.1442307"
     height="1.0984615"
     x="-2.4257691"
     y="-7.4146156" />
</svg>
