<?xml version="1.0" encoding="UTF-8" standalone="no"?>
<svg
   viewBox="-11.45 -11.45 11.069958 11.04"
   height="11.04mm"
   width="11.069958mm"
   version="1.1"
   id="SvgjsSvg1413"
   sodipodi:docname="spur9.svg"
   inkscape:version="1.1 (c68e22c387, 2021-05-23)"
   xmlns:inkscape="http://www.inkscape.org/namespaces/inkscape"
   xmlns:sodipodi="http://sodipodi.sourceforge.net/DTD/sodipodi-0.dtd"
   xmlns="http://www.w3.org/2000/svg"
   xmlns:svg="http://www.w3.org/2000/svg">
  <sodipodi:namedview
     id="namedview14"
     pagecolor="#ffffff"
     bordercolor="#666666"
     borderopacity="1.0"
     inkscape:pageshadow="2"
     inkscape:pageopacity="0.0"
     inkscape:pagecheckerboard="0"
     inkscape:document-units="mm"
     showgrid="false"
     inkscape:zoom="6.0080059"
     inkscape:cx="-13.149122"
     inkscape:cy="20.888794"
     inkscape:window-width="1366"
     inkscape:window-height="705"
     inkscape:window-x="-8"
     inkscape:window-y="-8"
     inkscape:window-maximized="1"
     inkscape:current-layer="SvgjsSvg1413" />
  <defs
     id="SvgjsDefs1414" />
  <defs
     id="defs3" />
  <g
     id="SvgjsG1415"
     transform="translate(-19.43,-5.93)">
    <g
       transform="translate(13.5)"
       id="SvgjsG1416">
      <g
         fill="none"
         stroke-width="0.04"
         stroke="#0000ff"
         id="SvgjsG1417">
        <circle
           cy="0"
           cx="0"
           r="4.5"
           id="SvgjsCircle1418" />
        <circle
           cy="0"
           cx="0"
           r="5.5"
           id="SvgjsCircle1419" />
      </g>
      <g
         fill="none"
         stroke-width="0.1"
         stroke="#000000"
         id="SvgjsG1420">
        <circle
           cy="0"
           cx="0"
           r="2"
           id="SvgjsCircle1421" />
        <path
           d="m -3.0045016,4.4868759 -0.00826,-0.1367289 -0.0024,-0.1296363 0.00291,-0.1230105 0.00733,-0.1122819 0.011537,-0.1075344 0.014986,-0.099737 0.017609,-0.090933 0.019451,-0.08197 0.04286,-0.1412711 0.043591,-0.1097839 0.039814,-0.080011 0.022516,-0.038056 0.076173,-0.059752 0.078704,-0.068808 0.068274,-0.069508 0.057937,-0.069475 0.047745,-0.068678 0.037712,-0.067177 0.027921,-0.064953 0.018396,-0.062039 0.00917,-0.058432 2.758e-4,-0.054184 -0.00822,-0.049299 -0.016304,-0.043809 -0.031034,-0.046148 -0.078845,-0.081052 -0.1381971,-0.1549891 -0.1286369,-0.1630112 -0.066129,-0.091722 -0.040058,-0.038576 -0.040312,-0.023664 -0.047122,-0.016658 -0.053409,-0.00914 -0.059135,-0.00112 -0.064291,0.00734 -0.068815,0.016218 -0.072706,0.025474 -0.075925,0.035094 -0.07848,0.044992 -0.080307,0.055167 -0.08143,0.06556 -0.072072,0.06464 -0.041388,0.015565 -0.085709,0.025316 -0.1156856,0.023864 -0.1465674,0.017678 -0.084103,0.00492 -0.09261,0.00155 -0.1008242,-0.00256 -0.1079042,-0.00731 -0.1118492,-0.012277 -0.1216473,-0.018493 -0.1272501,-0.024875 -0.1332173,-0.031877 -0.1241904,-0.03517 A 5.5,5.5 0 0 1 -5.2582186,1.6126597 L -5.18569,1.50589 -5.10413,1.39584 -5.02264,1.29499 -4.94134,1.20263 -4.86355,1.12133 -4.78559,1.04637 -4.71,0.9796 -4.63806,0.92126 -4.57047,0.87097 -4.44683,0.7903 -4.34287,0.73422 -4.26094,0.69852 -4.21923,0.68384 -4.12247,0.68703 -4.01795,0.68491 -3.92097,0.67555 -3.83193,0.65957 -3.75121,0.63765 -3.67914,0.61043 -3.616,0.57862 -3.56203,0.54292 -3.51745,0.50405 -3.48241,0.46272 -3.45702,0.41967 -3.44135,0.37563 -3.43546,0.32033 -3.44376,0.20756 -3.45,0 l 0.00624,-0.20756 0.0083,-0.11277 -0.00589,-0.0553 -0.01567,-0.04404 -0.02539,-0.04305 -0.03504,-0.04133 -0.04458,-0.03887 -0.05397,-0.0357 -0.06314,-0.03181 -0.07207,-0.02722 -0.08072,-0.02192 -0.08904,-0.01598 -0.09698,-0.00936 -0.10452,-0.00212 -0.09676,0.00319 -0.04171,-0.01468 -0.08193,-0.0357 L -4.44683,-0.7903 -4.57047,-0.87097 -4.63806,-0.92126 -4.71,-0.9796 l -0.07559,-0.06677 -0.07796,-0.07496 -0.07779,-0.0813 -0.0813,-0.09236 -0.08149,-0.10085 -0.08156,-0.11005 -0.072529,-0.1067697 a 5.5,5.5 0 0 1 0.1935918,-0.5318891 l 0.1241904,-0.03517 0.1332173,-0.031877 0.1272501,-0.024875 0.1216473,-0.018493 0.1118492,-0.012277 0.1079042,-0.00731 0.1008242,-0.00256 0.09261,0.00155 0.084103,0.00492 0.1465674,0.017678 0.1156856,0.023864 0.085709,0.025316 0.041388,0.015565 0.072072,0.06464 0.08143,0.06556 0.080307,0.055167 0.07848,0.044992 0.075925,0.035094 0.072706,0.025474 0.068815,0.016218 0.064291,0.00734 0.059135,-0.00112 0.053409,-0.00914 0.047122,-0.016658 0.040312,-0.023664 0.040058,-0.038576 0.066129,-0.091722 0.1286369,-0.1630112 0.1381971,-0.1549891 0.078845,-0.081052 0.031034,-0.046148 0.016304,-0.043809 0.00822,-0.049299 -2.758e-4,-0.054184 -0.00917,-0.058432 -0.018396,-0.062039 -0.027921,-0.064953 -0.037712,-0.067177 -0.047745,-0.068678 -0.057937,-0.069475 -0.068274,-0.069508 -0.078704,-0.068808 -0.076173,-0.059752 -0.022516,-0.038056 -0.039814,-0.080011 -0.043591,-0.1097839 -0.04286,-0.1412711 -0.019451,-0.08197 -0.017609,-0.090933 -0.014986,-0.099737 -0.011537,-0.1075344 -0.00733,-0.1122819 -0.00291,-0.1230105 0.0024,-0.1296363 0.00826,-0.1367289 0.01307,-0.1284109 a 5.5,5.5 0 0 1 0.4901916,-0.2830123 l 0.1177421,0.052886 0.1225409,0.061211 0.1134684,0.062739 0.1050745,0.064027 0.093573,0.062491 0.087359,0.063759 0.078882,0.062847 0.069946,0.060716 0.061263,0.05783 0.1009143,0.1077534 0.07328,0.092642 0.049385,0.074486 0.0217,0.038527 0.013661,0.095844 0.020237,0.102564 0.026058,0.093881 0.031199,0.084912 0.035604,0.075687 0.039321,0.066248 0.042291,0.056657 0.044529,0.046951 0.046021,0.037153 0.046787,0.027331 0.046805,0.017529 0.046092,0.00778 0.0554827,-0.0038 0.10961549,-0.027756 0.20332314,-0.042188 0.20549026,-0.029897 0.11249805,-0.011408 0.0534371,-0.015403 0.0406499,-0.023079 0.037987,-0.03248 0.0346175,-0.041684 0.03053824,-0.050652 0.02578584,-0.059349 0.02036259,-0.067705 0.01429164,-0.075702 0.0075701,-0.0833 2.7559e-4,-0.090462 -0.0076226,-0.097132 -0.01606191,-0.1033002 -0.01994374,-0.094736 0.0072141,-0.043626 0.02093064,-0.086885 0.03717555,-0.1121188 0.05797458,-0.1357698 0.0377891,-0.075296 0.0449614,-0.080978 0.0526295,-0.086036 0.0602836,-0.089792 0.0665568,-0.090726 0.0768392,-0.096103 0.0851673,-0.097764 0.0942153,-0.099431 0.0925532,-0.089967 a 5.5,5.5 0 0 1 0.55742534,0.098289 l 0.056201,0.1161965 0.054526,0.1256581 0.046594,0.1209974 0.039336,0.1165878 0.031513,0.1080181 0.025937,0.1049954 0.020029,0.098848 0.014554,0.091472 0.00976,0.08368 0.00804,0.1474104 -0.00341,0.118072 -0.010048,0.088803 -0.00814,0.043462 -0.051143,0.082202 -0.050424,0.091577 -0.040384,0.088667 -0.030681,0.085101 -0.021377,0.080865 -0.012462,0.076024 -0.00402,0.070586 0.00393,0.064589 0.011372,0.058042 0.018273,0.051011 0.024587,0.043513 0.030305,0.035591 0.044946,0.032751 0.1018117,0.049197 0.1828722,0.098376 0.1766322,0.109184 0.093512,0.063573 0.050836,0.022549 0.045975,0.00845 0.049977,-4.634e-4 0.053313,-0.00968 0.055952,-0.019172 0.057902,-0.028889 0.059118,-0.038776 0.059608,-0.048805 0.059343,-0.058945 0.058359,-0.069121 0.056596,-0.079307 0.054096,-0.089457 0.045617,-0.085392 0.033568,-0.028782 0.071882,-0.053103 0.1005467,-0.061992 0.1316822,-0.06674 0.077348,-0.03339 0.086494,-0.033132 0.095619,-0.032078 0.1038973,-0.030035 0.1093028,-0.026718 0.1206361,-0.024228 0.1280837,-0.020147 0.1360861,-0.015608 0.1287296,-0.00943 a 5.5,5.5 0 0 1 0.3638335,0.4336 l -0.031637,0.1251369 -0.039002,0.1313084 -0.042083,0.1226392 -0.044808,0.1145962 -0.045292,0.1030028 -0.047621,0.097103 -0.048195,0.088596 -0.047648,0.079427 -0.046314,0.070374 -0.088593,0.1180924 -0.07851,0.088254 -0.064779,0.061569 -0.034174,0.02806 -0.092016,0.030096 -0.097492,0.03774 -0.08793,0.041965 -0.078205,0.04547 -0.068355,0.048206 -0.058414,0.050228 -0.048453,0.051487 -0.038505,0.052006 -0.028597,0.051773 -0.018791,0.050822 -0.00913,0.049138 3.376e-4,0.046744 0.013379,0.05398 0.046369,0.1031304 0.076853,0.1929084 0.065126,0.19717681 0.03077,0.10880791 0.024449,0.0499505 0.029788,0.0360246 0.038583,0.0317699 0.047063,0.0268531 0.055186,0.0212786 0.062925,0.0150882 0.070212,0.008296 0.077033,9.2904e-4 0.083349,-0.00701 0.089136,-0.0154372 0.094333,-0.0243736 0.098942,-0.0337558 0.089834,-0.0360915 0.044215,-4.7097e-4 0.089199,0.005525 0.116871,0.0171415 0.1437743,0.0335176 0.080714,0.02414 0.087555,0.0302167 0.093868,0.03689 0.098896,0.0437755 0.1009049,0.0497913 0.107986,0.0589838 0.1110683,0.0668968 0.1142806,0.075518 0.1046721,0.0755244 a 5.5,5.5 0 0 1 0,0.56602454 l -0.1046721,0.0755244 -0.1142806,0.075518 -0.1110683,0.0668968 -0.107986,0.0589838 -0.1009049,0.0497913 -0.098896,0.0437755 -0.093868,0.03689 -0.087555,0.0302167 -0.080714,0.02414 -0.1437743,0.0335176 -0.116871,0.0171415 -0.089199,0.005525 -0.044215,-4.7097e-4 -0.089834,-0.0360915 -0.098942,-0.0337558 -0.094333,-0.0243736 -0.089136,-0.0154372 -0.083349,-0.00701 -0.077033,9.2904e-4 -0.070212,0.008296 -0.062925,0.0150882 -0.055186,0.0212786 -0.047063,0.0268531 -0.038583,0.0317699 -0.029788,0.0360246 -0.024449,0.0499505 -0.03077,0.10880791 -0.065126,0.19717679 -0.076853,0.1929084 -0.046369,0.1031304 -0.013379,0.05398 -3.376e-4,0.046744 0.00913,0.049138 0.018791,0.050822 0.028597,0.051773 0.038505,0.052006 0.048453,0.051487 0.058414,0.050228 0.068355,0.048206 0.078205,0.04547 0.08793,0.041965 0.097492,0.03774 0.092016,0.030096 0.034174,0.02806 0.064779,0.061569 0.07851,0.088254 0.088593,0.1180924 0.046314,0.070374 0.047648,0.079427 0.048195,0.088596 0.047621,0.097103 0.045292,0.1030028 0.044808,0.1145962 0.042083,0.1226392 0.039002,0.1313084 0.031637,0.1251369 a 5.5,5.5 0 0 1 -0.3638335,0.4336 L 3.896984,3.7379943 3.7608979,3.7223862 3.6328142,3.7022388 3.5121781,3.678011 3.4028753,3.6512929 3.298978,3.6212575 3.203359,3.5891795 3.116865,3.5560475 3.039517,3.5226575 2.9078348,3.4559175 2.8072881,3.3939255 l -0.071882,-0.053103 -0.033568,-0.028782 -0.045617,-0.085392 -0.054096,-0.089457 -0.056596,-0.079307 -0.058359,-0.069121 -0.059343,-0.058945 -0.059608,-0.048805 -0.059118,-0.038776 -0.057902,-0.028889 -0.055952,-0.019172 -0.053313,-0.00968 -0.049977,-4.634e-4 -0.045975,0.00845 -0.050836,0.022549 -0.093512,0.063573 -0.1766322,0.109184 -0.1828722,0.098376 -0.1018117,0.049197 -0.044946,0.032751 -0.030305,0.035591 -0.024587,0.043513 -0.018273,0.051011 -0.011372,0.058042 -0.00393,0.064589 0.00402,0.070586 0.012462,0.076024 0.021377,0.080865 0.030681,0.085101 0.040384,0.088667 0.050424,0.091577 0.051143,0.082202 0.00814,0.043462 0.010048,0.088803 0.00341,0.118072 -0.00804,0.1474104 -0.00976,0.08368 L 1.50664,4.5687805 1.486612,4.6676275 1.4606747,4.7726229 1.4291619,4.880641 1.3898258,4.9972288 1.3432321,5.1182262 1.288706,5.2438843 1.232505,5.3600808 A 5.5,5.5 0 0 1 0.6750797,5.4583699 L 0.58252653,5.3684028 0.48831118,5.2689719 0.40314391,5.1712075 0.32630466,5.0751045 0.25974788,4.9843787 0.19946431,4.8945864 0.14683476,4.8085503 0.10187332,4.7275726 0.06408422,4.6522766 0.00610964,4.5165068 -0.03106591,4.404388 -0.05199655,4.317503 -0.05921065,4.273877 -0.03926691,4.179141 -0.023205,4.0758408 l 0.0076226,-0.097132 -2.7559e-4,-0.090462 -0.0075701,-0.0833 -0.01429164,-0.075702 -0.02036259,-0.067705 -0.02578584,-0.059349 -0.03053824,-0.050652 -0.0346175,-0.041684 -0.037987,-0.03248 -0.0406499,-0.023079 -0.0534371,-0.015403 -0.11249805,-0.011408 -0.20549026,-0.029897 -0.20332314,-0.042188 -0.10961549,-0.027756 -0.0554827,-0.0038 -0.046092,0.00778 -0.046805,0.017529 -0.046787,0.027331 -0.046021,0.037153 -0.044529,0.046951 -0.042291,0.056657 -0.039321,0.066248 -0.035604,0.075687 -0.031199,0.084912 -0.026058,0.093881 -0.020237,0.102564 -0.013661,0.095844 -0.0217,0.038527 -0.049385,0.074486 -0.07328,0.092642 -0.1009143,0.1077534 -0.061263,0.05783 -0.069946,0.060716 -0.078882,0.062847 -0.087359,0.063759 -0.093573,0.062491 -0.1050745,0.064027 -0.1134684,0.062739 -0.1225409,0.061211 -0.1177421,0.052886 A 5.5,5.5 0 0 1 -2.9914315,4.6152868 Z"
           id="SvgjsPath1422" />
      </g>
    </g>
  </g>
</svg>
