<?xml version="1.1" encoding="UTF-8"?>
<svg viewBox="-12.5 -18.5 55 37" height="37mm" width="55mm" xmlns:svgjs="http://svgjs.com/svgjs" xmlns:xlink="http://www.w3.org/1999/xlink" version="1.1" xmlns="http://www.w3.org/2000/svg" id="SvgjsSvg1653">
  <defs id="SvgjsDefs1654">
  </defs>
  <defs id="SvgjsDefs1654">
  </defs>
  <g id="SvgjsG1655">
    <g transform="matrix(1,0,0,1,24,0)" id="SvgjsG1656">
      <g fill="none" stroke-width="0.04" stroke="blue" id="SvgjsG1657">
        <circle cy="0" cx="0" r="15" id="SvgjsCircle1658">
        </circle>
        <circle cy="0" cx="0" r="16" id="SvgjsCircle1659">
        </circle>
      </g>
      <g fill="none" stroke-width="0.1" stroke="black" id="SvgjsG1660">
        <circle cy="0" cx="0" r="2" id="SvgjsCircle1661">
        </circle>
        <path d="M-15.11875881942606 4.392789703710698  L-14.906913926940375 4.2055735518227575 L-14.707616577977438 4.043832881314856 L-14.521655897541459 3.905394265922375 L-14.35130652251216 3.789320141212654 L-14.197331163482481 3.693513253612226 L-14.059913344844011 3.6157634631260462 L-13.940996975617832 3.5549095558557435 L-13.733447053953565 3.4603716199931616 L-13.687531234351576 3.4344589298534345 L-13.648716618060664 3.4082767744381646 L-13.616982036594527 3.382117133019198 L-13.592310479700666 3.3562524219163645 L-13.57466891829986 3.3309823227606103 L-13.564030560663614 3.3065771727548574 L-13.560344893877595 3.283322713820226 L-13.573446015880226 3.2195224003235654 L-13.645159030236588 2.9003680869077444 L-13.709457685779388 2.5796378028755247 L-13.723439140622677 2.5160246099006 L-13.736264605337045 2.4962797003069728 L-13.755909697419519 2.478311496248937 L-13.78230434100375 2.4624015814137987 L-13.8153630555052 2.4488078183030297 L-13.854994122988597 2.4378174138461266 L-13.901102281393394 2.4296861514276547 L-13.953588110425226 2.4246893773841935 L-14.181646441271756 2.422742833910393 L-14.315033464178851 2.415517668169623 L-14.472194576977376 2.4003825624901203 L-14.651826238653967 2.375486036159997 L-14.85465973625663 2.3387343797310676 L-15.080851328865846 2.287901434381557 L-15.328704374102363 2.2212055142140863 L-15.598381982505916 2.136340129481912 L-15.869592693813072 2.03856312540311 A16 16 0 0 1 -15.946645124317286 1.3054582195023787 L-15.70169 1.1534300000000008 L-15.45555 1.014350000000001 L-15.22698 0.8975800000000009 L-15.0163 0.8008300000000009 L-14.82554 0.7227100000000009 L-14.65501 0.6610100000000009 L-14.50443 0.6135300000000009 L-14.37546 0.5787300000000009 L-14.15279 0.5294100000000009 L-14.10249 0.5136100000000009 L-14.05908 0.4960700000000009 L-14.0226 0.47708000000000084 L-13.99309 0.4569100000000008 L-13.97058 0.43586000000000086 L-13.9551 0.41420000000000085 L-13.94666 0.39222000000000085 L-13.94621 0.3270900000000008 L-13.95 8.541911424052788e-16 L-13.94621 -0.32708999999999916 L-13.94666 -0.3922199999999992 L-13.9551 -0.4141999999999992 L-13.97058 -0.4358599999999992 L-13.99309 -0.45690999999999915 L-14.0226 -0.47707999999999917 L-14.05908 -0.4960699999999991 L-14.10249 -0.5136099999999991 L-14.15279 -0.5294099999999992 L-14.37546 -0.5787299999999991 L-14.50443 -0.6135299999999991 L-14.65501 -0.6610099999999991 L-14.82554 -0.7227099999999991 L-15.0163 -0.8008299999999992 L-15.22698 -0.8975799999999992 L-15.45555 -1.0143499999999992 L-15.70169 -1.153429999999999 L-15.946645124317286 -1.305458219502377 A16 16 0 0 1 -15.869592693813074 -2.0385631254031047 L-15.598381982505918 -2.1363401294819067 L-15.328704374102365 -2.2212055142140814 L-15.080851328865847 -2.2879014343815522 L-14.854659736256632 -2.3387343797310622 L-14.65182623865397 -2.375486036159992 L-14.472194576977378 -2.4003825624901154 L-14.315033464178853 -2.4155176681696178 L-14.181646441271756 -2.4227428339103882 L-13.953588110425228 -2.424689377384189 L-13.901102281393396 -2.4296861514276498 L-13.854994122988598 -2.4378174138461217 L-13.815363055505202 -2.4488078183030253 L-13.782304341003751 -2.4624015814137943 L-13.75590969741952 -2.4783114962489328 L-13.736264605337047 -2.496279700306968 L-13.723439140622679 -2.5160246099005947 L-13.70945768577939 -2.5796378028755202 L-13.645159030236588 -2.9003680869077395 L-13.573446015880227 -3.219522400323561 L-13.560344893877597 -3.2833227138202217 L-13.564030560663616 -3.3065771727548525 L-13.574668918299862 -3.330982322760606 L-13.592310479700668 -3.35625242191636 L-13.616982036594528 -3.3821171330191935 L-13.648716618060666 -3.4082767744381597 L-13.687531234351578 -3.4344589298534296 L-13.733447053953567 -3.460371619993157 L-13.940996975617832 -3.5549095558557386 L-14.059913344844013 -3.615763463126042 L-14.197331163482483 -3.6935132536122213 L-14.351306522512163 -3.7893201412126496 L-14.52165589754146 -3.9053942659223697 L-14.70761657797744 -4.0438328813148505 L-14.906913926940376 -4.205573551822753 L-15.118758819426061 -4.392789703710694 L-15.326752642395713 -4.5924247759320584 A16 16 0 0 1 -15.098962911834695 -5.2934894796172935 L-14.813349823035171 -5.332741944008154 L-14.53192081177204 -5.35968368893041 L-14.27561708870671 -5.3733905975115 L-14.043799561472982 -5.376084844575213 L-13.837757363415998 -5.369861933693113 L-13.656874805646428 -5.356866888685946 L-13.500001274821365 -5.338995623300462 L-13.368026881970163 -5.318330180368939 L-13.144547463680386 -5.272818194026184 L-13.092169688200364 -5.266793359110223 L-13.045378519164549 -5.265160508761355 L-13.00432845201774 -5.267670984262582 L-12.969165847471867 -5.274094397806067 L-12.940040132883587 -5.284168887853808 L-12.917088533510258 -5.2976599992315325 L-12.900438138432946 -5.314306871122957 L-12.873536285413483 -5.373623055289836 L-12.743959134114283 -5.6739761709074115 L-12.607457308246154 -5.971246222770472 L-12.581377646138566 -6.03092846991612 L-12.580147898386263 -6.054441056342663 L-12.58547966638155 -6.080524734190016 L-12.59748176829634 -6.1089105079090285 L-12.616236616660535 -6.139339518126847 L-12.641838826103326 -6.171525499106885 L-12.67436167370004 -6.205205524109856 L-12.713886571258868 -6.240098395487322 L-12.897245487075647 -6.375722505771943 L-13.000911009568775 -6.459970712555392 L-13.11916082876736 -6.564592254598617 L-13.249852084781375 -6.690318809078881 L-13.392345749724194 -6.839274062263061 L-13.545459736522755 -7.013350861253192 L-13.706774183964164 -7.212993358849955 L-13.87506533058933 -7.4401634184255645 L-14.037007524082478 -7.678680332754483 A16 16 0 0 1 -13.668435997746569 -8.317064942591486 L-13.380903193958874 -8.296077346246305 L-13.10002257807459 -8.263917967824703 L-12.846469879760114 -8.224036807141374 L-12.619157956225903 -8.178474604394172 L-12.418912090469851 -8.129549097267432 L-12.244684072352648 -8.079230426746932 L-12.09495424956082 -8.029133850349652 L-11.970160401016505 -7.981480977765742 L-11.761027018235971 -7.890499553800348 L-11.711046456432689 -7.873716424121161 L-11.665617275381663 -7.862390824400481 L-11.624942293485832 -7.856311651120033 L-11.589212573443087 -7.855283981101424 L-11.55862872133895 -7.859082742803913 L-11.533373709701372 -7.867507135196587 L-11.513626086423457 -7.8803284212035996 L-11.474979575294181 -7.9327551946837085 L-11.285787071530516 -8.199604269479998 L-11.09046221894949 -8.461997932063912 L-11.052543823115151 -8.514953712271083 L-11.046452406702286 -8.537696813336794 L-11.046244561210555 -8.564319037140443 L-11.05208265419318 -8.594579890901139 L-11.064101117158446 -8.628243306472832 L-11.082452015172208 -8.665048945199642 L-11.107261689572814 -8.704754861082995 L-11.138668237403653 -8.74710292778443 L-11.289822482898058 -8.917885788074969 L-11.373706477882818 -9.021846243467376 L-11.467620213116952 -9.1487670736505 L-11.569315531101266 -9.298918441276868 L-11.677725829039142 -9.474244763604752 L-11.79130130625476 -9.676351754763505 L-11.907582636748849 -9.90517074431316 L-12.02496490685546 -10.162366289890096 L-12.133777819931593 -10.429340712639256 A16 16 0 0 1 -11.640532842124081 -10.977144757868924 L-11.363646886609212 -10.896834359457646 L-11.09559049683265 -10.806979376847032 L-10.855870292866209 -10.715253144992186 L-10.642998594853585 -10.62342577932583 L-10.457300766618276 -10.533935955386516 L-10.297341888583945 -10.448492826710197 L-10.161299685564762 -10.36836040007973 L-10.049140471336047 -10.295802757039198 L-9.863493256425574 -10.163328220255766 L-9.81809429868318 -10.136520299114721 L-9.77601257882227 -10.115996933076282 L-9.737490374066482 -10.101593800057623 L-9.702755098742953 -10.093159960588043 L-9.672049770217516 -10.0905169698304 L-9.645595111511241 -10.093506456865743 L-9.623613325929579 -10.101941805266481 L-9.574911194673376 -10.14518786648717 L-9.334371958706074 -10.366870315409647 L-9.088760712742573 -10.582919726555009 L-9.040660799032093 -10.626834618118625 L-9.029973938085767 -10.647814251173422 L-9.024235562952363 -10.673811502005545 L-9.023654494325202 -10.704624891290894 L-9.028411307388971 -10.740051459420991 L-9.038708871673128 -10.779868172869161 L-9.05472107105629 -10.82386464057867 L-9.0766366523136 -10.871817088880652 L-9.188980061638981 -11.070294668675324 L-9.24941639601447 -11.18942380191843 L-9.31488956640632 -11.333096870928735 L-9.383144372976743 -11.501110716429737 L-9.452733253679463 -11.695145506306558 L-9.52180642796221 -11.916449644303356 L-9.58797258938666 -12.164444637967247 L-9.649315814508432 -12.440424990042644 L-9.700243800723833 -12.72418885785249 A16 16 0 0 1 -9.10388254382691 -13.157470673042834 L-8.84974468148709 -13.021347422348079 L-8.606227868328752 -12.87772392946058 L-8.39081708192884 -12.738161502917567 L-8.201689124112697 -12.604082270848263 L-8.038655219569057 -12.477939264822345 L-7.899956452155557 -12.361105952714984 L-7.783547565983871 -12.254439847413122 L-7.688924881932173 -12.160148551087044 L-7.534877509017524 -11.991970674426362 L-7.49604430763773 -11.956309596616006 L-7.459149222055351 -11.927485433837724 L-7.424463399637484 -11.905387827107667 L-7.392240667243152 -11.889916417441988 L-7.36275583249349 -11.8809471856028 L-7.3362577222475185 -11.878371112352216 L-7.313002483872337 -11.882051857944276 L-7.256373249323857 -11.914227146512573 L-6.975000000000004 -12.081054382792916 L-6.689836750676153 -12.241317146512575 L-6.633657516127672 -12.274271857944278 L-6.61884227775249 -12.292571112352217 L-6.607824167506519 -12.316807185602801 L-6.600849332756857 -12.346826417441989 L-6.598136600362525 -12.382467827107668 L-6.599930777944658 -12.423555433837723 L-6.6064456923622785 -12.469919596616005 L-6.6179124909824845 -12.521380674426364 L-6.6865351180678365 -12.738878551087044 L-6.720882434016137 -12.867969847413123 L-6.755053547844453 -13.022115952714985 L-6.786884780430954 -13.200649264822344 L-6.814610875887313 -13.404912270848264 L-6.836162918071168 -13.635741502917568 L-6.8493221316712605 -13.89207392946058 L-6.85194531851292 -14.174777422348079 L-6.842762580490387 -14.462928892545214 A16 16 0 0 1 -6.169348893089245 -14.762751983255598 L-5.949066167997488 -14.576765119524552 L-5.7407317847157096 -14.385650152181332 L-5.559044900903642 -14.204351078684912 L-5.401926482577172 -14.033879886037624 L-5.268681865677229 -13.876596752589732 L-5.157305010571059 -13.733479433418855 L-5.065617068164386 -13.604941470088052 L-4.992666379632777 -13.493037502585715 L-4.8769514581116304 -13.296506466264844 L-4.846381210337107 -13.253550792006322 L-4.816285251315474 -13.217685586715287 L-4.786951748116231 -13.18885927772402 L-4.758649846678552 -13.167026472704693 L-4.73167413446716 -13.152122998254482 L-4.706290667251282 -13.144093951480393 L-4.68277834159059 -13.142859228019223 L-4.620696973036819 -13.162557529430533 L-4.310787071530518 -13.26723840231739 L-3.9985348212068557 -13.364710266810736 L-3.93673156794802 -13.385264519086707 L-3.9184354491523767 -13.4000836296206 L-3.9026191480823487 -13.42149929259101 L-3.8895553809577152 -13.449412382504407 L-3.8794916625280473 -13.483710933076821 L-3.8727040392384 -13.524273707514446 L-3.8694369356683995 -13.570979228968156 L-3.8699537975279963 -13.623699840248925 L-3.8918565042817885 -13.850712312894942 L-3.8986136592792544 -13.984123863205776 L-3.89998927489854 -14.142006080322423 L-3.8940057558938888 -14.323256096599168 L-3.878657302687876 -14.528820045248203 L-3.851746285111234 -14.759086026307042 L-3.811323430107731 -15.01255292866979 L-3.7551119328168507 -15.289624063168343 L-3.6862198002716333 -15.569569533800987 A16 16 0 0 1 -2.965185091903105 -15.72283019225655 L-2.788384916179713 -15.495108233898252 L-2.624338175023194 -15.264854433243572 L-2.4843157824519526 -15.04974235227501 L-2.366073732433843 -14.850329608179965 L-2.268441832314736 -14.668780374969984 L-2.1892545925294806 -14.505633962336447 L-2.1262947969385513 -14.36084186676784 L-2.0782043990721064 -14.23621596844391 L-2.0058792262767344 -14.019921121810615 L-1.9849079986275528 -13.97154822019322 L-1.9629265039923447 -13.930209453960998 L-1.940227334859297 -13.895914290735417 L-1.9170831932786907 -13.868674288707208 L-1.8937955716730335 -13.848487924994252 L-1.8706361268079736 -13.835356812568328 L-1.8478943153177996 -13.829260583394044 L-1.7830740664639937 -13.835620987353751 L-1.4581720625837695 -13.873580440387412 L-1.1324777329519768 -13.904001417454184 L-1.0677515597151115 -13.911256891119722 L-1.0467741886848958 -13.921948191539254 L-1.0268509450426022 -13.939607476993931 L-1.0082691948532552 -13.964194489010456 L-0.9912943231747053 -13.995651169246882 L-0.9762215507216659 -14.03391632350737 L-0.9633152172673553 -14.07892194823102 L-0.9528595530228994 -14.130597949287672 L-0.9270850860591447 -14.357203483537686 L-0.905956760007958 -14.489104562905046 L-0.8744767564147159 -14.64382268134555 L-0.8309399943115264 -14.819867906346317 L-0.7731877934982943 -15.017748666657237 L-0.6989898567626434 -15.23738766839457 L-0.6067516058895777 -15.476911326674662 L-0.4941621366304585 -15.736240764671871 L-0.36857152633591284 -15.995745275345973 A16 16 0 0 1 0.36857152633590173 -15.995745275345973 L0.49416213663044783 -15.736240764671873 L0.606751605889567 -15.476911326674662 L0.6989898567626328 -15.237387668394572 L0.773187793498284 -15.017748666657237 L0.8309399943115163 -14.819867906346317 L0.8744767564147058 -14.643822681345553 L0.9059567600079481 -14.489104562905048 L0.927085086059135 -14.357203483537688 L0.9528595530228898 -14.130597949287674 L0.9633152172673456 -14.078921948231022 L0.9762215507216563 -14.03391632350737 L0.991294323174696 -13.995651169246884 L1.0082691948532456 -13.964194489010458 L1.0268509450425929 -13.939607476993933 L1.0467741886848863 -13.921948191539252 L1.067751559715102 -13.911256891119722 L1.1324777329519673 -13.904001417454186 L1.45817206258376 -13.873580440387414 L1.7830740664639841 -13.835620987353753 L1.8478943153177905 -13.829260583394044 L1.870636126807964 -13.83535681256833 L1.8937955716730241 -13.848487924994254 L1.9170831932786812 -13.86867428870721 L1.9402273348592878 -13.89591429073542 L1.9629265039923351 -13.930209453961002 L1.9849079986275435 -13.971548220193222 L2.005879226276725 -14.019921121810617 L2.0782043990720966 -14.236215968443911 L2.1262947969385415 -14.360841866767842 L2.189254592529471 -14.505633962336448 L2.2684418323147257 -14.668780374969987 L2.366073732433833 -14.850329608179969 L2.4843157824519424 -15.049742352275011 L2.6243381750231833 -15.264854433243576 L2.7883849161797025 -15.495108233898254 L2.9651850919030944 -15.722830192256554 A16 16 0 0 1 3.6862198002716298 -15.569569533800989 L3.7551119328168467 -15.289624063168345 L3.8113234301077275 -15.012552928669791 L3.8517462851112305 -14.759086026307044 L3.8786573026878726 -14.528820045248205 L3.894005755893886 -14.32325609659917 L3.8999892748985374 -14.142006080322425 L3.898613659279251 -13.984123863205776 L3.891856504281786 -13.850712312894943 L3.8699537975279927 -13.623699840248927 L3.869436935668396 -13.570979228968158 L3.872704039238397 -13.524273707514448 L3.879491662528044 -13.483710933076823 L3.8895553809577126 -13.44941238250441 L3.902619148082345 -13.421499292591012 L3.918435449152374 -13.400083629620601 L3.9367315679480175 -13.385264519086709 L3.998534821206852 -13.364710266810738 L4.310787071530514 -13.267238402317393 L4.620696973036815 -13.162557529430535 L4.682778341590588 -13.142859228019224 L4.706290667251279 -13.144093951480395 L4.7316741344671565 -13.152122998254484 L4.75864984667855 -13.167026472704695 L4.786951748116228 -13.188859277724022 L4.816285251315471 -13.21768558671529 L4.846381210337103 -13.253550792006324 L4.876951458111627 -13.296506466264846 L4.992666379632774 -13.493037502585716 L5.065617068164382 -13.604941470088052 L5.157305010571056 -13.733479433418857 L5.268681865677227 -13.876596752589734 L5.401926482577168 -14.033879886037626 L5.559044900903639 -14.204351078684914 L5.740731784715706 -14.385650152181334 L5.9490661679974846 -14.576765119524554 L6.169348893089241 -14.7627519832556 A16 16 0 0 1 6.842762580490371 -14.462928892545222 L6.851945318512905 -14.174777422348088 L6.8493221316712445 -13.892073929460587 L6.836162918071154 -13.635741502917575 L6.814610875887299 -13.40491227084827 L6.786884780430939 -13.200649264822353 L6.755053547844439 -13.02211595271499 L6.720882434016124 -12.86796984741313 L6.686535118067823 -12.738878551087053 L6.617912490982471 -12.52138067442637 L6.606445692362265 -12.469919596616013 L6.599930777944644 -12.42355543383773 L6.598136600362511 -12.382467827107677 L6.600849332756844 -12.346826417441997 L6.6078241675065055 -12.316807185602807 L6.618842277752476 -12.292571112352226 L6.633657516127658 -12.274271857944283 L6.68983675067614 -12.241317146512582 L6.974999999999991 -12.081054382792924 L7.256373249323843 -11.914227146512584 L7.3130024838723235 -11.882051857944285 L7.336257722247506 -11.878371112352225 L7.362755832493477 -11.880947185602809 L7.392240667243139 -11.889916417441997 L7.424463399637472 -11.905387827107676 L7.459149222055338 -11.927485433837731 L7.496044307637717 -11.956309596616013 L7.534877509017511 -11.991970674426371 L7.688924881932159 -12.160148551087053 L7.7835475659838576 -12.25443984741313 L7.899956452155544 -12.361105952714993 L8.038655219569042 -12.477939264822353 L8.201689124112683 -12.604082270848272 L8.390817081928828 -12.738161502917578 L8.606227868328736 -12.877723929460586 L8.849744681487076 -13.021347422348088 L9.103882543826895 -13.157470673042845 A16 16 0 0 1 9.700243800723825 -12.724188857852493 L9.649315814508423 -12.440424990042647 L9.587972589386652 -12.164444637967252 L9.521806427962202 -11.91644964430336 L9.452733253679455 -11.695145506306561 L9.383144372976735 -11.501110716429741 L9.314889566406315 -11.33309687092874 L9.249416396014462 -11.189423801918434 L9.188980061638974 -11.070294668675327 L9.076636652313592 -10.871817088880656 L9.054721071056285 -10.823864640578673 L9.038708871673121 -10.779868172869165 L9.028411307388966 -10.740051459420997 L9.023654494325196 -10.7046248912909 L9.024235562952356 -10.67381150200555 L9.02997393808576 -10.647814251173427 L9.040660799032086 -10.62683461811863 L9.088760712742566 -10.582919726555014 L9.334371958706067 -10.366870315409653 L9.57491119467337 -10.145187866487175 L9.623613325929572 -10.101941805266486 L9.645595111511234 -10.093506456865748 L9.672049770217509 -10.090516969830405 L9.702755098742948 -10.093159960588048 L9.737490374066477 -10.101593800057628 L9.776012578822263 -10.115996933076289 L9.818094298683175 -10.136520299114729 L9.863493256425567 -10.163328220255769 L10.04914047133604 -10.295802757039205 L10.161299685564755 -10.368360400079734 L10.29734188858394 -10.448492826710202 L10.45730076661827 -10.53393595538652 L10.64299859485358 -10.623425779325833 L10.855870292866202 -10.715253144992193 L11.095590496832642 -10.806979376847037 L11.363646886609207 -10.896834359457653 L11.640532842124074 -10.977144757868931 A16 16 0 0 1 12.133777819931591 -10.42934071263926 L12.024964906855459 -10.1623662898901 L11.907582636748847 -9.905170744313164 L11.791301306254757 -9.676351754763509 L11.67772582903914 -9.474244763604755 L11.569315531101264 -9.298918441276872 L11.46762021311695 -9.148767073650504 L11.373706477882816 -9.02184624346738 L11.289822482898057 -8.91788578807497 L11.138668237403651 -8.747102927784434 L11.107261689572814 -8.704754861082998 L11.082452015172207 -8.665048945199645 L11.064101117158444 -8.628243306472834 L11.052082654193178 -8.594579890901143 L11.046244561210555 -8.564319037140447 L11.046452406702285 -8.537696813336797 L11.05254382311515 -8.514953712271087 L11.090462218949488 -8.461997932063914 L11.285787071530514 -8.199604269480002 L11.47497957529418 -7.932755194683712 L11.513626086423455 -7.880328421203604 L11.53337370970137 -7.867507135196591 L11.55862872133895 -7.859082742803917 L11.589212573443085 -7.855283981101428 L11.62494229348583 -7.856311651120035 L11.665617275381662 -7.862390824400484 L11.711046456432689 -7.873716424121165 L11.76102701823597 -7.8904995538003515 L11.970160401016503 -7.981480977765743 L12.094954249560818 -8.029133850349655 L12.244684072352646 -8.079230426746935 L12.41891209046985 -8.129549097267436 L12.619157956225902 -8.178474604394175 L12.846469879760113 -8.224036807141378 L13.100022578074588 -8.263917967824707 L13.380903193958872 -8.296077346246308 L13.668435997746567 -8.31706494259149 A16 16 0 0 1 14.03700752408247 -7.678680332754495 L13.875065330589322 -7.440163418425577 L13.706774183964155 -7.212993358849967 L13.545459736522748 -7.013350861253204 L13.392345749724187 -6.839274062263073 L13.249852084781367 -6.690318809078893 L13.119160828767352 -6.5645922545986295 L13.000911009568767 -6.459970712555404 L12.89724548707564 -6.3757225057719555 L12.71388657125886 -6.240098395487333 L12.674361673700036 -6.205205524109867 L12.641838826103319 -6.171525499106896 L12.616236616660528 -6.139339518126858 L12.597481768296333 -6.10891050790904 L12.585479666381543 -6.0805247341900275 L12.580147898386258 -6.054441056342674 L12.581377646138561 -6.03092846991613 L12.607457308246149 -5.971246222770484 L12.743959134114277 -5.673976170907423 L12.873536285413477 -5.373623055289848 L12.900438138432941 -5.3143068711229695 L12.917088533510253 -5.297659999231544 L12.94004013288358 -5.284168887853819 L12.96916584747186 -5.274094397806079 L13.004328452017733 -5.267670984262594 L13.045378519164545 -5.265160508761366 L13.092169688200359 -5.266793359110236 L13.14454746368038 -5.272818194026195 L13.368026881970156 -5.318330180368951 L13.500001274821361 -5.338995623300474 L13.656874805646424 -5.356866888685959 L13.837757363415992 -5.369861933693126 L14.043799561472975 -5.376084844575225 L14.275617088706703 -5.373390597511514 L14.531920811772034 -5.359683688930423 L14.813349823035164 -5.332741944008168 L15.098962911834688 -5.293489479617306 A16 16 0 0 1 15.326752642395709 -4.592424775932069 L15.11875881942606 -4.3927897037107035 L14.906913926940375 -4.205573551822763 L14.707616577977436 -4.043832881314861 L14.521655897541459 -3.9053942659223795 L14.35130652251216 -3.7893201412126594 L14.197331163482481 -3.693513253612231 L14.059913344844011 -3.6157634631260516 L13.940996975617832 -3.5549095558557484 L13.733447053953565 -3.4603716199931664 L13.687531234351576 -3.434458929853439 L13.648716618060664 -3.408276774438169 L13.616982036594527 -3.382117133019203 L13.592310479700664 -3.3562524219163694 L13.57466891829986 -3.3309823227606152 L13.564030560663614 -3.306577172754862 L13.560344893877595 -3.2833227138202306 L13.573446015880226 -3.2195224003235703 L13.645159030236588 -2.900368086907749 L13.709457685779388 -2.5796378028755296 L13.723439140622677 -2.5160246099006045 L13.736264605337045 -2.496279700306977 L13.755909697419519 -2.478311496248942 L13.782304341003751 -2.4624015814138036 L13.8153630555052 -2.4488078183030346 L13.854994122988597 -2.437817413846131 L13.901102281393394 -2.429686151427659 L13.953588110425226 -2.4246893773841984 L14.181646441271756 -2.422742833910398 L14.315033464178851 -2.4155176681696275 L14.472194576977376 -2.400382562490125 L14.651826238653967 -2.3754860361600016 L14.85465973625663 -2.338734379731073 L15.080851328865847 -2.2879014343815625 L15.328704374102363 -2.2212055142140916 L15.598381982505916 -2.1363401294819173 L15.869592693813074 -2.0385631254031154 A16 16 0 0 1 15.946645124317286 -1.3054582195023807 L15.70169 -1.1534300000000028 L15.45555 -1.014350000000003 L15.22698 -0.8975800000000028 L15.0163 -0.8008300000000028 L14.82554 -0.7227100000000027 L14.65501 -0.6610100000000027 L14.50443 -0.6135300000000027 L14.37546 -0.5787300000000026 L14.15279 -0.5294100000000026 L14.10249 -0.5136100000000026 L14.05908 -0.4960700000000026 L14.0226 -0.47708000000000256 L13.99309 -0.45691000000000254 L13.97058 -0.4358600000000026 L13.9551 -0.41420000000000257 L13.94666 -0.39222000000000257 L13.94621 -0.32709000000000255 L13.95 -2.5625734272158364e-15 L13.94621 0.32708999999999744 L13.94666 0.39221999999999746 L13.9551 0.41419999999999746 L13.97058 0.43585999999999747 L13.99309 0.45690999999999743 L14.0226 0.47707999999999745 L14.05908 0.4960699999999974 L14.10249 0.5136099999999975 L14.15279 0.5294099999999975 L14.37546 0.5787299999999973 L14.50443 0.6135299999999974 L14.65501 0.6610099999999973 L14.82554 0.7227099999999972 L15.0163 0.8008299999999973 L15.22698 0.8975799999999973 L15.45555 1.0143499999999972 L15.70169 1.153429999999997 L15.946645124317286 1.305458219502375 A16 16 0 0 1 15.869592693813075 2.038563125403096 L15.598381982505916 2.1363401294818978 L15.328704374102365 2.2212055142140725 L15.08085132886585 2.287901434381544 L14.854659736256632 2.3387343797310542 L14.65182623865397 2.3754860361599834 L14.472194576977378 2.400382562490107 L14.315033464178855 2.4155176681696098 L14.181646441271758 2.4227428339103803 L13.953588110425228 2.424689377384181 L13.901102281393397 2.4296861514276418 L13.8549941229886 2.437817413846114 L13.815363055505202 2.4488078183030173 L13.782304341003753 2.462401581413786 L13.75590969741952 2.4783114962489248 L13.736264605337048 2.4962797003069603 L13.72343914062268 2.516024609900587 L13.709457685779391 2.5796378028755123 L13.64515903023659 2.900368086907732 L13.57344601588023 3.219522400323553 L13.560344893877598 3.283322713820214 L13.564030560663618 3.306577172754845 L13.574668918299865 3.330982322760598 L13.59231047970067 3.3562524219163525 L13.616982036594528 3.3821171330191855 L13.648716618060668 3.408276774438152 L13.68753123435158 3.4344589298534216 L13.73344705395357 3.460371619993149 L13.940996975617834 3.5549095558557307 L14.059913344844015 3.615763463126034 L14.197331163482486 3.693513253612213 L14.351306522512166 3.789320141212641 L14.52165589754146 3.9053942659223617 L14.707616577977442 4.0438328813148425 L14.90691392694038 4.205573551822744 L15.118758819426063 4.392789703710685 L15.326752642395714 4.59242477593205 A16 16 0 0 1 15.098962911834697 5.293489479617287 L14.813349823035171 5.3327419440081485 L14.531920811772041 5.359683688930405 L14.275617088706708 5.373390597511495 L14.043799561472982 5.376084844575208 L13.837757363416 5.369861933693109 L13.65687480564643 5.356866888685941 L13.500001274821367 5.338995623300457 L13.368026881970165 5.318330180368934 L13.144547463680386 5.272818194026179 L13.092169688200366 5.266793359110219 L13.04537851916455 5.26516050876135 L13.004328452017742 5.267670984262578 L12.969165847471869 5.274094397806063 L12.940040132883588 5.284168887853802 L12.917088533510258 5.297659999231528 L12.900438138432948 5.314306871122952 L12.873536285413483 5.373623055289832 L12.743959134114284 5.673976170907406 L12.607457308246158 5.971246222770468 L12.581377646138568 6.030928469916114 L12.580147898386267 6.054441056342658 L12.585479666381552 6.080524734190011 L12.597481768296342 6.108910507909024 L12.616236616660537 6.139339518126842 L12.641838826103328 6.17152549910688 L12.674361673700043 6.205205524109852 L12.713886571258868 6.240098395487317 L12.897245487075649 6.3757225057719396 L13.000911009568776 6.459970712555387 L13.119160828767361 6.564592254598612 L13.249852084781377 6.690318809078876 L13.392345749724198 6.839274062263056 L13.545459736522757 7.013350861253187 L13.706774183964166 7.21299335884995 L13.875065330589333 7.440163418425559 L14.03700752408248 7.678680332754478 A16 16 0 0 1 13.66843599774657 8.317064942591484 L13.380903193958876 8.296077346246303 L13.100022578074592 8.263917967824701 L12.846469879760116 8.224036807141372 L12.619157956225905 8.17847460439417 L12.418912090469853 8.12954909726743 L12.24468407235265 8.07923042674693 L12.094954249560821 8.02913385034965 L11.970160401016507 7.98148097776574 L11.761027018235971 7.890499553800346 L11.71104645643269 7.8737164241211595 L11.665617275381665 7.862390824400481 L11.624942293485834 7.8563116511200315 L11.589212573443088 7.855283981101422 L11.558628721338952 7.859082742803912 L11.533373709701374 7.867507135196585 L11.513626086423459 7.880328421203598 L11.474979575294183 7.932755194683707 L11.285787071530518 8.199604269479996 L11.090462218949492 8.46199793206391 L11.052543823115153 8.514953712271081 L11.046452406702288 8.537696813336792 L11.046244561210557 8.564319037140441 L11.052082654193182 8.594579890901137 L11.064101117158447 8.628243306472832 L11.08245201517221 8.665048945199642 L11.107261689572816 8.704754861082993 L11.138668237403657 8.747102927784429 L11.28982248289806 8.917885788074967 L11.37370647788282 9.021846243467374 L11.467620213116954 9.148767073650498 L11.569315531101267 9.298918441276866 L11.677725829039144 9.47424476360475 L11.791301306254761 9.676351754763504 L11.90758263674885 9.905170744313159 L12.024964906855462 10.162366289890095 L12.133777819931595 10.429340712639254 A16 16 0 0 1 11.640532842124088 10.977144757868917 L11.363646886609219 10.896834359457639 L11.095590496832655 10.806979376847023 L10.855870292866214 10.715253144992179 L10.642998594853593 10.62342577932582 L10.457300766618282 10.533935955386509 L10.297341888583952 10.448492826710192 L10.161299685564765 10.368360400079723 L10.049140471336052 10.29580275703919 L9.86349325642558 10.163328220255758 L9.818094298683187 10.136520299114716 L9.776012578822275 10.115996933076277 L9.737490374066489 10.101593800057618 L9.70275509874296 10.093159960588038 L9.672049770217521 10.090516969830395 L9.645595111511247 10.093506456865738 L9.623613325929584 10.101941805266476 L9.574911194673382 10.145187866487165 L9.334371958706079 10.366870315409642 L9.088760712742578 10.582919726555003 L9.040660799032098 10.62683461811862 L9.029973938085773 10.647814251173417 L9.024235562952368 10.67381150200554 L9.023654494325209 10.704624891290889 L9.028411307388978 10.740051459420986 L9.038708871673133 10.779868172869156 L9.054721071056298 10.823864640578664 L9.076636652313605 10.871817088880645 L9.18898006163899 11.070294668675317 L9.249416396014476 11.189423801918423 L9.314889566406327 11.33309687092873 L9.383144372976748 11.50111071642973 L9.45273325367947 11.695145506306552 L9.521806427962215 11.916449644303349 L9.587972589386665 12.164444637967241 L9.649315814508439 12.440424990042636 L9.70024380072384 12.724188857852482 A16 16 0 0 1 9.103882543826911 13.157470673042832 L8.849744681487092 13.021347422348077 L8.606227868328752 12.877723929460577 L8.390817081928843 12.738161502917567 L8.201689124112699 12.604082270848261 L8.038655219569058 12.477939264822343 L7.899956452155558 12.361105952714983 L7.783547565983873 12.25443984741312 L7.6889248819321745 12.160148551087042 L7.534877509017526 11.99197067442636 L7.496044307637732 11.956309596616004 L7.459149222055353 11.927485433837722 L7.424463399637486 11.905387827107665 L7.392240667243154 11.889916417441986 L7.362755832493492 11.880947185602798 L7.33625772224752 11.878371112352216 L7.313002483872339 11.882051857944274 L7.256373249323858 11.914227146512571 L6.975000000000006 12.081054382792916 L6.689836750676155 12.241317146512573 L6.633657516127673 12.274271857944276 L6.618842277752492 12.292571112352217 L6.607824167506521 12.3168071856028 L6.600849332756859 12.346826417441987 L6.598136600362527 12.382467827107666 L6.599930777944659 12.423555433837722 L6.60644569236228 12.469919596616004 L6.617912490982486 12.521380674426362 L6.686535118067838 12.738878551087042 L6.720882434016139 12.867969847413121 L6.755053547844455 13.022115952714984 L6.786884780430955 13.200649264822342 L6.814610875887315 13.404912270848262 L6.836162918071171 13.635741502917568 L6.849322131671262 13.892073929460578 L6.8519453185129215 14.174777422348077 L6.842762580490389 14.462928892545213 A16 16 0 0 1 6.16934889308926 14.76275198325559 L5.949066167997504 14.576765119524547 L5.740731784715724 14.385650152181327 L5.559044900903657 14.204351078684905 L5.401926482577187 14.033879886037619 L5.2686818656772445 13.876596752589727 L5.157305010571074 13.733479433418848 L5.0656170681644 13.604941470088047 L4.992666379632792 13.49303750258571 L4.876951458111645 13.29650646626484 L4.846381210337121 13.253550792006317 L4.816285251315488 13.21768558671528 L4.786951748116245 13.188859277724015 L4.7586498466785665 13.167026472704688 L4.731674134467173 13.152122998254475 L4.706290667251296 13.14409395148039 L4.682778341590605 13.14285922801922 L4.620696973036832 13.162557529430527 L4.310787071530531 13.267238402317387 L3.998534821206869 13.36471026681073 L3.9367315679480344 13.385264519086704 L3.9184354491523914 13.400083629620596 L3.902619148082362 13.421499292591006 L3.88955538095773 13.449412382504402 L3.879491662528061 13.483710933076816 L3.8727040392384144 13.524273707514443 L3.869436935668414 13.57097922896815 L3.8699537975280105 13.623699840248923 L3.8918565042818036 13.850712312894936 L3.898613659279269 13.98412386320577 L3.899989274898555 14.14200608032242 L3.894005755893904 14.323256096599163 L3.878657302687891 14.528820045248198 L3.8517462851112496 14.759086026307038 L3.8113234301077465 15.012552928669784 L3.7551119328168667 15.289624063168342 L3.68621980027165 15.569569533800983 A16 16 0 0 1 2.9651850919031144 15.72283019225655 L2.788384916179722 15.49510823389825 L2.624338175023203 15.264854433243572 L2.4843157824519615 15.04974235227501 L2.3660737324338514 14.850329608179965 L2.2684418323147444 14.668780374969984 L2.189254592529489 14.505633962336447 L2.1262947969385597 14.360841866767839 L2.0782043990721144 14.236215968443908 L2.0058792262767424 14.019921121810615 L1.9849079986275608 13.97154822019322 L1.9629265039923527 13.930209453960998 L1.940227334859305 13.895914290735417 L1.9170831932786985 13.868674288707208 L1.8937955716730415 13.848487924994252 L1.8706361268079812 13.835356812568328 L1.8478943153178076 13.829260583394044 L1.7830740664640017 13.835620987353751 L1.4581720625837775 13.873580440387412 L1.1324777329519848 13.904001417454184 L1.0677515597151195 13.911256891119722 L1.0467741886849038 13.921948191539254 L1.0268509450426102 13.939607476993931 L1.008269194853263 13.964194489010456 L0.9912943231747133 13.995651169246882 L0.9762215507216739 14.03391632350737 L0.9633152172673632 14.07892194823102 L0.9528595530229074 14.130597949287672 L0.927085086059153 14.357203483537688 L0.9059567600079664 14.489104562905048 L0.8744767564147243 14.64382268134555 L0.8309399943115349 14.819867906346317 L0.7731877934983029 15.017748666657237 L0.698989856762652 15.23738766839457 L0.6067516058895863 15.476911326674662 L0.4941621366304674 15.736240764671873 L0.36857152633592194 15.995745275345973 A16 16 0 0 1 -0.36857152633589974 15.995745275345973 L-0.49416213663044584 15.736240764671873 L-0.6067516058895652 15.476911326674662 L-0.6989898567626308 15.237387668394572 L-0.7731877934982823 15.017748666657237 L-0.8309399943115143 14.819867906346317 L-0.874476756414704 14.643822681345553 L-0.9059567600079463 14.489104562905048 L-0.9270850860591332 14.357203483537688 L-0.952859553022888 14.130597949287674 L-0.9633152172673438 14.078921948231022 L-0.9762215507216545 14.03391632350737 L-0.9912943231746942 13.995651169246884 L-1.0082691948532438 13.964194489010458 L-1.0268509450425911 13.939607476993933 L-1.0467741886848845 13.921948191539252 L-1.0677515597151002 13.911256891119722 L-1.1324777329519655 13.904001417454186 L-1.4581720625837582 13.873580440387414 L-1.7830740664639824 13.835620987353753 L-1.8478943153177887 13.829260583394044 L-1.8706361268079623 13.83535681256833 L-1.8937955716730224 13.848487924994254 L-1.9170831932786794 13.86867428870721 L-1.940227334859286 13.89591429073542 L-1.9629265039923334 13.930209453961002 L-1.9849079986275417 13.971548220193222 L-2.0058792262767233 14.019921121810617 L-2.078204399072095 14.236215968443911 L-2.1262947969385397 14.360841866767842 L-2.189254592529469 14.505633962336448 L-2.268441832314724 14.668780374969987 L-2.366073732433831 14.850329608179969 L-2.4843157824519406 15.049742352275011 L-2.6243381750231816 15.264854433243576 L-2.7883849161797007 15.495108233898254 L-2.965185091903092 15.722830192256554 A16 16 0 0 1 -3.6862198002716147 15.569569533800992 L-3.755111932816831 15.289624063168349 L-3.811323430107713 15.012552928669795 L-3.851746285111216 14.759086026307047 L-3.878657302687859 14.528820045248208 L-3.8940057558938714 14.323256096599176 L-3.8999892748985228 14.142006080322428 L-3.8986136592792366 13.984123863205781 L-3.891856504281772 13.850712312894949 L-3.869953797527979 13.623699840248932 L-3.8694369356683826 13.570979228968163 L-3.872704039238384 13.524273707514453 L-3.8794916625280305 13.483710933076825 L-3.8895553809576993 13.449412382504415 L-3.902619148082332 13.421499292591017 L-3.9184354491523607 13.400083629620607 L-3.936731567948004 13.385264519086714 L-3.9985348212068383 13.364710266810741 L-4.310787071530501 13.267238402317398 L-4.620696973036802 13.162557529430538 L-4.682778341590574 13.14285922801923 L-4.706290667251267 13.1440939514804 L-4.731674134467143 13.15212299825449 L-4.758649846678537 13.1670264727047 L-4.7869517481162145 13.188859277724028 L-4.816285251315458 13.217685586715294 L-4.846381210337091 13.25355079200633 L-4.8769514581116145 13.296506466264852 L-4.992666379632761 13.493037502585722 L-5.065617068164368 13.604941470088058 L-5.157305010571042 13.73347943341886 L-5.2686818656772125 13.87659675258974 L-5.401926482577155 14.033879886037633 L-5.559044900903625 14.204351078684917 L-5.740731784715692 14.385650152181341 L-5.94906616799747 14.57676511952456 L-6.169348893089226 14.762751983255606 A16 16 0 0 1 -6.842762580490369 14.462928892545222 L-6.851945318512903 14.174777422348086 L-6.849322131671243 13.892073929460587 L-6.836162918071152 13.635741502917575 L-6.814610875887297 13.40491227084827 L-6.786884780430937 13.200649264822353 L-6.755053547844438 13.02211595271499 L-6.720882434016122 12.86796984741313 L-6.686535118067821 12.738878551087053 L-6.61791249098247 12.52138067442637 L-6.606445692362264 12.469919596616013 L-6.5999307779446434 12.42355543383773 L-6.59813660036251 12.382467827107677 L-6.600849332756843 12.346826417441997 L-6.607824167506505 12.316807185602807 L-6.618842277752475 12.292571112352226 L-6.633657516127657 12.274271857944283 L-6.689836750676139 12.241317146512582 L-6.97499999999999 12.081054382792924 L-7.256373249323842 11.914227146512584 L-7.313002483872323 11.882051857944285 L-7.336257722247505 11.878371112352225 L-7.362755832493476 11.880947185602809 L-7.392240667243138 11.889916417441997 L-7.424463399637471 11.905387827107676 L-7.459149222055337 11.927485433837731 L-7.496044307637716 11.956309596616013 L-7.53487750901751 11.991970674426371 L-7.688924881932158 12.160148551087053 L-7.783547565983856 12.25443984741313 L-7.899956452155542 12.361105952714993 L-8.03865521956904 12.477939264822353 L-8.201689124112681 12.604082270848272 L-8.390817081928827 12.738161502917578 L-8.606227868328734 12.877723929460586 L-8.849744681487074 13.02134742234809 L-9.103882543826893 13.157470673042845 A16 16 0 0 1 -9.700243800723824 12.724188857852495 L-9.649315814508421 12.440424990042649 L-9.58797258938665 12.164444637967254 L-9.5218064279622 11.916449644303361 L-9.452733253679453 11.695145506306563 L-9.383144372976734 11.501110716429743 L-9.314889566406313 11.333096870928742 L-9.24941639601446 11.189423801918435 L-9.188980061638974 11.070294668675329 L-9.07663665231359 10.871817088880658 L-9.054721071056283 10.823864640578675 L-9.03870887167312 10.779868172869167 L-9.028411307388964 10.740051459420998 L-9.023654494325195 10.704624891290901 L-9.024235562952356 10.673811502005552 L-9.029973938085758 10.647814251173429 L-9.040660799032084 10.626834618118632 L-9.088760712742564 10.582919726555016 L-9.334371958706067 10.366870315409654 L-9.574911194673367 10.145187866487177 L-9.62361332592957 10.101941805266488 L-9.645595111511232 10.09350645686575 L-9.672049770217509 10.090516969830407 L-9.702755098742946 10.09315996058805 L-9.737490374066475 10.10159380005763 L-9.776012578822261 10.11599693307629 L-9.818094298683173 10.13652029911473 L-9.863493256425565 10.16332822025577 L-10.04914047133604 10.295802757039207 L-10.161299685564753 10.368360400079736 L-10.297341888583938 10.448492826710204 L-10.457300766618268 10.533935955386521 L-10.642998594853578 10.623425779325835 L-10.8558702928662 10.715253144992195 L-11.09559049683264 10.806979376847039 L-11.363646886609205 10.896834359457655 L-11.640532842124072 10.977144757868933 A16 16 0 0 1 -12.13377781993158 10.42934071263927 L-12.02496490685545 10.162366289890112 L-11.907582636748838 9.905170744313175 L-11.791301306254747 9.67635175476352 L-11.677725829039131 9.474244763604766 L-11.569315531101255 9.298918441276884 L-11.467620213116941 9.148767073650514 L-11.373706477882806 9.021846243467389 L-11.28982248289805 8.917885788074983 L-11.138668237403644 8.747102927784445 L-11.107261689572805 8.704754861083009 L-11.0824520151722 8.665048945199654 L-11.064101117158437 8.628243306472847 L-11.05208265419317 8.594579890901153 L-11.046244561210546 8.564319037140457 L-11.046452406702278 8.537696813336808 L-11.05254382311514 8.514953712271097 L-11.090462218949481 8.461997932063925 L-11.285787071530507 8.199604269480012 L-11.474979575294173 7.932755194683723 L-11.51362608642345 7.880328421203615 L-11.533373709701364 7.867507135196601 L-11.558628721338941 7.859082742803928 L-11.58921257344308 7.855283981101439 L-11.624942293485823 7.8563116511200475 L-11.665617275381654 7.862390824400495 L-11.71104645643268 7.8737164241211755 L-11.761027018235962 7.890499553800363 L-11.970160401016496 7.981480977765757 L-12.09495424956081 8.029133850349668 L-12.244684072352637 8.079230426746946 L-12.418912090469844 8.129549097267448 L-12.619157956225896 8.17847460439419 L-12.846469879760106 8.224036807141392 L-13.10002257807458 8.263917967824721 L-13.380903193958867 8.29607734624632 L-13.66843599774656 8.317064942591504 A16 16 0 0 1 -14.03700752408247 7.678680332754497 L-13.875065330589322 7.440163418425579 L-13.706774183964155 7.212993358849968 L-13.545459736522748 7.013350861253206 L-13.392345749724187 6.839274062263075 L-13.249852084781367 6.690318809078895 L-13.119160828767352 6.56459225459863 L-13.000911009568767 6.459970712555406 L-12.89724548707564 6.375722505771957 L-12.71388657125886 6.240098395487335 L-12.674361673700036 6.205205524109869 L-12.641838826103319 6.171525499106898 L-12.616236616660528 6.13933951812686 L-12.597481768296333 6.108910507909042 L-12.585479666381543 6.080524734190028 L-12.580147898386258 6.054441056342676 L-12.581377646138561 6.030928469916131 L-12.607457308246149 5.9712462227704854 L-12.743959134114277 5.673976170907424 L-12.873536285413477 5.373623055289849 L-12.900438138432941 5.31430687112297 L-12.917088533510253 5.297659999231546 L-12.94004013288358 5.28416888785382 L-12.96916584747186 5.27409439780608 L-13.004328452017733 5.267670984262596 L-13.045378519164545 5.265160508761368 L-13.092169688200359 5.266793359110237 L-13.14454746368038 5.272818194026197 L-13.368026881970156 5.318330180368953 L-13.500001274821361 5.338995623300476 L-13.656874805646424 5.35686688868596 L-13.837757363415992 5.3698619336931275 L-14.043799561472975 5.376084844575227 L-14.275617088706703 5.3733905975115155 L-14.531920811772034 5.359683688930425 L-14.813349823035164 5.33274194400817 L-15.098962911834688 5.293489479617308 A16 16 0 0 1 -15.32675264239571 4.592424775932064 Z" id="SvgjsPath1662">
        </path>
      </g>
    </g>
  </g>
</svg>
