<?xml version="1.1" encoding="UTF-8"?>
<svg viewBox="-11.45 -11.45 31.9 22.9" height="22.9mm" width="31.9mm" xmlns:svgjs="http://svgjs.com/svgjs" xmlns:xlink="http://www.w3.org/1999/xlink" version="1.1" xmlns="http://www.w3.org/2000/svg" id="SvgjsSvg1413">
  <defs id="SvgjsDefs1414">
  </defs>
  <defs id="SvgjsDefs1414">
  </defs>
  <g id="SvgjsG1415">
    <g transform="matrix(1,0,0,1,13.5,0)" id="SvgjsG1416">
      <g fill="none" stroke-width="0.04" stroke="blue" id="SvgjsG1417">
        <circle cy="0" cx="0" r="4.5" id="SvgjsCircle1418">
        </circle>
        <circle cy="0" cx="0" r="5.5" id="SvgjsCircle1419">
        </circle>
      </g>
      <g fill="none" stroke-width="0.1" stroke="black" id="SvgjsG1420">
        <circle cy="0" cx="0" r="2" id="SvgjsCircle1421">
        </circle>
        <path d="M-3.0045015746867905 4.486875946123828  L-3.0127617663520097 4.35014699771255 L-3.015161935119132 4.220510653310646 L-3.012250385524208 4.097500155876661 L-3.0049184209614985 3.9852182944935723 L-2.9933809553980457 3.8776838809862113 L-2.9783945846414523 3.7779467781029514 L-2.960785576552586 3.6870136046505406 L-2.9413344215333104 3.605043215067374 L-2.8984743630594934 3.4637721497793224 L-2.8548839119040648 3.3539881775061966 L-2.8150694083451366 3.2739768020252313 L-2.7925538167328425 3.2359205984002193 L-2.71638086394175 3.176168151060499 L-2.63767660847949 3.10735997587665 L-2.5694021104124776 3.037852257501656 L-2.5114652591999542 2.968377058534125 L-2.4637200561557195 2.89969954848706 L-2.4260079118758022 2.8325221157152525 L-2.398086939601399 2.7675686323040294 L-2.3796910386720773 2.7055295983898993 L-2.370525931786349 2.6470979792460385 L-2.3702501464078045 2.592914084568515 L-2.378472284594019 2.543615493882302 L-2.3947767345009403 2.4998064147635537 L-2.4258108875466347 2.453658138038021 L-2.5046562151688736 2.372606443347892 L-2.642853328760474 2.217617253418561 L-2.77149020770195 2.0546060741203416 L-2.8376191975684133 1.9628841051094164 L-2.8776773541540495 1.9243078664259903 L-2.9179896369083194 1.900643750994819 L-2.965111511916116 1.883985915128488 L-3.01852012111135 1.8748485761377969 L-3.0776555367741096 1.8737279002735883 L-3.1419464730350497 1.881071360949023 L-3.2107615930377107 1.8972890968890168 L-3.2834670947889633 1.922763070177427 L-3.359392106641856 1.9578571918381562 L-3.4378724498599613 2.002849610403605 L-3.5181799319803053 2.0580169768034113 L-3.599609606907636 2.1235771235484364 L-3.6716815747489284 2.188216934435255 L-3.7130694105816193 2.203782073210294 L-3.7987789494721667 2.229097875452565 L-3.9144644589300372 2.2529623029854657 L-4.06103187035068 2.2706397578207014 L-4.145134603152228 2.275561397314961 L-4.23774406953932 2.2771125051442493 L-4.338568297693454 2.274552033093401 L-4.446472481701113 2.267241063688365 L-4.558321711598854 2.254964098620308 L-4.679968988455075 2.236470866521355 L-4.807219080561728 2.2115960467461617 L-4.940436441788516 2.1797186132269526 L-5.0646268463039466 2.1445487829540384 A5.5 5.5 0 0 1 -5.258218638133536 1.6126597063104815 L-5.18569 1.5058900000000002 L-5.10413 1.3958400000000002 L-5.02264 1.2949900000000003 L-4.94134 1.2026300000000003 L-4.86355 1.1213300000000002 L-4.78559 1.0463700000000002 L-4.71 0.9796000000000004 L-4.63806 0.9212600000000003 L-4.57047 0.8709700000000004 L-4.44683 0.7903000000000002 L-4.34287 0.7342200000000002 L-4.26094 0.6985200000000003 L-4.21923 0.6838400000000002 L-4.12247 0.6870300000000003 L-4.01795 0.6849100000000002 L-3.92097 0.6755500000000002 L-3.83193 0.6595700000000002 L-3.75121 0.6376500000000003 L-3.67914 0.6104300000000003 L-3.616 0.5786200000000002 L-3.56203 0.5429200000000002 L-3.51745 0.5040500000000002 L-3.48241 0.46272000000000024 L-3.45702 0.4196700000000002 L-3.44135 0.37563000000000024 L-3.43546 0.3203300000000002 L-3.44376 0.20756000000000022 L-3.45 2.1125157285291844e-16 L-3.44376 -0.20755999999999977 L-3.43546 -0.3203299999999998 L-3.44135 -0.3756299999999998 L-3.45702 -0.41966999999999977 L-3.48241 -0.4627199999999998 L-3.51745 -0.5040499999999998 L-3.56203 -0.5429199999999997 L-3.616 -0.5786199999999998 L-3.67914 -0.6104299999999998 L-3.75121 -0.6376499999999998 L-3.83193 -0.6595699999999998 L-3.92097 -0.6755499999999998 L-4.01795 -0.6849099999999998 L-4.12247 -0.6870299999999998 L-4.21923 -0.6838399999999998 L-4.26094 -0.6985199999999998 L-4.34287 -0.7342199999999998 L-4.44683 -0.7902999999999998 L-4.57047 -0.8709699999999997 L-4.63806 -0.9212599999999996 L-4.71 -0.9795999999999997 L-4.78559 -1.0463699999999998 L-4.86355 -1.1213299999999997 L-4.94134 -1.2026299999999999 L-5.02264 -1.2949899999999999 L-5.10413 -1.3958399999999997 L-5.18569 -1.5058899999999997 L-5.258218638133536 -1.612659706310481 A5.5 5.5 0 0 1 -5.0646268463039466 -2.1445487829540384 L-4.940436441788516 -2.1797186132269526 L-4.807219080561728 -2.2115960467461617 L-4.679968988455075 -2.236470866521355 L-4.558321711598854 -2.254964098620308 L-4.446472481701113 -2.267241063688365 L-4.338568297693454 -2.274552033093401 L-4.23774406953932 -2.2771125051442493 L-4.145134603152228 -2.275561397314961 L-4.06103187035068 -2.2706397578207014 L-3.9144644589300372 -2.2529623029854657 L-3.7987789494721667 -2.229097875452565 L-3.7130694105816193 -2.203782073210294 L-3.6716815747489284 -2.188216934435255 L-3.599609606907636 -2.1235771235484364 L-3.5181799319803053 -2.0580169768034113 L-3.4378724498599613 -2.002849610403605 L-3.359392106641856 -1.9578571918381562 L-3.2834670947889633 -1.922763070177427 L-3.2107615930377107 -1.8972890968890168 L-3.1419464730350497 -1.881071360949023 L-3.0776555367741096 -1.8737279002735883 L-3.01852012111135 -1.8748485761377969 L-2.965111511916116 -1.883985915128488 L-2.9179896369083194 -1.900643750994819 L-2.8776773541540495 -1.9243078664259903 L-2.8376191975684133 -1.9628841051094164 L-2.77149020770195 -2.0546060741203416 L-2.642853328760474 -2.217617253418561 L-2.5046562151688736 -2.372606443347892 L-2.4258108875466347 -2.453658138038021 L-2.3947767345009403 -2.4998064147635537 L-2.378472284594019 -2.543615493882302 L-2.3702501464078045 -2.592914084568515 L-2.370525931786349 -2.6470979792460385 L-2.3796910386720773 -2.7055295983898993 L-2.398086939601399 -2.7675686323040294 L-2.4260079118758022 -2.8325221157152525 L-2.4637200561557195 -2.89969954848706 L-2.5114652591999542 -2.968377058534125 L-2.5694021104124776 -3.037852257501656 L-2.63767660847949 -3.10735997587665 L-2.71638086394175 -3.176168151060499 L-2.7925538167328425 -3.2359205984002193 L-2.8150694083451366 -3.2739768020252313 L-2.8548839119040648 -3.3539881775061966 L-2.8984743630594934 -3.4637721497793224 L-2.9413344215333104 -3.605043215067374 L-2.960785576552586 -3.6870136046505406 L-2.9783945846414523 -3.7779467781029514 L-2.9933809553980457 -3.8776838809862113 L-3.0049184209614985 -3.9852182944935723 L-3.012250385524208 -4.097500155876661 L-3.015161935119132 -4.220510653310646 L-3.0127617663520097 -4.35014699771255 L-3.0045015746867905 -4.486875946123828 L-2.9914314905897244 -4.615286796276093 A5.5 5.5 0 0 1 -2.5012398660311312 -4.898299062669497 L-2.38349776562918 -4.845412662451023 L-2.2609569270396714 -4.784201724067593 L-2.147488475150312 -4.721462158992337 L-2.0424140342377832 -4.657435434361763 L-1.94884107217718 -4.594944836099265 L-1.861482271080471 -4.531185891072346 L-1.7826005916620027 -4.468338761844974 L-1.7126546574499115 -4.407622326778365 L-1.6513917952224197 -4.34979193760714 L-1.5504774931001855 -4.242038505517102 L-1.4771970097610068 -4.149396081317514 L-1.4278123777822194 -4.074910022055933 L-1.4061125344775123 -4.036382845925944 L-1.3924518735385694 -3.940538910057726 L-1.3722143735724357 -3.837974937849544 L-1.3461561727341025 -3.7440936289053823 L-1.3149573111015038 -3.6591812444562923 L-1.2793534442542018 -3.5834939306876064 L-1.2400321530527538 -3.51724553932411 L-1.1977412724915455 -3.460588526330505 L-1.1532118435603251 -3.4136376918431455 L-1.107191130440349 -3.376484666879775 L-1.060404393862905 -3.349153882397201 L-1.0135994928647662 -3.3316251675967825 L-0.9675074924780678 -3.323840695851533 L-0.9120248359700345 -3.3276429224112722 L-0.8024093455374832 -3.3553991317567737 L-0.599086212950911 -3.397586747892118 L-0.3935959511070555 -3.4274839632698697 L-0.28109790092523324 -3.4388923639153677 L-0.22766081995011628 -3.454295625805591 L-0.18701095345149948 -3.4773750290397443 L-0.14902390691528722 -3.509854851937285 L-0.114406434628742 -3.5515393947858076 L-0.08386819302954929 -3.6021918290810055 L-0.0580823483956977 -3.6615411434537837 L-0.03771975971026931 -3.7292456535105596 L-0.023428116837732715 -3.804947451666243 L-0.015858011792979854 -3.8882475015438476 L-0.015582417639308233 -3.9787096817511722 L-0.023205017341252798 -4.075841684581259 L-0.03926693243461454 -4.179141925062749 L-0.05921066683777576 -4.273877985557451 L-0.05199655451404417 -4.317503472183741 L-0.031065912927759953 -4.404388011330742 L0.0061096413109104075 -4.516506815137453 L0.06408422205966602 -4.652276644212273 L0.10187332363014201 -4.727572567093238 L0.1468347580395153 -4.8085502715300255 L0.19946430595829712 -4.894586378403038 L0.2597478831931782 -4.984378658225784 L0.3263046617723603 -5.075104450176926 L0.4031439089962465 -5.171207466186135 L0.48831118088944947 -5.268971868696809 L0.5825265287379278 -5.368402770984732 L0.6750796974587737 -5.458369901064903 A5.5 5.5 0 0 1 1.2325050457423374 -5.360080772431698 L1.2887060046950503 -5.243884276150927 L1.3432321003815275 -5.118226244218267 L1.3898257623531882 -4.997228834063874 L1.4291618686467191 -4.8806409687361985 L1.460674733974394 -4.7726228525758065 L1.4866119982420756 -4.6676275120967725 L1.5066415144527623 -4.568779651824706 L1.5211954365095468 -4.477307784276455 L1.5309528540658661 -4.393628127234664 L1.5389951233891568 -4.246217746310756 L1.5355818280333877 -4.128145745333325 L1.5255339349484922 -4.0393422840012665 L1.5173921878760477 -3.9958803644094174 L1.4662495668379756 -3.9136787463392353 L1.4158255406939986 -3.8221017711356855 L1.3754415384734213 -3.733434627476671 L1.3447606244258965 -3.6483337255237043 L1.3233839012768513 -3.5674681549302245 L1.3109221127678639 -3.49144370407948 L1.3069003808622468 -3.420857860084531 L1.3108324877773516 -3.3562684690422846 L1.3222048952224528 -3.298226056541574 L1.3404777251608635 -3.2472155263929676 L1.3650651187937837 -3.2037021413908806 L1.3953698775764503 -3.1681115233135784 L1.4403160824057297 -3.135360633685288 L1.5421277671905012 -3.086163644536699 L1.7249999999999992 -2.987787643056314 L1.9016322328094972 -2.878603644536699 L1.9951439175942685 -2.815030633685288 L2.045980122423548 -2.7924815233135782 L2.0919548812062145 -2.7840321413908806 L2.1419322748391347 -2.7844955263929676 L2.1952451047775456 -2.7941760565415747 L2.251197512222647 -2.813348469042285 L2.309099619137751 -2.842237860084531 L2.3682178872321336 -2.88101370407948 L2.4278260987231466 -2.9298181549302247 L2.4871693755741013 -2.9887637255237047 L2.5455284615265765 -3.0578846274766716 L2.6021244593059984 -3.137191771135686 L2.6562204331620216 -3.2266487463392353 L2.7018378121239492 -3.3120403644094174 L2.735406065051505 -3.3408222840012667 L2.807288171966609 -3.3939257453333256 L2.907834876610841 -3.4559177463107567 L3.0395171459341315 -3.5226581272346644 L3.116864563490451 -3.5560477842764553 L3.203358485547235 -3.5891796518247068 L3.2989780017579218 -3.621257512096773 L3.402875266025603 -3.6512928525758075 L3.5121781313532785 -3.6780109687361993 L3.632814237646809 -3.702238834063874 L3.7608978996184694 -3.722386244218267 L3.8969839953049474 -3.7379942761509275 L4.025713592391195 -3.7474210661212175 A5.5 5.5 0 0 1 4.389547148845171 -3.313821118110863 L4.3579099130505865 -3.188684157757778 L4.318907899672277 -3.057375821950647 L4.276825079458828 -2.9347365996647796 L4.232017049826492 -2.820140351556616 L4.186724598507933 -2.7171375945374177 L4.139103991735156 -2.6200343453096373 L4.090909311499804 -2.531437766385775 L4.043261279522086 -2.4520111697782765 L3.996947648291014 -2.381636886391571 L3.9083548176191254 -2.263544512151986 L3.8298448623999257 -2.1752901358781758 L3.765065965095662 -2.1137213989734467 L3.730892241586703 -2.085661051122196 L3.6388765393422497 -2.0555648015143113 L3.541384949321557 -2.017824707777846 L3.4534548674992678 -1.975860071347567 L3.375250118434835 -1.9303903097056905 L3.306895211626695 -1.8821843814888157 L3.2484813527479792 -1.831956556621542 L3.2000288214307466 -1.7804697825047597 L3.161523729803658 -1.7284639288074164 L3.1329265557400907 -1.67669081864801 L3.1141354188314017 -1.6258689368087968 L3.105000590359818 -1.576731278044925 L3.105338174104165 -1.5299877593796 L3.1187170984936454 -1.4760082588059513 L3.1650861588090042 -1.3728778891495275 L3.241939541711384 -1.1799694944735566 L3.307065560706356 -0.9827926884088811 L3.337835723516668 -0.8739847843732511 L3.3622842269790065 -0.8240342810879786 L3.3920717774587845 -0.7880096737144805 L3.4306545402707087 -0.7562397978286857 L3.477717062226697 -0.7293866876337357 L3.5329028822324013 -0.7081080934532458 L3.5958282120929437 -0.6930198940264751 L3.6660400649285547 -0.6847234236088581 L3.74307350040992 -0.6837943822005466 L3.826422570301457 -0.6908041859221673 L3.915558283146579 -0.7062413714037262 L4.009890982051924 -0.7306149619728932 L4.108832737480318 -0.7643707589972262 L4.1986663512103535 -0.8004622475257247 L4.242881786127354 -0.8009332200307012 L4.332080921665071 -0.7954079038113164 L4.4489518561596775 -0.7782663557377795 L4.592726216755729 -0.7447487225397658 L4.673440234002496 -0.7206087221278243 L4.760995176303453 -0.6903919837420229 L4.854863226478515 -0.6535020100861352 L4.953759493138676 -0.6097265416056927 L5.054664419761989 -0.5599352784851019 L5.162650410269443 -0.5009515056816922 L5.273718693391679 -0.43405472635504205 L5.387999340315969 -0.3585367163271944 L5.492671356620853 -0.28301226639340404 A5.5 5.5 0 0 1 5.492671356620854 0.2830122663934016 L5.387999340315969 0.3585367163271924 L5.27371869339168 0.43405472635504005 L5.162650410269443 0.5009515056816902 L5.05466441976199 0.5599352784850999 L4.953759493138677 0.6097265416056905 L4.854863226478516 0.6535020100861331 L4.760995176303454 0.690391983742021 L4.673440234002497 0.7206087221278225 L4.592726216755729 0.7447487225397639 L4.4489518561596775 0.7782663557377776 L4.33208092166507 0.7954079038113145 L4.242881786127355 0.8009332200306996 L4.1986663512103535 0.800462247525723 L4.108832737480318 0.7643707589972243 L4.009890982051925 0.7306149619728917 L3.915558283146579 0.7062413714037246 L3.826422570301457 0.690804185922166 L3.7430735004099205 0.683794382200545 L3.666040064928555 0.6847234236088564 L3.5958282120929432 0.6930198940264737 L3.532902882232402 0.7081080934532443 L3.4777170622266973 0.7293866876337343 L3.4306545402707087 0.7562397978286843 L3.392071777458785 0.788009673714479 L3.362284226979007 0.8240342810879772 L3.3378357235166685 0.8739847843732498 L3.307065560706356 0.9827926884088798 L3.2419395417113845 1.1799694944735553 L3.165086158809005 1.3728778891495261 L3.118717098493646 1.47600825880595 L3.1053381741041655 1.529987759379599 L3.1050005903598183 1.5767312780449236 L3.1141354188314025 1.6258689368087955 L3.132926555740091 1.6766908186480087 L3.1615237298036583 1.728463928807415 L3.200028821430747 1.7804697825047584 L3.2484813527479797 1.8319565566215408 L3.3068952116266956 1.8821843814888142 L3.375250118434835 1.9303903097056891 L3.4534548674992687 1.9758600713475656 L3.5413849493215577 2.017824707777845 L3.6388765393422506 2.05556480151431 L3.7308922415867034 2.0856610511221945 L3.7650659650956633 2.1137213989734454 L3.829844862399926 2.175290135878174 L3.9083548176191267 2.2635445121519844 L3.9969476482910142 2.3816368863915693 L4.043261279522087 2.4520111697782747 L4.0909093114998045 2.531437766385773 L4.139103991735157 2.6200343453096355 L4.186724598507934 2.717137594537416 L4.232017049826493 2.8201403515566144 L4.276825079458829 2.9347365996647774 L4.318907899672278 3.057375821950645 L4.357909913050588 3.188684157757776 L4.389547148845172 3.3138211181108614 A5.5 5.5 0 0 1 4.025713592391199 3.7474210661212135 L3.89698399530495 3.737994276150924 L3.7608978996184725 3.7223862442182645 L3.632814237646812 3.702238834063871 L3.5121781313532816 3.6780109687361966 L3.4028752660256063 3.6512928525758053 L3.298978001757925 3.6212575120967694 L3.203358485547238 3.589179651824704 L3.116864563490454 3.5560477842764517 L3.0395171459341346 3.5226581272346618 L2.9078348766108437 3.455917746310754 L2.807288171966612 3.3939257453333234 L2.7354060650515075 3.3408222840012645 L2.701837812123952 3.312040364409415 L2.6562204331620243 3.226648746339233 L2.6021244593060016 3.137191771135684 L2.545528461526579 3.0578846274766693 L2.4871693755741036 2.9887637255237025 L2.427826098723149 2.9298181549302225 L2.368217887232136 2.881013704079478 L2.3090996191377533 2.842237860084529 L2.2511975122226486 2.8133484690422828 L2.195245104777548 2.794176056541573 L2.141932274839137 2.784495526392966 L2.0919548812062168 2.7840321413908793 L2.04598012242355 2.792481523313577 L1.9951439175942707 2.8150306336852866 L1.9016322328094997 2.878603644536698 L1.7250000000000016 2.9877876430563126 L1.5421277671905036 3.086163644536698 L1.4403160824057324 3.135360633685287 L1.395369877576453 3.168111523313577 L1.3650651187937863 3.2037021413908793 L1.3404777251608662 3.247215526392966 L1.3222048952224554 3.2982260565415733 L1.3108324877773543 3.3562684690422833 L1.30690038086225 3.4208578600845296 L1.3109221127678667 3.491443704079479 L1.3233839012768547 3.567468154930223 L1.3447606244258998 3.648333725523703 L1.3754415384734244 3.7334346274766697 L1.415825540694002 3.822101771135684 L1.4662495668379791 3.913678746339234 L1.5173921878760512 3.995880364409416 L1.5255339349484958 4.039342284001265 L1.5355818280333913 4.128145745333324 L1.5389951233891601 4.246217746310755 L1.5309528540658701 4.3936281272346625 L1.5211954365095508 4.477307784276452 L1.5066415144527663 4.5687796518247055 L1.4866119982420796 4.667627512096771 L1.4606747339743982 4.772622852575806 L1.4291618686467231 4.880640968736198 L1.3898257623531922 4.997228834063872 L1.3432321003815315 5.118226244218266 L1.2887060046950545 5.243884276150925 L1.2325050457423417 5.360080772431696 A5.5 5.5 0 0 1 0.6750796974587782 5.458369901064902 L0.5825265287379322 5.368402770984731 L0.4883111808894536 5.268971868696808 L0.4031439089962505 5.171207466186135 L0.3263046617723645 5.075104450176925 L0.2597478831931823 4.984378658225783 L0.199464305958301 4.894586378403039 L0.14683475803951918 4.8085502715300255 L0.10187332363014578 4.7275725670932385 L0.0640842220596698 4.6522766442122725 L0.006109641310914071 4.516506815137452 L-0.0310659129277564 4.404388011330741 L-0.05199655451404073 4.317503472183742 L-0.05921066683777221 4.273877985557452 L-0.03926693243461121 4.179141925062749 L-0.02320501734124958 4.075841684581259 L-0.015582417639305013 3.9787096817511722 L-0.015858011792976634 3.8882475015438476 L-0.023428116837729496 3.804947451666243 L-0.03771975971026631 3.7292456535105596 L-0.058082348395694705 3.6615411434537837 L-0.08386819302954629 3.6021918290810055 L-0.11440643462873917 3.5515393947858076 L-0.1490239069152844 3.509854851937285 L-0.1870109534514967 3.4773750290397443 L-0.22766081995011345 3.4542956258055915 L-0.28109790092523046 3.438892363915368 L-0.3935959511070527 3.42748396326987 L-0.5990862129509082 3.397586747892118 L-0.8024093455374804 3.355399131756774 L-0.9120248359700317 3.3276429224112727 L-0.967507492478065 3.3238406958515334 L-1.0135994928647634 3.3316251675967834 L-1.0604043938629024 3.349153882397202 L-1.1071911304403461 3.376484666879776 L-1.1532118435603222 3.4136376918431464 L-1.1977412724915424 3.460588526330506 L-1.2400321530527507 3.517245539324111 L-1.2793534442541987 3.5834939306876072 L-1.3149573111015007 3.6591812444562932 L-1.3461561727340996 3.744093628905383 L-1.3722143735724326 3.8379749378495447 L-1.3924518735385658 3.9405389100577266 L-1.4061125344775092 4.036382845925945 L-1.427812377782216 4.074910022055934 L-1.4771970097610032 4.149396081317515 L-1.5504774931001821 4.242038505517103 L-1.6513917952224162 4.349791937607141 L-1.712654657449908 4.407622326778366 L-1.782600591661999 4.468338761844976 L-1.8614822710804673 4.531185891072347 L-1.9488410721771763 4.594944836099266 L-2.0424140342377797 4.657435434361766 L-2.1474884751503085 4.721462158992339 L-2.2609569270396674 4.784201724067594 L-2.383497765629176 4.845412662451024 L-2.5012398660311272 4.8982990626694995 A5.5 5.5 0 0 1 -2.9914314905897244 4.615286796276093 Z" id="SvgjsPath1422">
        </path>
      </g>
    </g>
  </g>
</svg>
