<?xml version="1.1" encoding="UTF-8"?>
<svg viewBox="-11.9 -11.9 41.8 23.8" height="23.8mm" width="41.8mm" xmlns:svgjs="http://svgjs.com/svgjs" xmlns:xlink="http://www.w3.org/1999/xlink" version="1.1" xmlns="http://www.w3.org/2000/svg" id="SvgjsSvg1435">
  <defs id="SvgjsDefs1436">
  </defs>
  <defs id="SvgjsDefs1436">
  </defs>
  <g id="SvgjsG1437">
    <g transform="matrix(1,0,0,1,18,0)" id="SvgjsG1438">
      <g fill="none" stroke-width="0.04" stroke="blue" id="SvgjsG1439">
        <circle cy="0" cx="0" r="9" id="SvgjsCircle1440">
        </circle>
        <circle cy="0" cx="0" r="10" id="SvgjsCircle1441">
        </circle>
      </g>
      <g fill="none" stroke-width="0.1" stroke="black" id="SvgjsG1442">
        <circle cy="0" cx="0" r="2" id="SvgjsCircle1443">
        </circle>
        <path d="M-8.72601225376139 4.534676411664458  L-8.615589589792373 4.3649009214369645 L-8.506716905507298 4.211918288708402 L-8.400510154689034 4.075176927443321 L-8.298990609172233 3.9551464759817785 L-8.200647090288879 3.8483184960624737 L-8.110065713064353 3.7578520459270344 L-8.026432226171533 3.6810137952302058 L-7.949694116896755 3.6162522149149283 L-7.8844463441119235 3.5657079714581417 L-7.782602654984698 3.4960973437856575 L-7.725612055782221 3.463595297657102 L-7.600824359536762 3.4005641484866262 L-7.512034903537305 3.3437394152860147 L-7.441223941562351 3.2860835668039967 L-7.388292806339079 3.2290079728607375 L-7.368473093321133 3.2011278549290245 L-7.353038600728298 3.1739179920406944 L-7.341953399190058 3.147535575417939 L-7.335171298731599 3.1221659870615754 L-7.332643552854761 3.097972394918569 L-7.334321415061389 3.0751179669358875 L-7.342240561816754 3.048682203003915 L-7.470556335247971 2.719060139439067 L-7.584137728385266 2.384075200026873 L-7.595063891527145 2.358733900553543 L-7.608469117641181 2.3401478839595655 L-7.625956824587083 2.323239320869396 L-7.647459472014279 2.308164538827134 L-7.672909519572197 2.2950798653768816 L-7.702223189581187 2.28415700171372 L-7.7353269649659016 2.275539458254108 L-7.812562051573895 2.2658404945643205 L-7.903866860536924 2.267189961208847 L-8.008409764337962 2.2807324522960593 L-8.1445183273275 2.312659775718521 L-8.209067571697474 2.3243946149277086 L-8.331829212790497 2.336533641912926 L-8.41430111999321 2.3397549649869345 L-8.514713863588991 2.3394710220914114 L-8.62817150697981 2.334368076255709 L-8.755711580892108 2.323291341789023 L-8.899714788909439 2.304670356833409 L-9.05463735960511 2.2779772024854403 L-9.223892103644028 2.2414956260348466 L-9.405628759263204 2.1942861428311797 L-9.599347008937752 2.1352088921924723 L-9.783195418315326 2.0709255158358757 A10 10 0 0 1 -9.901494784040391 1.4000164737270122 L-9.75072 1.2767300000000006 L-9.58889 1.1549600000000007 L-9.43426 1.0484400000000007 L-9.28769 0.9562700000000005 L-9.15124 0.8782000000000005 L-9.02229 0.8114500000000006 L-8.90623 0.7574200000000005 L-8.80136 0.7138200000000006 L-8.7071 0.6792100000000005 L-8.6285 0.6540300000000006 L-8.50899 0.6234500000000005 L-8.44432 0.6124000000000006 L-8.3055 0.5958500000000005 L-8.20263 0.5728200000000006 L-8.11637 0.5428600000000005 L-8.04711 0.5073300000000004 L-8.01895 0.4879100000000005 L-7.99514 0.4676200000000005 L-7.9757 0.4466200000000005 L-7.96065 0.4251000000000005 L-7.95 0.4032300000000005 L-7.94376 0.3811800000000005 L-7.94216 0.3536300000000005 L-7.95 4.867971026610729e-16 L-7.94216 -0.3536299999999995 L-7.94376 -0.3811799999999995 L-7.95 -0.4032299999999995 L-7.96065 -0.4250999999999995 L-7.9757 -0.4466199999999995 L-7.99514 -0.4676199999999995 L-8.01895 -0.4879099999999995 L-8.04711 -0.5073299999999995 L-8.11637 -0.5428599999999996 L-8.20263 -0.5728199999999994 L-8.3055 -0.5958499999999994 L-8.44432 -0.6123999999999995 L-8.50899 -0.6234499999999994 L-8.6285 -0.6540299999999994 L-8.7071 -0.6792099999999994 L-8.80136 -0.7138199999999995 L-8.90623 -0.7574199999999994 L-9.02229 -0.8114499999999994 L-9.15124 -0.8781999999999994 L-9.28769 -0.9562699999999994 L-9.43426 -1.0484399999999994 L-9.58889 -1.1549599999999993 L-9.75072 -1.2767299999999993 L-9.901494784040391 -1.4000164737270109 A10 10 0 0 1 -9.783195418315328 -2.0709255158358744 L-9.599347008937754 -2.1352088921924715 L-9.405628759263202 -2.1942861428311784 L-9.22389210364403 -2.2414956260348458 L-9.054637359605112 -2.2779772024854394 L-8.899714788909439 -2.3046703568334075 L-8.755711580892108 -2.323291341789022 L-8.62817150697981 -2.334368076255708 L-8.514713863588993 -2.3394710220914106 L-8.41430111999321 -2.339754964986933 L-8.331829212790499 -2.336533641912925 L-8.209067571697476 -2.3243946149277077 L-8.144518327327502 -2.31265977571852 L-8.008409764337962 -2.280732452296058 L-7.903866860536925 -2.267189961208846 L-7.812562051573896 -2.2658404945643196 L-7.735326964965902 -2.275539458254107 L-7.702223189581188 -2.2841570017137185 L-7.6729095195721975 -2.2950798653768807 L-7.64745947201428 -2.3081645388271332 L-7.6259568245870835 -2.323239320869395 L-7.608469117641182 -2.3401478839595646 L-7.595063891527146 -2.3587339005535415 L-7.584137728385267 -2.384075200026872 L-7.470556335247972 -2.7190601394390663 L-7.342240561816755 -3.048682203003914 L-7.33432141506139 -3.075117966935887 L-7.332643552854762 -3.097972394918568 L-7.3351712987316 -3.1221659870615746 L-7.341953399190059 -3.147535575417938 L-7.353038600728299 -3.1739179920406935 L-7.368473093321134 -3.201127854929024 L-7.38829280633908 -3.229007972860737 L-7.441223941562352 -3.286083566803996 L-7.512034903537306 -3.343739415286014 L-7.600824359536763 -3.400564148486625 L-7.725612055782222 -3.463595297657101 L-7.782602654984699 -3.4960973437856566 L-7.884446344111925 -3.5657079714581403 L-7.949694116896755 -3.616252214914927 L-8.026432226171535 -3.681013795230205 L-8.110065713064353 -3.7578520459270335 L-8.200647090288879 -3.848318496062473 L-8.298990609172233 -3.955146475981777 L-8.400510154689036 -4.075176927443321 L-8.5067169055073 -4.211918288708401 L-8.615589589792375 -4.3649009214369645 L-8.726012253761391 -4.534676411664457 L-8.825527748310508 -4.702095814515837 A10 10 0 0 1 -8.48489830055445 -5.292083324583456 L-8.290151097324175 -5.28961007965944 L-8.087909877862701 -5.278868992622465 L-7.900986689439406 -5.26107379861767 L-7.729461821426647 -5.237466734988189 L-7.574752628474835 -5.20956345532076 L-7.433065124588066 -5.177809459629872 L-7.309428191968315 -5.144596910911372 L-7.201067571436094 -5.110587312003531 L-7.106613343056448 -5.076510950090826 L-7.03021685781539 -5.0452768430472 L-6.919010441314025 -4.99188293488414 L-6.8623675440904846 -4.958778651262175 L-6.745387119556397 -4.88222491081911 L-6.651780729041666 -4.833743352935685 L-6.566443818592014 -4.801247185239969 L-6.490549336689431 -4.783945274457097 L-6.456494589791088 -4.780720958453695 L-6.4252129109998855 -4.7809592272179415 L-6.3968224672222345 -4.784550369391134 L-6.37146070899284 -4.7913616922812725 L-6.349244570649779 -4.801269396209123 L-6.330290986531128 -4.814149681495452 L-6.311356516775273 -4.834225745727881 L-6.0900533227958755 -5.110161497007988 L-5.8567385519483715 -5.37601833856821 L-5.840255424410498 -5.3981513231516365 L-5.830862074941972 -5.419053597806854 L-5.824962683237345 -5.442652677821027 L-5.822658862745831 -5.4688119077627295 L-5.824052226916647 -5.497394632200535 L-5.829249584506769 -5.528242446938056 L-5.838338460644887 -5.561219929112199 L-5.868556455003145 -5.632956958023106 L-5.915377531880378 -5.711354508750511 L-5.979377125092948 -5.7951200736839965 L-6.075081279746411 -5.8970298851943 L-6.11751857079588 -5.947063751009194 L-6.189412097088814 -6.047308937313411 L-6.23343779830606 -6.117121042512508 L-6.283398268343203 -6.20422300077791 L-6.335707809310757 -6.305031675125725 L-6.389885112827781 -6.421022986367662 L-6.445760470821398 -6.555043915214933 L-6.500104806396753 -6.70255737423096 L-6.553138206439894 -6.867377070504992 L-6.603121922495571 -7.0483703726718545 L-6.648818647493985 -7.2456739233860255 L-6.685071815216924 -7.437033004530664 A10 10 0 0 1 -6.1631972239845005 -7.874937781554585 L-5.981040613773709 -7.806006225189 L-5.794669700354878 -7.7267423340945625 L-5.62510567434376 -7.646088825907376 L-5.471999112876947 -7.565240482474691 L-5.336163509603496 -7.4861063161283035 L-5.2138813139008855 -7.407807340310301 L-5.109059961334412 -7.33431143194708 L-5.018866253729411 -7.265291347852206 L-4.941763114504432 -7.200964793291484 L-4.88065659483714 -7.145485196554028 L-4.7944185379894115 -7.05727650054775 L-4.752513957277593 -7.006795637685008 L-4.668771236844961 -6.894848991131654 L-4.597391671795805 -6.817275957844348 L-4.528315550698423 -6.757552606513903 L-4.462915668101962 -6.715336687047793 L-4.4320174547604685 -6.700659411677223 L-4.4025407993176815 -6.6901843468131155 L-4.374634265838209 -6.683848812963546 L-4.3484723991487675 -6.68157513063659 L-4.3242074235680015 -6.683286960086286 L-4.301991563414555 -6.688907961566671 L-4.277332563540294 -6.701297320920616 L-3.9750000000000028 -6.884901960086286 L-3.6648274364597118 -7.0549273209206165 L-3.6417684365854504 -7.070087961566672 L-3.6257925764320036 -7.0865169600862865 L-3.612177600851238 -7.1066751306365905 L-3.6010657341617964 -7.130468812963547 L-3.5925992006823235 -7.157804346813116 L-3.5869325452395375 -7.188569411677224 L-3.5841943318980434 -7.222666687047792 L-3.5880544493015822 -7.300412606513904 L-3.6052383282042 -7.390095957844348 L-3.636728763155045 -7.490698991131654 L-3.691806042722412 -7.619195637685009 L-3.714571462010595 -7.68072650054775 L-3.747843405162867 -7.799515196554029 L-3.765336885495574 -7.880174793291485 L-3.782493746270595 -7.979111347852206 L-3.7971700386655938 -8.09173143194708 L-3.8084086860991198 -8.219257340310302 L-3.8150764903965086 -8.364306316128305 L-3.8156908871230577 -8.52151048247469 L-3.809154325656247 -8.694528825907376 L-3.7942202996451284 -8.881702334094562 L-3.769679386226297 -9.082736225189 L-3.7382975600558983 -9.274954255281598 A10 10 0 0 1 -3.0981236030984025 -9.507958520366538 L-2.9505283614437667 -9.380882815578495 L-2.8025068367676305 -9.242656515503032 L-2.670753897204133 -9.108872696539837 L-2.5545325532083556 -8.980534576716398 L-2.45395431808804 -8.85971427204834 L-2.3658264680643244 -8.744314328156683 L-2.292463697669051 -8.639399751381431 L-2.231315595245788 -8.54369402286932 L-2.1808633216871502 -8.45687600749944 L-2.1424171157016825 -8.383842579226336 L-2.091549000901594 -8.271458365936901 L-2.069437047581089 -8.209689660912819 L-2.0290326392450133 -8.075852525980054 L-1.988489328656545 -7.978544469959356 L-1.9440055965707503 -7.898797452587425 L-1.8969885043210146 -7.836759387366305 L-1.872973605074417 -7.812399448651774 L-1.8488572926555495 -7.792474497577415 L-1.8248006092684481 -7.776976446589862 L-1.8009941413497381 -7.765891998690422 L-1.7776070426992083 -7.759201481766417 L-1.7548084671166475 -7.756885223705177 L-1.7273991764368941 -7.760093538595082 L-1.3805030124520956 -7.829221636447054 L-1.0308840450414798 -7.882907948731796 L-1.0040304285302606 -7.889267648431338 L-0.983398982204983 -7.89924179112769 L-0.9637105897387588 -7.913527679342846 L-0.9451309319678234 -7.932085944809072 L-0.9278256897284123 -7.954877219258635 L-0.9119785035300441 -7.981848813382718 L-0.8977434696496478 -8.012953247317833 L-0.8747801229703357 -8.087330752043965 L-0.8602541744956391 -8.177482768221697 L-0.8554372399803654 -8.282789059305735 L-0.8632445116917362 -8.422373948919276 L-0.8635922136706722 -8.487980278669795 L-0.8542294862965335 -8.61098481450534 L-0.8430807738403069 -8.692763165005752 L-0.8253646547354393 -8.791601107233737 L-0.8006375210960379 -8.902448956838404 L-0.7675819657008123 -9.026127955692345 L-0.7242379806973979 -9.164709931302536 L-0.6710483332623876 -9.312643662431508 L-0.6057302160678941 -9.47299208732607 L-0.527679711929671 -9.64376991405943 L-0.4358611564372141 -9.824286491323896 L-0.3406294477560561 -9.994179139099293 A10 10 0 0 1 0.3406294477560534 -9.994179139099295 L0.43586115643721146 -9.824286491323896 L0.5276797119296688 -9.643769914059428 L0.6057302160678917 -9.472992087326071 L0.671048333262385 -9.31264366243151 L0.7242379806973955 -9.164709931302538 L0.7675819657008097 -9.026127955692345 L0.8006375210960356 -8.902448956838406 L0.8253646547354371 -8.791601107233738 L0.8430807738403048 -8.692763165005754 L0.8542294862965315 -8.61098481450534 L0.8635922136706699 -8.487980278669797 L0.8632445116917342 -8.422373948919278 L0.8554372399803633 -8.282789059305735 L0.860254174495637 -8.177482768221699 L0.8747801229703335 -8.087330752043966 L0.8977434696496457 -8.012953247317833 L0.9119785035300421 -7.981848813382719 L0.9278256897284102 -7.954877219258636 L0.9451309319678214 -7.932085944809073 L0.9637105897387568 -7.913527679342847 L0.9833989822049811 -7.89924179112769 L1.0040304285302586 -7.889267648431339 L1.0308840450414778 -7.882907948731796 L1.3805030124520938 -7.829221636447055 L1.7273991764368921 -7.7600935385950836 L1.7548084671166455 -7.7568852237051775 L1.7776070426992066 -7.759201481766419 L1.8009941413497361 -7.765891998690423 L1.8248006092684461 -7.776976446589863 L1.8488572926555475 -7.792474497577416 L1.872973605074415 -7.8123994486517745 L1.8969885043210128 -7.836759387366307 L1.9440055965707481 -7.898797452587426 L1.9884893286565433 -7.978544469959358 L2.0290326392450115 -8.075852525980054 L2.069437047581087 -8.20968966091282 L2.0915490009015922 -8.271458365936903 L2.1424171157016803 -8.383842579226336 L2.1808633216871485 -8.456876007499442 L2.231315595245786 -8.543694022869321 L2.292463697669049 -8.639399751381433 L2.365826468064322 -8.744314328156683 L2.453954318088038 -8.859714272048341 L2.5545325532083534 -8.9805345767164 L2.670753897204131 -9.108872696539839 L2.8025068367676287 -9.242656515503034 L2.950528361443764 -9.380882815578499 L3.0981236030984003 -9.50795852036654 A10 10 0 0 1 3.7382975600558916 -9.2749542552816 L3.7696793862262905 -9.082736225189002 L3.7942202996451213 -8.881702334094566 L3.80915432565624 -8.69452882590738 L3.815690887123052 -8.521510482474694 L3.815076490396503 -8.364306316128307 L3.8084086860991144 -8.219257340310305 L3.797170038665588 -8.091731431947082 L3.7824937462705894 -7.979111347852209 L3.765336885495569 -7.880174793291487 L3.747843405162861 -7.799515196554031 L3.714571462010589 -7.6807265005477525 L3.6918060427224066 -7.619195637685012 L3.63672876315504 -7.490698991131657 L3.605238328204195 -7.390095957844351 L3.588054449301577 -7.3004126065139054 L3.584194331898038 -7.222666687047795 L3.5869325452395318 -7.188569411677226 L3.5925992006823186 -7.157804346813118 L3.6010657341617915 -7.1304688129635485 L3.6121776008512327 -7.106675130636593 L3.6257925764319987 -7.086516960086289 L3.6417684365854455 -7.070087961566674 L3.664827436459707 -7.054927320920618 L3.974999999999998 -6.884901960086289 L4.2773325635402895 -6.701297320920619 L4.30199156341455 -6.688907961566674 L4.324207423567997 -6.6832869600862885 L4.348472399148763 -6.681575130636593 L4.374634265838203 -6.683848812963549 L4.402540799317677 -6.690184346813118 L4.432017454760463 -6.7006594116772265 L4.462915668101957 -6.715336687047795 L4.528315550698418 -6.757552606513906 L4.597391671795799 -6.817275957844351 L4.668771236844956 -6.894848991131656 L4.752513957277587 -7.006795637685013 L4.794418537989406 -7.0572765005477525 L4.880656594837134 -7.145485196554031 L4.941763114504426 -7.2009647932914875 L5.0188662537294055 -7.265291347852209 L5.109059961334407 -7.334311431947083 L5.21388131390088 -7.407807340310305 L5.336163509603491 -7.486106316128308 L5.471999112876943 -7.565240482474694 L5.625105674343755 -7.6460888259073805 L5.794669700354873 -7.726742334094567 L5.981040613773704 -7.806006225189003 L6.163197223984494 -7.874937781554589 A10 10 0 0 1 6.685071815216922 -7.437033004530665 L6.648818647493984 -7.245673923386026 L6.6031219224955695 -7.048370372671855 L6.553138206439892 -6.867377070504993 L6.500104806396752 -6.70255737423096 L6.445760470821396 -6.555043915214934 L6.3898851128277805 -6.421022986367662 L6.335707809310756 -6.305031675125726 L6.283398268343202 -6.20422300077791 L6.233437798306059 -6.117121042512509 L6.189412097088813 -6.047308937313412 L6.117518570795879 -5.947063751009195 L6.07508127974641 -5.897029885194301 L5.979377125092947 -5.795120073683997 L5.915377531880377 -5.711354508750512 L5.868556455003144 -5.632956958023107 L5.838338460644886 -5.5612199291122 L5.829249584506768 -5.528242446938057 L5.8240522269166455 -5.497394632200535 L5.822658862745829 -5.46881190776273 L5.824962683237344 -5.442652677821028 L5.8308620749419715 -5.419053597806855 L5.840255424410497 -5.398151323151637 L5.856738551948371 -5.376018338568211 L6.090053322795875 -5.110161497007989 L6.311356516775272 -4.834225745727882 L6.330290986531127 -4.8141496814954525 L6.349244570649778 -4.801269396209124 L6.3714607089928395 -4.791361692281273 L6.3968224672222345 -4.784550369391135 L6.4252129109998855 -4.780959227217943 L6.456494589791087 -4.780720958453696 L6.49054933668943 -4.783945274457098 L6.566443818592013 -4.80124718523997 L6.651780729041665 -4.833743352935686 L6.745387119556396 -4.882224910819111 L6.862367544090484 -4.958778651262176 L6.919010441314025 -4.991882934884141 L7.030216857815389 -5.045276843047201 L7.1066133430564475 -5.076510950090827 L7.201067571436093 -5.110587312003533 L7.309428191968314 -5.144596910911373 L7.433065124588065 -5.177809459629874 L7.574752628474833 -5.209563455320761 L7.729461821426646 -5.237466734988191 L7.900986689439404 -5.261073798617671 L8.087909877862701 -5.278868992622466 L8.290151097324175 -5.2896100796594405 L8.48489830055445 -5.292083324583459 A10 10 0 0 1 8.825527748310508 -4.702095814515836 L8.726012253761391 -4.534676411664456 L8.615589589792375 -4.364900921436963 L8.5067169055073 -4.211918288708399 L8.400510154689037 -4.075176927443319 L8.298990609172233 -3.955146475981776 L8.200647090288879 -3.8483184960624714 L8.110065713064353 -3.757852045927032 L8.026432226171535 -3.6810137952302036 L7.949694116896756 -3.6162522149149257 L7.884446344111925 -3.565707971458139 L7.782602654984699 -3.4960973437856553 L7.725612055782222 -3.4635952976570996 L7.600824359536763 -3.4005641484866236 L7.512034903537306 -3.343739415286012 L7.441223941562352 -3.2860835668039945 L7.38829280633908 -3.2290079728607353 L7.368473093321134 -3.2011278549290223 L7.353038600728299 -3.173917992040692 L7.341953399190059 -3.147535575417937 L7.3351712987316 -3.1221659870615732 L7.332643552854763 -3.0979723949185667 L7.33432141506139 -3.0751179669358857 L7.342240561816755 -3.0486822030039127 L7.470556335247972 -2.719060139439065 L7.584137728385267 -2.384075200026871 L7.595063891527146 -2.35873390055354 L7.608469117641181 -2.3401478839595633 L7.6259568245870835 -2.3232393208693938 L7.64745947201428 -2.308164538827132 L7.6729095195721975 -2.2950798653768794 L7.702223189581188 -2.2841570017137176 L7.735326964965902 -2.275539458254106 L7.812562051573896 -2.2658404945643182 L7.903866860536925 -2.267189961208844 L8.008409764337962 -2.2807324522960566 L8.144518327327502 -2.3126597757185188 L8.209067571697474 -2.3243946149277064 L8.331829212790499 -2.3365336419129235 L8.41430111999321 -2.339754964986932 L8.514713863588993 -2.3394710220914092 L8.62817150697981 -2.3343680762557066 L8.755711580892108 -2.323291341789021 L8.899714788909439 -2.304670356833406 L9.05463735960511 -2.2779772024854377 L9.22389210364403 -2.241495626034844 L9.405628759263202 -2.1942861428311766 L9.599347008937754 -2.1352088921924697 L9.783195418315328 -2.0709255158358726 A10 10 0 0 1 9.901494784040391 -1.4000164737270133 L9.75072 -1.2767300000000017 L9.58889 -1.1549600000000018 L9.43426 -1.0484400000000018 L9.28769 -0.9562700000000016 L9.15124 -0.8782000000000016 L9.02229 -0.8114500000000017 L8.90623 -0.7574200000000016 L8.80136 -0.7138200000000017 L8.7071 -0.6792100000000015 L8.6285 -0.6540300000000016 L8.50899 -0.6234500000000015 L8.44432 -0.6124000000000016 L8.3055 -0.5958500000000015 L8.20263 -0.5728200000000016 L8.11637 -0.5428600000000015 L8.04711 -0.5073300000000014 L8.01895 -0.4879100000000015 L7.99514 -0.4676200000000014 L7.9757 -0.44662000000000146 L7.96065 -0.4251000000000014 L7.95 -0.4032300000000014 L7.94376 -0.38118000000000146 L7.94216 -0.35363000000000144 L7.95 -1.4603913079832187e-15 L7.94216 0.35362999999999856 L7.94376 0.3811799999999986 L7.95 0.40322999999999853 L7.96065 0.42509999999999853 L7.9757 0.4466199999999986 L7.99514 0.46761999999999854 L8.01895 0.4879099999999985 L8.04711 0.5073299999999985 L8.11637 0.5428599999999986 L8.20263 0.5728199999999984 L8.3055 0.5958499999999984 L8.44432 0.6123999999999985 L8.50899 0.6234499999999984 L8.6285 0.6540299999999984 L8.7071 0.6792099999999984 L8.80136 0.7138199999999983 L8.90623 0.7574199999999983 L9.02229 0.8114499999999983 L9.15124 0.8781999999999983 L9.28769 0.9562699999999983 L9.43426 1.0484399999999983 L9.58889 1.1549599999999982 L9.75072 1.2767299999999981 L9.901494784040391 1.4000164737270098 A10 10 0 0 1 9.783195418315326 2.070925515835869 L9.599347008937755 2.1352088921924657 L9.405628759263204 2.194286142831173 L9.223892103644028 2.24149562603484 L9.054637359605112 2.277977202485434 L8.899714788909439 2.3046703568334026 L8.755711580892108 2.323291341789017 L8.628171506979811 2.334368076255703 L8.514713863588995 2.3394710220914057 L8.414301119993212 2.3397549649869283 L8.331829212790499 2.3365336419129203 L8.209067571697476 2.3243946149277024 L8.144518327327502 2.3126597757185157 L8.008409764337964 2.2807324522960535 L7.903866860536926 2.2671899612088406 L7.812562051573897 2.2658404945643147 L7.735326964965903 2.2755394582541024 L7.702223189581189 2.284157001713714 L7.672909519572198 2.2950798653768762 L7.64745947201428 2.308164538827129 L7.625956824587084 2.3232393208693907 L7.608469117641182 2.34014788395956 L7.595063891527147 2.358733900553537 L7.584137728385268 2.3840752000268677 L7.470556335247973 2.719060139439062 L7.342240561816756 3.0486822030039096 L7.334321415061391 3.0751179669358826 L7.332643552854764 3.0979723949185636 L7.335171298731601 3.12216598706157 L7.341953399190061 3.1475355754179337 L7.3530386007283 3.173917992040689 L7.368473093321135 3.2011278549290196 L7.388292806339081 3.2290079728607326 L7.4412239415623525 3.286083566803992 L7.512034903537307 3.3437394152860094 L7.600824359536765 3.4005641484866205 L7.725612055782223 3.4635952976570965 L7.782602654984701 3.496097343785652 L7.884446344111925 3.565707971458136 L7.949694116896758 3.616252214914922 L8.026432226171536 3.6810137952302 L8.110065713064355 3.7578520459270286 L8.200647090288882 3.8483184960624683 L8.298990609172236 3.9551464759817723 L8.400510154689039 4.075176927443316 L8.506716905507302 4.211918288708396 L8.615589589792377 4.364900921436959 L8.726012253761393 4.534676411664451 L8.82552774831051 4.702095814515832 A10 10 0 0 1 8.484898300554455 5.292083324583448 L8.290151097324182 5.289610079659432 L8.087909877862707 5.278868992622457 L7.900986689439411 5.2610737986176614 L7.729461821426653 5.237466734988182 L7.57475262847484 5.209563455320752 L7.4330651245880714 5.177809459629865 L7.30942819196832 5.144596910911364 L7.201067571436099 5.110587312003524 L7.106613343056454 5.076510950090818 L7.030216857815395 5.045276843047193 L6.919010441314032 4.991882934884133 L6.86236754409049 4.958778651262169 L6.745387119556401 4.882224910819103 L6.65178072904167 4.833743352935677 L6.5664438185920195 4.801247185239963 L6.490549336689436 4.783945274457091 L6.4564945897910935 4.7807209584536885 L6.425212910999891 4.780959227217935 L6.39682246722224 4.784550369391127 L6.371460708992846 4.791361692281265 L6.349244570649784 4.801269396209117 L6.330290986531133 4.814149681495445 L6.3113565167752785 4.834225745727875 L6.090053322795881 5.110161497007982 L5.856738551948377 5.376018338568204 L5.840255424410503 5.39815132315163 L5.830862074941978 5.4190535978068475 L5.8249626832373504 5.442652677821021 L5.822658862745836 5.468811907762724 L5.824052226916653 5.497394632200529 L5.829249584506774 5.52824244693805 L5.838338460644892 5.561219929112193 L5.868556455003151 5.6329569580231 L5.9153775318803845 5.711354508750505 L5.979377125092954 5.795120073683989 L6.075081279746418 5.897029885194294 L6.117518570795887 5.947063751009187 L6.189412097088821 6.047308937313404 L6.233437798306065 6.117121042512502 L6.28339826834321 6.204223000777903 L6.335707809310764 6.3050316751257185 L6.3898851128277885 6.421022986367655 L6.445760470821403 6.5550439152149265 L6.50010480639676 6.7025573742309525 L6.553138206439901 6.867377070504985 L6.603121922495578 7.048370372671848 L6.648818647493993 7.245673923386019 L6.685071815216931 7.437033004530658 A10 10 0 0 1 6.163197223984493 7.874937781554589 L5.981040613773702 7.806006225189003 L5.794669700354872 7.726742334094567 L5.625105674343754 7.6460888259073805 L5.471999112876943 7.565240482474694 L5.336163509603491 7.486106316128308 L5.21388131390088 7.407807340310305 L5.109059961334407 7.334311431947083 L5.0188662537294055 7.265291347852209 L4.941763114504426 7.2009647932914875 L4.880656594837134 7.145485196554032 L4.794418537989406 7.0572765005477525 L4.752513957277587 7.006795637685013 L4.668771236844956 6.894848991131656 L4.597391671795799 6.817275957844351 L4.528315550698418 6.757552606513906 L4.462915668101957 6.715336687047795 L4.432017454760463 6.7006594116772265 L4.402540799317677 6.690184346813118 L4.374634265838203 6.683848812963549 L4.348472399148762 6.681575130636593 L4.324207423567997 6.683286960086289 L4.30199156341455 6.688907961566674 L4.277332563540289 6.701297320920619 L3.9749999999999974 6.884901960086289 L3.6648274364597064 7.054927320920618 L3.641768436585445 7.070087961566674 L3.6257925764319983 7.086516960086288 L3.6121776008512327 7.106675130636593 L3.601065734161791 7.1304688129635485 L3.592599200682318 7.157804346813118 L3.5869325452395318 7.188569411677226 L3.584194331898038 7.222666687047795 L3.588054449301577 7.3004126065139054 L3.605238328204195 7.390095957844351 L3.63672876315504 7.490698991131657 L3.6918060427224066 7.619195637685012 L3.714571462010589 7.6807265005477525 L3.747843405162861 7.79951519655403 L3.765336885495569 7.880174793291487 L3.7824937462705894 7.979111347852209 L3.797170038665588 8.091731431947082 L3.8084086860991144 8.219257340310305 L3.815076490396503 8.364306316128307 L3.815690887123052 8.521510482474694 L3.8091543256562392 8.69452882590738 L3.7942202996451204 8.881702334094566 L3.7696793862262896 9.082736225189002 L3.7382975600558908 9.2749542552816 A10 10 0 0 1 3.0981236030984034 9.507958520366538 L2.9505283614437676 9.380882815578495 L2.802506836767632 9.242656515503032 L2.6707538972041345 9.108872696539837 L2.5545325532083565 8.980534576716398 L2.453954318088041 8.85971427204834 L2.3658264680643253 8.744314328156683 L2.292463697669052 8.639399751381431 L2.231315595245789 8.54369402286932 L2.1808633216871516 8.45687600749944 L2.1424171157016834 8.383842579226336 L2.091549000901595 8.271458365936901 L2.06943704758109 8.209689660912819 L2.029032639245014 8.075852525980054 L1.988489328656546 7.978544469959355 L1.9440055965707512 7.898797452587425 L1.8969885043210155 7.836759387366305 L1.872973605074418 7.812399448651774 L1.8488572926555504 7.792474497577415 L1.824800609268449 7.776976446589862 L1.800994141349739 7.765891998690422 L1.7776070426992092 7.759201481766417 L1.7548084671166484 7.756885223705177 L1.727399176436895 7.760093538595082 L1.3805030124520965 7.829221636447054 L1.0308840450414807 7.882907948731796 L1.0040304285302615 7.889267648431338 L0.9833989822049839 7.89924179112769 L0.9637105897387597 7.913527679342846 L0.9451309319678243 7.932085944809072 L0.9278256897284132 7.954877219258635 L0.911978503530045 7.981848813382718 L0.8977434696496487 8.012953247317833 L0.8747801229703366 8.087330752043965 L0.86025417449564 8.177482768221697 L0.8554372399803662 8.282789059305735 L0.8632445116917371 8.422373948919276 L0.8635922136706731 8.487980278669795 L0.8542294862965346 8.61098481450534 L0.843080773840308 8.692763165005752 L0.8253646547354402 8.791601107233737 L0.800637521096039 8.902448956838404 L0.7675819657008132 9.026127955692345 L0.724237980697399 9.164709931302536 L0.6710483332623884 9.312643662431508 L0.6057302160678952 9.47299208732607 L0.5276797119296721 9.64376991405943 L0.43586115643721524 9.824286491323896 L0.3406294477560572 9.994179139099293 A10 10 0 0 1 -0.3406294477560523 9.994179139099295 L-0.43586115643721035 9.824286491323896 L-0.5276797119296677 9.643769914059428 L-0.6057302160678908 9.472992087326071 L-0.6710483332623839 9.31264366243151 L-0.7242379806973944 9.164709931302538 L-0.7675819657008088 9.026127955692345 L-0.8006375210960347 8.902448956838406 L-0.825364654735436 8.791601107233738 L-0.8430807738403037 8.692763165005754 L-0.8542294862965304 8.61098481450534 L-0.863592213670669 8.487980278669797 L-0.8632445116917331 8.422373948919278 L-0.8554372399803624 8.282789059305735 L-0.8602541744956361 8.177482768221699 L-0.8747801229703326 8.087330752043965 L-0.8977434696496448 8.012953247317833 L-0.9119785035300412 7.981848813382719 L-0.9278256897284093 7.954877219258636 L-0.9451309319678205 7.932085944809072 L-0.9637105897387559 7.913527679342847 L-0.9833989822049802 7.89924179112769 L-1.0040304285302577 7.889267648431339 L-1.030884045041477 7.882907948731796 L-1.380503012452093 7.829221636447055 L-1.7273991764368912 7.7600935385950836 L-1.7548084671166446 7.7568852237051775 L-1.7776070426992057 7.759201481766419 L-1.8009941413497352 7.765891998690423 L-1.8248006092684452 7.776976446589864 L-1.8488572926555467 7.792474497577416 L-1.8729736050744141 7.8123994486517745 L-1.896988504321012 7.836759387366307 L-1.9440055965707472 7.898797452587426 L-1.9884893286565424 7.978544469959358 L-2.0290326392450106 8.075852525980054 L-2.0694370475810855 8.20968966091282 L-2.0915490009015913 8.271458365936903 L-2.1424171157016794 8.383842579226336 L-2.1808633216871476 8.456876007499442 L-2.2313155952457846 8.543694022869321 L-2.292463697669048 8.639399751381433 L-2.3658264680643213 8.744314328156683 L-2.4539543180880368 8.859714272048341 L-2.5545325532083525 8.9805345767164 L-2.67075389720413 9.108872696539839 L-2.8025068367676274 9.242656515503034 L-2.950528361443763 9.380882815578499 L-3.098123603098399 9.50795852036654 A10 10 0 0 1 -3.738297560055887 9.274954255281601 L-3.7696793862262856 9.082736225189004 L-3.794220299645117 8.881702334094568 L-3.8091543256562357 8.694528825907382 L-3.815690887123047 8.521510482474696 L-3.8150764903964993 8.364306316128308 L-3.808408686099111 8.219257340310305 L-3.7971700386655844 8.091731431947085 L-3.782493746270586 7.97911134785221 L-3.7653368854955653 7.88017479329149 L-3.7478434051628575 7.799515196554032 L-3.7145714620105856 7.680726500547753 L-3.691806042722403 7.619195637685014 L-3.636728763155036 7.490698991131658 L-3.605238328204191 7.390095957844352 L-3.5880544493015734 7.300412606513907 L-3.5841943318980345 7.222666687047797 L-3.586932545239528 7.188569411677228 L-3.592599200682315 7.15780434681312 L-3.601065734161788 7.13046881296355 L-3.612177600851229 7.106675130636594 L-3.625792576431995 7.08651696008629 L-3.641768436585442 7.070087961566675 L-3.6648274364597033 7.05492732092062 L-3.9749999999999943 6.884901960086291 L-4.277332563540286 6.701297320920621 L-4.301991563414547 6.688907961566676 L-4.3242074235679935 6.683286960086291 L-4.3484723991487595 6.681575130636595 L-4.374634265838201 6.683848812963551 L-4.4025407993176735 6.69018434681312 L-4.43201745476046 6.700659411677228 L-4.462915668101953 6.715336687047797 L-4.528315550698414 6.757552606513908 L-4.597391671795796 6.817275957844354 L-4.668771236844952 6.894848991131659 L-4.752513957277584 7.0067956376850145 L-4.794418537989403 7.057276500547755 L-4.880656594837131 7.145485196554033 L-4.941763114504423 7.20096479329149 L-5.018866253729403 7.265291347852211 L-5.109059961334404 7.334311431947086 L-5.213881313900877 7.407807340310307 L-5.336163509603488 7.486106316128311 L-5.471999112876938 7.565240482474697 L-5.62510567434375 7.646088825907382 L-5.794669700354868 7.726742334094569 L-5.9810406137736996 7.806006225189006 L-6.16319722398449 7.874937781554591 A10 10 0 0 1 -6.685071815216914 7.437033004530672 L-6.648818647493977 7.245673923386034 L-6.603121922495562 7.048370372671863 L-6.553138206439885 6.867377070505 L-6.500104806396745 6.7025573742309685 L-6.44576047082139 6.555043915214941 L-6.389885112827773 6.42102298636767 L-6.335707809310749 6.305031675125733 L-6.283398268343196 6.204223000777918 L-6.233437798306052 6.117121042512517 L-6.189412097088808 6.047308937313418 L-6.117518570795873 5.9470637510092015 L-6.075081279746404 5.897029885194307 L-5.97937712509294 5.795120073684004 L-5.915377531880372 5.711354508750519 L-5.868556455003138 5.632956958023113 L-5.83833846064488 5.561219929112207 L-5.829249584506763 5.528242446938064 L-5.82405222691664 5.4973946322005425 L-5.822658862745824 5.4688119077627375 L-5.824962683237338 5.442652677821035 L-5.830862074941965 5.419053597806862 L-5.840255424410491 5.398151323151644 L-5.856738551948365 5.376018338568217 L-6.090053322795869 5.110161497007996 L-6.311356516775267 4.83422574572789 L-6.330290986531122 4.8141496814954605 L-6.349244570649773 4.801269396209131 L-6.371460708992835 4.7913616922812805 L-6.396822467222229 4.784550369391142 L-6.42521291099988 4.78095922721795 L-6.456494589791082 4.780720958453703 L-6.490549336689425 4.783945274457105 L-6.566443818592009 4.801247185239978 L-6.6517807290416595 4.833743352935693 L-6.745387119556391 4.882224910819119 L-6.862367544090479 4.958778651262184 L-6.91901044131402 4.991882934884149 L-7.030216857815383 5.045276843047209 L-7.106613343056442 5.076510950090835 L-7.201067571436089 5.110587312003541 L-7.309428191968308 5.144596910911382 L-7.43306512458806 5.177809459629882 L-7.574752628474829 5.20956345532077 L-7.729461821426641 5.2374667349882 L-7.9009866894393985 5.26107379861768 L-8.087909877862696 5.278868992622476 L-8.29015109732417 5.28961007965945 L-8.484898300554445 5.2920833245834675 A10 10 0 0 1 -8.825527748310506 4.702095814515838 Z" id="SvgjsPath1444">
        </path>
      </g>
    </g>
  </g>
</svg>
