<?xml version="1.0" encoding="UTF-8" standalone="no"?>
<svg
   viewBox="-11.3 -11.3 8.0399999 8.0998791"
   height="8.0998793mm"
   width="8.04mm"
   version="1.1"
   id="SvgjsSvg1391"
   sodipodi:docname="spur6.svg"
   inkscape:version="1.1 (c68e22c387, 2021-05-23)"
   xmlns:inkscape="http://www.inkscape.org/namespaces/inkscape"
   xmlns:sodipodi="http://sodipodi.sourceforge.net/DTD/sodipodi-0.dtd"
   xmlns="http://www.w3.org/2000/svg"
   xmlns:svg="http://www.w3.org/2000/svg">
  <sodipodi:namedview
     id="namedview14"
     pagecolor="#ffffff"
     bordercolor="#666666"
     borderopacity="1.0"
     inkscape:pageshadow="2"
     inkscape:pageopacity="0.0"
     inkscape:pagecheckerboard="0"
     inkscape:document-units="mm"
     showgrid="false"
     inkscape:zoom="6.087758"
     inkscape:cx="-18.89037"
     inkscape:cy="15.358692"
     inkscape:window-width="1366"
     inkscape:window-height="705"
     inkscape:window-x="-8"
     inkscape:window-y="-8"
     inkscape:window-maximized="1"
     inkscape:current-layer="SvgjsSvg1391" />
  <defs
     id="SvgjsDefs1392" />
  <defs
     id="defs3" />
  <g
     id="SvgjsG1393"
     transform="translate(-19.28,-7.2500603)">
    <g
       transform="translate(12)"
       id="SvgjsG1394">
      <g
         fill="none"
         stroke-width="0.04"
         stroke="#0000ff"
         id="SvgjsG1395">
        <circle
           cy="0"
           cx="0"
           r="3"
           id="SvgjsCircle1396" />
        <circle
           cy="0"
           cx="0"
           r="4"
           id="SvgjsCircle1397" />
      </g>
      <g
         fill="none"
         stroke-width="0.1"
         stroke="#000000"
         id="SvgjsG1398">
        <circle
           cy="0"
           cx="0"
           r="2"
           id="SvgjsCircle1399" />
        <path
           d="m -0.30398249,3.9130131 -0.0695859,-0.087634 -0.063267,-0.086918 -0.0563829,-0.084722 -0.049875,-0.082154 -0.0450591,-0.081775 -0.0384998,-0.077376 -0.0336195,-0.075309 -0.0523424,-0.1400203 -0.0351873,-0.1251738 -0.020604,-0.1065927 -0.009814,-0.090802 -0.001508,-0.077508 0.0521893,-0.072695 0.0496269,-0.079416 0.041809,-0.078595 0.0341675,-0.07728 0.0266974,-0.075461 0.019462,-0.073149 0.0124776,-0.070392 0.005752,-0.067162 -6.686e-4,-0.063502 -0.006768,-0.059437 -0.0125147,-0.054984 -0.0179033,-0.050151 -0.0229052,-0.044967 -0.0274868,-0.039472 -0.0316566,-0.033669 -0.0353762,-0.027607 -0.0189451,-0.011446 -0.1324829,-0.059873 -0.13074659,-0.06902 -0.12514662,-0.07872 -0.1180929,-0.084797 -0.019385,-0.010684 -0.041596,-0.016833 -0.044987,-0.010581 -0.047927,-0.00407 -0.050395,0.00265 -0.052383,0.00957 -0.053875,0.016654 -0.054858,0.023857 -0.055329,0.031172 -0.055288,0.038562 -0.054722,0.046002 -0.053618,0.053429 -0.052003,0.060851 -0.049843,0.06823 -0.047161,0.075505 -0.043963,0.082686 -0.036861,0.081545 -0.067878,0.037448 -0.083544,0.036902 -0.1026141,0.035453 -0.1259973,0.032114 -0.1474324,0.02468 -0.08203,0.00854 -0.08626,0.00535 -0.093349,0.00187 -0.096085,-0.00212 -0.1015629,-0.00647 -0.106907,-0.011332 -0.1106846,-0.01645 L -3.34068,2.1998582 A 4,4 0 0 1 -3.5754731,1.7931846 l 0.034713,-0.099935 0.0411,-0.10408 0.04364,-0.09825 0.04518,-0.09119 0.04621,-0.08427 0.04829,-0.07991 0.04776,-0.07203 0.04841,-0.06677 0.09509,-0.11534 0.09081,-0.09306 0.08201,-0.07114 0.07373,-0.0539 0.06637,-0.04006 0.08905,0.00885 0.09359,0.00327 0.08897,-0.00309 0.08401,-0.00905 0.0787,-0.01461 0.07308,-0.01972 0.0672,-0.02439 0.06104,-0.0286 L -2.12186,0.60358 -2.07377,0.568 -2.03241,0.52967 -1.99793,0.48909 -1.97044,0.44677 -1.95,0.40323 -1.93667,0.35898 -1.93045,0.31454 -1.93001,0.29241 -1.9444,0.14774 -1.95,0 -1.9444,-0.14774 -1.93001,-0.29241 -1.93045,-0.31454 -1.93667,-0.35898 -1.95,-0.40323 -1.97044,-0.44677 -1.99793,-0.48909 -2.03241,-0.52967 -2.07377,-0.568 l -0.04809,-0.03558 -0.05466,-0.03233 -0.06104,-0.0286 -0.0672,-0.02439 -0.07308,-0.01972 -0.0787,-0.01461 -0.08401,-0.00905 -0.08897,-0.00309 -0.09359,0.00327 -0.08905,0.00885 -0.06637,-0.04006 -0.07373,-0.0539 -0.08201,-0.07114 -0.09081,-0.09306 -0.09509,-0.11534 -0.04841,-0.06677 -0.04776,-0.07203 -0.04829,-0.07991 -0.04621,-0.08427 -0.04518,-0.09119 -0.04364,-0.09825 -0.0411,-0.10408 -0.034713,-0.099935 a 4,4 0 0 1 0.234793,-0.4066732 l 0.1039025,-0.019905 0.1106859,-0.016446 0.106907,-0.011332 0.1015629,-0.00647 0.096085,-0.00212 0.093349,0.00187 0.08626,0.00535 0.08203,0.00854 0.1474324,0.02468 0.1259973,0.032114 0.1026141,0.035453 0.083544,0.036902 0.067878,0.037448 0.036861,0.081545 0.043963,0.082686 0.047161,0.075505 0.049843,0.06823 0.052003,0.060851 0.053618,0.053429 0.054722,0.046002 0.055288,0.038562 0.055329,0.031172 0.054858,0.023857 0.053875,0.016654 0.052383,0.00957 0.050395,0.00265 0.047927,-0.00407 0.044987,-0.010581 0.041596,-0.016833 0.019385,-0.010684 0.1180929,-0.084797 0.1251466,-0.07872 0.13074659,-0.06902 0.1324829,-0.059873 0.0189451,-0.011446 0.0353762,-0.027607 0.0316566,-0.033669 0.0274868,-0.039472 0.0229052,-0.044967 0.0179033,-0.050151 0.0125147,-0.054984 0.006768,-0.059437 6.686e-4,-0.063502 -0.005752,-0.067162 -0.0124776,-0.070392 -0.019462,-0.073149 -0.0266974,-0.075461 -0.0341675,-0.07728 -0.041809,-0.078595 -0.0496269,-0.079416 -0.0521893,-0.072695 0.001508,-0.077508 0.009814,-0.090802 0.020604,-0.1065927 0.0351873,-0.1251738 0.0523424,-0.1400203 0.0336195,-0.075309 0.0384998,-0.077376 0.0450591,-0.081775 0.049875,-0.082154 0.0563829,-0.084722 0.063267,-0.086918 0.0695859,-0.087634 0.0691894,-0.08003 a 4,4 0 0 1 0.4695862,0 l 0.0691894,0.08003 0.0695859,0.087634 0.063267,0.086918 0.0563829,0.084722 0.049875,0.082154 0.0450591,0.081775 0.0384998,0.077376 0.0336195,0.075309 0.0523424,0.1400203 0.0351873,0.1251738 0.020604,0.1065927 0.009814,0.090802 0.001508,0.077508 -0.0521893,0.072695 -0.0496269,0.079416 -0.041809,0.078595 -0.0341675,0.07728 -0.0266974,0.075461 -0.019462,0.073149 -0.0124776,0.070392 -0.005752,0.067162 6.686e-4,0.063502 0.006768,0.059437 0.0125147,0.054984 0.0179033,0.050151 0.0229052,0.044967 0.0274868,0.039472 0.0316566,0.033669 0.0353762,0.027607 0.0189451,0.011446 0.1324829,0.059873 0.13074659,0.06902 0.12514662,0.07872 0.1180929,0.084797 0.019385,0.010684 0.041596,0.016833 0.044987,0.010581 0.047927,0.00407 0.050395,-0.00265 0.052383,-0.00957 0.053875,-0.016654 0.054858,-0.023857 0.055329,-0.031172 0.055288,-0.038562 0.054722,-0.046002 0.053618,-0.053429 0.052003,-0.060851 0.049843,-0.06823 0.047161,-0.075505 0.043963,-0.082686 0.036861,-0.081545 0.067878,-0.037448 0.083544,-0.036902 0.1026141,-0.035453 0.1259973,-0.032114 0.1474324,-0.02468 0.08203,-0.00854 0.08626,-0.00535 0.093349,-0.00187 0.096085,0.00212 0.1015629,0.00647 0.106907,0.011332 0.1106859,0.016446 0.1039025,0.019905 a 4,4 0 0 1 0.2347931,0.4066736 L 3.54076,-1.69325 3.49966,-1.58917 3.45602,-1.49092 3.41084,-1.39973 3.36463,-1.31546 3.31634,-1.23555 3.26858,-1.16352 3.22017,-1.09675 3.12508,-0.98141 3.03427,-0.88835 2.95226,-0.81721 2.87853,-0.76331 2.81216,-0.72325 2.72311,-0.7321 2.62952,-0.73537 2.54055,-0.73228 2.45654,-0.72323 2.37784,-0.70862 2.30476,-0.6889 2.23756,-0.66451 2.17652,-0.63591 2.12186,-0.60358 2.07377,-0.568 2.03241,-0.52967 1.99793,-0.48909 1.97044,-0.44677 1.95,-0.40323 1.93667,-0.35898 1.93045,-0.31454 1.93001,-0.29241 1.9444,-0.14774 1.95,0 1.9444,0.14774 1.93001,0.29241 1.93045,0.31454 1.93667,0.35898 1.95,0.40323 1.97044,0.44677 1.99793,0.48909 2.03241,0.52967 2.07377,0.568 2.12186,0.60358 2.17652,0.63591 2.23756,0.66451 2.30476,0.6889 2.37784,0.70862 2.45654,0.72323 2.54055,0.73228 2.62952,0.73537 2.72311,0.7321 2.81216,0.72325 2.87853,0.76331 2.95226,0.81721 3.03427,0.88835 3.12508,0.98141 3.22017,1.09675 3.26858,1.16352 3.31634,1.23555 3.36463,1.31546 3.41084,1.39973 3.45602,1.49092 3.49966,1.58917 3.54076,1.69325 3.575473,1.793185 A 4,4 0 0 1 3.34068,2.1998582 l -0.1039025,0.019905 -0.1106859,0.016446 -0.106907,0.011332 -0.1015629,0.00647 -0.096085,0.00212 -0.093349,-0.00187 -0.08626,-0.00535 -0.08203,-0.00854 -0.1474324,-0.02468 -0.1259973,-0.032114 -0.1026141,-0.035453 -0.083544,-0.036902 -0.067878,-0.037448 -0.036861,-0.081545 -0.043963,-0.082686 -0.047161,-0.075505 -0.049843,-0.06823 -0.052003,-0.060851 -0.053618,-0.053429 -0.054722,-0.046002 -0.055288,-0.038562 -0.055329,-0.031172 -0.054858,-0.023857 -0.053875,-0.016654 -0.052383,-0.00957 -0.050395,-0.00265 -0.047927,0.00407 -0.044987,0.010581 -0.041596,0.016833 -0.019385,0.010684 -0.1180929,0.084797 -0.1251466,0.07872 -0.13074659,0.06902 -0.1324829,0.059873 -0.0189451,0.011446 -0.0353762,0.027607 -0.0316566,0.033669 -0.0274868,0.039472 -0.0229052,0.044967 -0.0179033,0.050151 -0.0125147,0.054984 -0.006768,0.059437 -6.686e-4,0.063502 0.005752,0.067162 0.0124776,0.070392 0.019462,0.073149 0.0266974,0.075461 0.0341675,0.07728 0.041809,0.078595 0.0496269,0.079416 0.0521893,0.072695 -0.001508,0.077508 -0.009814,0.090802 -0.020604,0.1065927 -0.0351873,0.1251738 -0.0523424,0.1400203 -0.0336195,0.075309 -0.0384998,0.077376 -0.0450591,0.081775 -0.049875,0.082154 -0.0563829,0.084722 -0.063267,0.086918 -0.0695859,0.087634 -0.0691894,0.08003 a 4,4 0 0 1 -0.4695862,0 z"
           id="SvgjsPath1400" />
      </g>
    </g>
  </g>
  <rect
     style="fill:#800000;stroke-width:0.264583"
     id="rect80"
     width="0.94014001"
     height="0.8925218"
     x="-7.9374475"
     y="-9.1067524" />
</svg>
