<?xml version="1.1" encoding="UTF-8"?>
<svg viewBox="-12.2 -15.2 48.4 30.4" height="30.4mm" width="48.4mm" xmlns:svgjs="http://svgjs.com/svgjs" xmlns:xlink="http://www.w3.org/1999/xlink" version="1.1" xmlns="http://www.w3.org/2000/svg" id="SvgjsSvg1501">
  <defs id="SvgjsDefs1502">
  </defs>
  <defs id="SvgjsDefs1502">
  </defs>
  <g id="SvgjsG1503">
    <g transform="matrix(1,0,0,1,21,0)" id="SvgjsG1504">
      <g fill="none" stroke-width="0.04" stroke="blue" id="SvgjsG1505">
        <circle cy="0" cx="0" r="12" id="SvgjsCircle1506">
        </circle>
        <circle cy="0" cx="0" r="13" id="SvgjsCircle1507">
        </circle>
      </g>
      <g fill="none" stroke-width="0.1" stroke="black" id="SvgjsG1508">
        <circle cy="0" cx="0" r="2" id="SvgjsCircle1509">
        </circle>
        <path d="M-11.99284960249741 4.4655787895722625  L-11.82786489988848 4.285812208681815 L-11.671246282285784 4.128837545693737 L-11.520197074353531 3.9895986847998075 L-11.380431110555763 3.87118991036277 L-11.250563068863812 3.770165256207967 L-11.132580082048294 3.686063307823346 L-11.0272845255988 3.617473677470125 L-10.93691934170186 3.5638689086592072 L-10.803175607021416 3.494965661756562 L-10.725402027310952 3.45997406849446 L-10.674238539381157 3.433624131058905 L-10.62887889200182 3.4067484228892195 L-10.589309264893428 3.379591707135968 L-10.55552808522519 3.3523916758819037 L-10.527509978772416 3.3253589381219 L-10.50523405418779 3.2987260095578077 L-10.488676831933537 3.2727350651497398 L-10.477791031077995 3.2476011967699314 L-10.472524194308606 3.223558814807143 L-10.472838699951975 3.2008255993240597 L-10.491298341069143 3.136221991454024 L-10.576887797865297 2.834068543872602 L-10.653841877774429 2.529601254027963 L-10.670157163557235 2.4644230678778003 L-10.681251401421987 2.444578272938061 L-10.697833806843256 2.4263903777754914 L-10.719828121114597 2.410066709690973 L-10.74716256840692 2.395836502692364 L-10.779770549272039 2.3839096722709967 L-10.817551310106078 2.374507687863377 L-10.860406685495613 2.3678423596477467 L-10.908253345666383 2.364108767476273 L-10.960973806688436 2.363513545146298 L-11.018457655699635 2.366275573903874 L-11.1033073481032 2.3748587550752323 L-11.253584443384792 2.382058660194532 L-11.358645372662656 2.380818160588756 L-11.484128814630145 2.37406557649143 L-11.628356052619061 2.3602226460903393 L-11.791337402941428 2.3376667500297192 L-11.97158266539323 2.3050047252351464 L-12.172014547131043 2.2599449384731223 L-12.386137580174617 2.202310201376294 L-12.618901814314997 2.129120126878161 L-12.837212578395427 2.0507729755994233 A13 13 0 0 1 -12.930574270301722 1.3416205203312095 L-12.73998 1.209440000000001 L-12.53409 1.0785000000000007 L-12.34218 0.9674100000000008 L-12.16024 0.8720100000000007 L-11.99459 0.7938100000000008 L-11.843 0.7298400000000008 L-11.70727 0.6791400000000006 L-11.58781 0.6401400000000007 L-11.48665 0.6117500000000007 L-11.33963 0.5798100000000007 L-11.25545 0.5661400000000006 L-11.19921 0.5539300000000007 L-11.14844 0.5397100000000007 L-11.10319 0.5237200000000006 L-11.06352 0.5061900000000007 L-11.02946 0.48733000000000065 L-11.00105 0.4673700000000007 L-10.97833 0.44655000000000067 L-10.96131 0.4250900000000007 L-10.95 0.40323000000000064 L-10.94442 0.38119000000000064 L-10.94553 0.3140100000000007 L-10.95 6.704941225331759e-16 L-10.94553 -0.31400999999999935 L-10.94442 -0.3811899999999993 L-10.95 -0.4032299999999993 L-10.96131 -0.42508999999999936 L-10.97833 -0.44654999999999934 L-11.00105 -0.46736999999999934 L-11.02946 -0.4873299999999993 L-11.06352 -0.5061899999999994 L-11.10319 -0.5237199999999993 L-11.14844 -0.5397099999999994 L-11.19921 -0.5539299999999994 L-11.25545 -0.5661399999999993 L-11.33963 -0.5798099999999994 L-11.48665 -0.6117499999999993 L-11.58781 -0.6401399999999994 L-11.70727 -0.6791399999999993 L-11.843 -0.7298399999999993 L-11.99459 -0.7938099999999992 L-12.16024 -0.8720099999999992 L-12.34218 -0.9674099999999992 L-12.53409 -1.0784999999999993 L-12.73998 -1.2094399999999992 L-12.930574270301722 -1.3416205203312077 A13 13 0 0 1 -12.837212578395427 -2.0507729755994246 L-12.618901814314997 -2.1291201268781625 L-12.386137580174617 -2.202310201376296 L-12.172014547131043 -2.2599449384731236 L-11.97158266539323 -2.3050047252351478 L-11.791337402941428 -2.3376667500297206 L-11.628356052619061 -2.3602226460903406 L-11.484128814630145 -2.3740655764914314 L-11.358645372662656 -2.3808181605887575 L-11.253584443384792 -2.3820586601945335 L-11.1033073481032 -2.374858755075234 L-11.018457655699635 -2.366275573903875 L-10.960973806688436 -2.3635135451462994 L-10.908253345666383 -2.3641087674762744 L-10.860406685495613 -2.3678423596477476 L-10.81755131010608 -2.374507687863378 L-10.779770549272039 -2.383909672270998 L-10.74716256840692 -2.3958365026923647 L-10.719828121114597 -2.4100667096909745 L-10.697833806843256 -2.4263903777754927 L-10.681251401421987 -2.4445782729380623 L-10.670157163557235 -2.464423067877801 L-10.653841877774429 -2.5296012540279644 L-10.576887797865297 -2.834068543872603 L-10.491298341069143 -3.1362219914540255 L-10.472838699951975 -3.2008255993240606 L-10.472524194308606 -3.223558814807144 L-10.477791031077995 -3.2476011967699328 L-10.488676831933537 -3.272735065149741 L-10.50523405418779 -3.2987260095578086 L-10.527509978772416 -3.3253589381219015 L-10.555528085225188 -3.352391675881905 L-10.589309264893428 -3.379591707135969 L-10.62887889200182 -3.406748422889221 L-10.674238539381157 -3.4336241310589064 L-10.725402027310952 -3.459974068494461 L-10.803175607021416 -3.494965661756563 L-10.93691934170186 -3.5638689086592086 L-11.0272845255988 -3.617473677470126 L-11.132580082048294 -3.686063307823347 L-11.250563068863812 -3.770165256207968 L-11.380431110555763 -3.871189910362771 L-11.520197074353531 -3.989598684799809 L-11.671246282285784 -4.128837545693739 L-11.82786489988848 -4.285812208681816 L-11.99284960249741 -4.465578789572264 L-12.142738694471287 -4.6425847949340096 A13 13 0 0 1 -11.869016063768326 -5.30340968230554 L-11.637866323705671 -5.322584235646951 L-11.394090353320495 -5.3330366020184865 L-11.172346418080224 -5.3332883641249 L-10.96708175611568 -5.324937187645935 L-10.78452464797879 -5.309835374221878 L-10.621258857019106 -5.289440019301968 L-10.478363228963444 -5.2654825072738385 L-10.355407834227353 -5.239527498021432 L-10.25360570438052 -5.213533959234872 L-10.110312649516134 -5.167684810631747 L-10.03057563102556 -5.1374333779014805 L-9.975765362316723 -5.119887548081689 L-9.924687252566587 -5.106817429323503 L-9.877504603045342 -5.098040175530016 L-9.834384375277212 -5.0933866008583575 L-9.795457550024315 -5.092689839973732 L-9.760873768302798 -5.095770707033269 L-9.730787671128816 -5.102441355940061 L-9.705317918756405 -5.1125162611052755 L-9.684593171439602 -5.125792576432003 L-9.668740749686485 -5.142089776331412 L-9.636112037884686 -5.200824362957651 L-9.482978171439601 -5.475000000000002 L-9.322102037884687 -5.744705637042354 L-9.287550749686485 -5.8023302236685925 L-9.281363171439601 -5.8242074235680015 L-9.280227918756404 -5.848793738894729 L-9.284237671128814 -5.875888644059944 L-9.293503768302799 -5.9052792929667355 L-9.308127550024315 -5.936770160026273 L-9.328194375277212 -5.970133399141648 L-9.35378460304534 -6.005149824469989 L-9.384977252566587 -6.041622570676503 L-9.421835362316722 -6.079322451918317 L-9.464435631025559 -6.118016622098525 L-9.530502649516132 -6.171945189368258 L-9.64185570438052 -6.2731160407651325 L-9.715267834227355 -6.348282501978573 L-9.799223228963443 -6.441787492726166 L-9.891418857019106 -6.553559980698037 L-9.99071464797879 -6.684754625778128 L-10.095071756115681 -6.835302812354071 L-10.204936418080223 -7.0088916358751066 L-10.315590353320493 -7.20105339798152 L-10.42842632370567 -7.417395764353054 L-10.527395543437118 -7.627164587996187 A13 13 0 0 1 -10.091965718871863 -8.194627783461419 L-9.86372947561925 -8.153323024742733 L-9.625554698512186 -8.100325371492803 L-9.411301343812662 -8.043177001437305 L-9.215192349118384 -7.981983980593421 L-9.042764360526045 -7.920147492578657 L-8.890340422773473 -7.858190796411092 L-8.758514505556864 -7.7980655068067986 L-8.646466365010046 -7.74117169519253 L-8.554860681507327 -7.689715534725585 L-8.428316851946182 -7.6083416863466375 L-8.359126453407079 -7.558483587205173 L-8.31072499423486 -7.52734967562953 L-8.264770124525546 -7.501504922777162 L-8.22146690524568 -7.480814978359643 L-8.181020397361811 -7.465159634224173 L-8.143600306501419 -7.454411611150138 L-8.109397551495425 -7.448436558849111 L-8.078610122242562 -7.4470930559648565 L-8.051400653302505 -7.450232610073324 L-8.027945921370547 -7.457692586614843 L-8.008415632074174 -7.4693315642331735 L-7.96169708704118 -7.517619886320403 L-7.742819253992695 -7.742819253992694 L-7.5176198863204045 -7.961697087041178 L-7.469331564233174 -8.008415632074174 L-7.457692586614844 -8.027945921370545 L-7.450232610073325 -8.051400653302503 L-7.447093055964857 -8.078610122242562 L-7.448436558849112 -8.109397551495425 L-7.454411611150139 -8.143600306501419 L-7.465159634224174 -8.18102039736181 L-7.480814978359644 -8.22146690524568 L-7.501504922777163 -8.264770124525546 L-7.527349675629532 -8.310724994234858 L-7.558483587205174 -8.359126453407077 L-7.6083416863466375 -8.428316851946182 L-7.689715534725585 -8.554860681507327 L-7.741171695192532 -8.646466365010044 L-7.7980655068068 -8.758514505556862 L-7.858190796411094 -8.890340422773471 L-7.920147492578659 -9.042764360526043 L-7.981983980593421 -9.215192349118384 L-8.043177001437305 -9.411301343812662 L-8.100325371492804 -9.625554698512184 L-8.153323024742734 -9.863729475619248 L-8.194627783461419 -10.091965718871863 A13 13 0 0 1 -7.627164587996189 -10.527395543437116 L-7.4173957643530555 -10.42842632370567 L-7.201053397981521 -10.315590353320493 L-7.008891635875108 -10.204936418080221 L-6.835302812354072 -10.095071756115681 L-6.684754625778129 -9.990714647978788 L-6.553559980698038 -9.891418857019104 L-6.441787492726167 -9.799223228963443 L-6.348282501978574 -9.715267834227355 L-6.273116040765133 -9.64185570438052 L-6.171945189368259 -9.530502649516132 L-6.1180166220985255 -9.464435631025557 L-6.079322451918318 -9.421835362316722 L-6.041622570676504 -9.384977252566586 L-6.0051498244699895 -9.353784603045339 L-5.970133399141648 -9.328194375277212 L-5.936770160026274 -9.308127550024313 L-5.905279292966736 -9.293503768302797 L-5.875888644059945 -9.284237671128814 L-5.84879373889473 -9.280227918756403 L-5.824207423568002 -9.281363171439601 L-5.802330223668593 -9.287550749686483 L-5.744705637042355 -9.322102037884685 L-5.475000000000003 -9.482978171439601 L-5.200824362957652 -9.636112037884685 L-5.142089776331413 -9.668740749686483 L-5.125792576432004 -9.684593171439602 L-5.112516261105276 -9.705317918756403 L-5.102441355940062 -9.730787671128816 L-5.09577070703327 -9.760873768302796 L-5.092689839973733 -9.795457550024313 L-5.093386600858359 -9.834384375277212 L-5.098040175530017 -9.87750460304534 L-5.106817429323504 -9.924687252566585 L-5.11988754808169 -9.975765362316723 L-5.137433377901481 -10.030575631025558 L-5.167684810631748 -10.110312649516134 L-5.213533959234873 -10.25360570438052 L-5.239527498021433 -10.355407834227353 L-5.265482507273839 -10.478363228963444 L-5.289440019301969 -10.621258857019104 L-5.309835374221879 -10.784524647978788 L-5.324937187645936 -10.96708175611568 L-5.333288364124901 -11.172346418080222 L-5.333036602018488 -11.394090353320495 L-5.322584235646953 -11.637866323705671 L-5.303409682305542 -11.869016063768324 A13 13 0 0 1 -4.642584794934006 -12.142738694471287 L-4.465578789572261 -11.992849602497412 L-4.285812208681812 -11.82786489988848 L-4.128837545693735 -11.671246282285784 L-3.9895986847998053 -11.520197074353531 L-3.8711899103627676 -11.380431110555763 L-3.770165256207965 -11.250563068863814 L-3.6860633078233436 -11.132580082048294 L-3.617473677470123 -11.0272845255988 L-3.5638689086592055 -10.93691934170186 L-3.4949656617565603 -10.803175607021416 L-3.459974068494458 -10.725402027310952 L-3.4336241310589033 -10.674238539381157 L-3.4067484228892178 -10.62887889200182 L-3.379591707135966 -10.589309264893428 L-3.352391675881902 -10.55552808522519 L-3.3253589381218984 -10.527509978772416 L-3.298726009557806 -10.50523405418779 L-3.272735065149738 -10.488676831933537 L-3.2476011967699296 -10.477791031077995 L-3.223558814807141 -10.472524194308606 L-3.200825599324058 -10.472838699951975 L-3.1362219914540224 -10.491298341069143 L-2.8340685438726 -10.576887797865297 L-2.5296012540279613 -10.653841877774429 L-2.4644230678777976 -10.670157163557235 L-2.444578272938059 -10.681251401421987 L-2.4263903777754896 -10.697833806843256 L-2.4100667096909714 -10.719828121114597 L-2.395836502692362 -10.74716256840692 L-2.383909672270995 -10.779770549272039 L-2.374507687863375 -10.817551310106078 L-2.3678423596477445 -10.860406685495613 L-2.3641087674762713 -10.908253345666383 L-2.3635135451462963 -10.960973806688436 L-2.366275573903872 -11.018457655699635 L-2.3748587550752305 -11.1033073481032 L-2.3820586601945304 -11.253584443384792 L-2.3808181605887544 -11.358645372662656 L-2.374065576491428 -11.484128814630145 L-2.3602226460903375 -11.62835605261906 L-2.337666750029717 -11.791337402941428 L-2.305004725235144 -11.97158266539323 L-2.25994493847312 -12.172014547131043 L-2.2023102013762923 -12.386137580174617 L-2.129120126878159 -12.618901814314995 L-2.050772975599421 -12.837212578395427 A13 13 0 0 1 -1.3416205203312102 -12.930574270301722 L-1.2094400000000016 -12.73998 L-1.0785000000000016 -12.53409 L-0.9674100000000015 -12.34218 L-0.8720100000000014 -12.16024 L-0.7938100000000015 -11.99459 L-0.7298400000000015 -11.843 L-0.6791400000000014 -11.70727 L-0.6401400000000015 -11.58781 L-0.6117500000000015 -11.48665 L-0.5798100000000015 -11.33963 L-0.5661400000000013 -11.25545 L-0.5539300000000014 -11.19921 L-0.5397100000000014 -11.14844 L-0.5237200000000013 -11.10319 L-0.5061900000000014 -11.06352 L-0.4873300000000013 -11.02946 L-0.46737000000000134 -11.00105 L-0.44655000000000133 -10.97833 L-0.42509000000000136 -10.96131 L-0.4032300000000013 -10.95 L-0.3811900000000013 -10.94442 L-0.31401000000000134 -10.94553 L-1.3409882450663517e-15 -10.95 L0.3140099999999987 -10.94553 L0.38118999999999864 -10.94442 L0.40322999999999865 -10.95 L0.4250899999999987 -10.96131 L0.44654999999999867 -10.97833 L0.4673699999999987 -11.00105 L0.48732999999999865 -11.02946 L0.5061899999999987 -11.06352 L0.5237199999999986 -11.10319 L0.5397099999999987 -11.14844 L0.5539299999999987 -11.19921 L0.5661399999999986 -11.25545 L0.5798099999999986 -11.33963 L0.6117499999999986 -11.48665 L0.6401399999999986 -11.58781 L0.6791399999999985 -11.70727 L0.7298399999999986 -11.843 L0.7938099999999986 -11.99459 L0.8720099999999985 -12.16024 L0.9674099999999984 -12.34218 L1.0784999999999985 -12.53409 L1.2094399999999985 -12.73998 L1.341620520331207 -12.930574270301722 A13 13 0 0 1 2.0507729755994184 -12.837212578395429 L2.1291201268781563 -12.618901814314997 L2.202310201376289 -12.38613758017462 L2.259944938473117 -12.172014547131045 L2.3050047252351415 -11.97158266539323 L2.3376667500297144 -11.79133740294143 L2.360222646090335 -11.62835605261906 L2.3740655764914256 -11.484128814630147 L2.3808181605887517 -11.358645372662657 L2.3820586601945277 -11.253584443384794 L2.374858755075228 -11.1033073481032 L2.3662755739038697 -11.018457655699637 L2.3635135451462936 -10.960973806688438 L2.364108767476269 -10.908253345666385 L2.3678423596477423 -10.860406685495613 L2.374507687863373 -10.81755131010608 L2.3839096722709923 -10.77977054927204 L2.3958365026923594 -10.747162568406921 L2.4100667096909687 -10.719828121114599 L2.426390377775487 -10.697833806843258 L2.444578272938057 -10.681251401421989 L2.464423067877796 -10.670157163557235 L2.529601254027959 -10.653841877774429 L2.834068543872598 -10.576887797865298 L3.13622199145402 -10.491298341069143 L3.2008255993240553 -10.472838699951975 L3.223558814807139 -10.472524194308608 L3.247601196769927 -10.477791031077997 L3.2727350651497353 -10.488676831933539 L3.2987260095578033 -10.505234054187792 L3.3253589381218958 -10.527509978772418 L3.3523916758818997 -10.555528085225191 L3.3795917071359636 -10.589309264893428 L3.4067484228892155 -10.628878892001822 L3.4336241310589006 -10.67423853938116 L3.4599740684944558 -10.725402027310954 L3.4949656617565577 -10.803175607021416 L3.563868908659203 -10.936919341701861 L3.6174736774701204 -11.027284525598802 L3.6860633078233414 -11.132580082048296 L3.7701652562079624 -11.250563068863814 L3.871189910362765 -11.380431110555765 L3.9895986847998026 -11.520197074353531 L4.128837545693733 -11.671246282285786 L4.28581220868181 -11.827864899888482 L4.465578789572258 -11.992849602497413 L4.642584794934003 -12.142738694471289 A13 13 0 0 1 5.303409682305539 -11.869016063768326 L5.32258423564695 -11.637866323705671 L5.333036602018485 -11.394090353320495 L5.333288364124899 -11.172346418080224 L5.324937187645934 -10.96708175611568 L5.309835374221876 -10.78452464797879 L5.289440019301966 -10.621258857019106 L5.265482507273837 -10.478363228963444 L5.23952749802143 -10.355407834227353 L5.21353395923487 -10.25360570438052 L5.167684810631745 -10.110312649516132 L5.137433377901479 -10.03057563102556 L5.119887548081687 -9.975765362316723 L5.106817429323502 -9.924687252566587 L5.098040175530015 -9.877504603045342 L5.093386600858356 -9.834384375277212 L5.092689839973731 -9.795457550024315 L5.095770707033267 -9.760873768302798 L5.102441355940059 -9.730787671128814 L5.112516261105274 -9.705317918756405 L5.125792576432001 -9.684593171439602 L5.14208977633141 -9.668740749686485 L5.20082436295765 -9.636112037884686 L5.4750000000000005 -9.482978171439601 L5.744705637042352 -9.322102037884687 L5.802330223668591 -9.287550749686485 L5.824207423568 -9.281363171439601 L5.848793738894727 -9.280227918756404 L5.875888644059942 -9.284237671128816 L5.905279292966734 -9.293503768302799 L5.9367701600262714 -9.308127550024315 L5.9701333991416465 -9.328194375277212 L6.005149824469987 -9.35378460304534 L6.041622570676501 -9.384977252566587 L6.0793224519183156 -9.421835362316722 L6.118016622098523 -9.464435631025559 L6.171945189368256 -9.530502649516134 L6.273116040765131 -9.64185570438052 L6.348282501978571 -9.715267834227355 L6.4417874927261645 -9.799223228963443 L6.553559980698036 -9.891418857019106 L6.684754625778126 -9.99071464797879 L6.83530281235407 -10.095071756115681 L7.008891635875106 -10.204936418080223 L7.20105339798152 -10.315590353320493 L7.417395764353053 -10.42842632370567 L7.6271645879961865 -10.527395543437118 A13 13 0 0 1 8.194627783461419 -10.091965718871865 L8.153323024742733 -9.863729475619252 L8.100325371492803 -9.625554698512186 L8.043177001437305 -9.411301343812664 L7.981983980593421 -9.215192349118386 L7.920147492578656 -9.042764360526046 L7.858190796411092 -8.890340422773473 L7.7980655068067986 -8.758514505556866 L7.74117169519253 -8.646466365010046 L7.689715534725585 -8.554860681507328 L7.6083416863466375 -8.428316851946184 L7.558483587205173 -8.35912645340708 L7.52734967562953 -8.310724994234862 L7.501504922777162 -8.264770124525548 L7.480814978359643 -8.221466905245682 L7.465159634224173 -8.181020397361813 L7.454411611150138 -8.14360030650142 L7.448436558849111 -8.109397551495427 L7.4470930559648565 -8.078610122242564 L7.450232610073324 -8.051400653302506 L7.457692586614843 -8.027945921370549 L7.4693315642331735 -8.008415632074176 L7.517619886320403 -7.9616970870411805 L7.742819253992694 -7.742819253992697 L7.961697087041178 -7.517619886320405 L8.008415632074174 -7.469331564233176 L8.027945921370545 -7.457692586614845 L8.051400653302503 -7.450232610073327 L8.078610122242562 -7.447093055964859 L8.109397551495425 -7.448436558849114 L8.143600306501419 -7.454411611150141 L8.18102039736181 -7.465159634224175 L8.22146690524568 -7.480814978359645 L8.264770124525546 -7.501504922777165 L8.310724994234858 -7.527349675629533 L8.359126453407077 -7.558483587205176 L8.428316851946182 -7.608341686346639 L8.554860681507327 -7.689715534725587 L8.646466365010044 -7.741171695192532 L8.758514505556862 -7.798065506806802 L8.890340422773471 -7.858190796411094 L9.042764360526043 -7.920147492578661 L9.215192349118384 -7.981983980593423 L9.411301343812662 -8.043177001437307 L9.625554698512184 -8.100325371492804 L9.863729475619248 -8.153323024742736 L10.091965718871863 -8.19462778346142 A13 13 0 0 1 10.527395543437116 -7.62716458799619 L10.42842632370567 -7.417395764353056 L10.315590353320493 -7.201053397981522 L10.204936418080221 -7.008891635875109 L10.095071756115681 -6.835302812354073 L9.990714647978788 -6.6847546257781305 L9.891418857019104 -6.55355998069804 L9.799223228963443 -6.441787492726169 L9.715267834227355 -6.348282501978575 L9.64185570438052 -6.273116040765135 L9.530502649516132 -6.171945189368261 L9.464435631025557 -6.118016622098527 L9.421835362316722 -6.07932245191832 L9.384977252566586 -6.041622570676505 L9.353784603045339 -6.005149824469991 L9.328194375277212 -5.97013339914165 L9.308127550024313 -5.936770160026276 L9.293503768302797 -5.905279292966738 L9.284237671128814 -5.875888644059946 L9.280227918756403 -5.848793738894731 L9.281363171439601 -5.824207423568003 L9.287550749686483 -5.802330223668594 L9.322102037884685 -5.7447056370423555 L9.482978171439601 -5.475000000000004 L9.636112037884685 -5.200824362957653 L9.668740749686483 -5.142089776331414 L9.684593171439602 -5.125792576432005 L9.705317918756403 -5.112516261105277 L9.730787671128816 -5.102441355940063 L9.760873768302796 -5.095770707033272 L9.795457550024313 -5.092689839973735 L9.834384375277212 -5.093386600858361 L9.87750460304534 -5.098040175530019 L9.924687252566585 -5.106817429323506 L9.975765362316723 -5.119887548081691 L10.030575631025558 -5.137433377901483 L10.110312649516134 -5.16768481063175 L10.25360570438052 -5.213533959234875 L10.355407834227353 -5.239527498021435 L10.478363228963444 -5.265482507273841 L10.621258857019104 -5.289440019301971 L10.784524647978788 -5.309835374221881 L10.96708175611568 -5.324937187645937 L11.172346418080222 -5.333288364124902 L11.394090353320495 -5.333036602018489 L11.637866323705671 -5.3225842356469535 L11.869016063768324 -5.303409682305543 A13 13 0 0 1 12.142738694471287 -4.642584794934007 L11.992849602497412 -4.465578789572262 L11.82786489988848 -4.285812208681813 L11.671246282285784 -4.128837545693736 L11.520197074353531 -3.989598684799806 L11.380431110555763 -3.8711899103627685 L11.250563068863814 -3.7701652562079655 L11.132580082048294 -3.6860633078233445 L11.0272845255988 -3.6174736774701235 L10.93691934170186 -3.563868908659206 L10.803175607021416 -3.4949656617565603 L10.725402027310952 -3.459974068494459 L10.674238539381157 -3.4336241310589037 L10.62887889200182 -3.4067484228892186 L10.589309264893428 -3.3795917071359667 L10.55552808522519 -3.3523916758819023 L10.527509978772416 -3.325358938121899 L10.50523405418779 -3.2987260095578064 L10.488676831933537 -3.2727350651497384 L10.477791031077995 -3.24760119676993 L10.472524194308606 -3.2235588148071415 L10.472838699951975 -3.200825599324059 L10.491298341069143 -3.1362219914540233 L10.576887797865297 -2.8340685438726005 L10.653841877774429 -2.529601254027962 L10.670157163557235 -2.4644230678777985 L10.681251401421987 -2.4445782729380596 L10.697833806843256 -2.42639037777549 L10.719828121114597 -2.410066709690972 L10.74716256840692 -2.3958365026923625 L10.779770549272039 -2.3839096722709954 L10.817551310106078 -2.3745076878633755 L10.860406685495613 -2.3678423596477454 L10.908253345666383 -2.364108767476272 L10.960973806688436 -2.3635135451462967 L11.018457655699635 -2.3662755739038728 L11.1033073481032 -2.3748587550752314 L11.253584443384792 -2.382058660194531 L11.358645372662656 -2.380818160588755 L11.484128814630145 -2.3740655764914287 L11.62835605261906 -2.360222646090338 L11.791337402941428 -2.337666750029718 L11.97158266539323 -2.305004725235145 L12.172014547131043 -2.259944938473121 L12.386137580174617 -2.202310201376293 L12.618901814314995 -2.12912012687816 L12.837212578395427 -2.050772975599422 A13 13 0 0 1 12.930574270301722 -1.341620520331211 L12.73998 -1.2094400000000025 L12.53409 -1.0785000000000022 L12.34218 -0.9674100000000022 L12.16024 -0.8720100000000022 L11.99459 -0.7938100000000022 L11.843 -0.7298400000000023 L11.70727 -0.6791400000000021 L11.58781 -0.6401400000000022 L11.48665 -0.6117500000000021 L11.33963 -0.5798100000000022 L11.25545 -0.5661400000000021 L11.19921 -0.5539300000000021 L11.14844 -0.539710000000002 L11.10319 -0.523720000000002 L11.06352 -0.506190000000002 L11.02946 -0.487330000000002 L11.00105 -0.467370000000002 L10.97833 -0.446550000000002 L10.96131 -0.425090000000002 L10.95 -0.403230000000002 L10.94442 -0.38119000000000197 L10.94553 -0.314010000000002 L10.95 -2.0114823675995275e-15 L10.94553 0.314009999999998 L10.94442 0.381189999999998 L10.95 0.403229999999998 L10.96131 0.425089999999998 L10.97833 0.446549999999998 L11.00105 0.467369999999998 L11.02946 0.487329999999998 L11.06352 0.506189999999998 L11.10319 0.523719999999998 L11.14844 0.539709999999998 L11.19921 0.5539299999999979 L11.25545 0.5661399999999979 L11.33963 0.5798099999999979 L11.48665 0.6117499999999979 L11.58781 0.6401399999999979 L11.70727 0.6791399999999979 L11.843 0.7298399999999978 L11.99459 0.7938099999999978 L12.16024 0.8720099999999977 L12.34218 0.9674099999999978 L12.53409 1.0784999999999978 L12.73998 1.2094399999999976 L12.930574270301722 1.3416205203312062 A13 13 0 0 1 12.837212578395429 2.0507729755994175 L12.618901814314997 2.1291201268781554 L12.38613758017462 2.2023102013762883 L12.172014547131045 2.259944938473116 L11.97158266539323 2.3050047252351407 L11.79133740294143 2.337666750029714 L11.62835605261906 2.360222646090334 L11.484128814630147 2.3740655764914247 L11.358645372662657 2.3808181605887513 L11.253584443384794 2.382058660194527 L11.1033073481032 2.3748587550752274 L11.018457655699637 2.366275573903869 L10.960973806688438 2.3635135451462927 L10.908253345666385 2.364108767476268 L10.860406685495613 2.3678423596477414 L10.81755131010608 2.374507687863372 L10.77977054927204 2.383909672270992 L10.747162568406921 2.395836502692359 L10.719828121114599 2.4100667096909683 L10.697833806843258 2.4263903777754865 L10.681251401421987 2.444578272938056 L10.670157163557235 2.464423067877795 L10.653841877774429 2.529601254027958 L10.576887797865298 2.834068543872597 L10.491298341069143 3.1362219914540193 L10.472838699951975 3.2008255993240553 L10.47252419430861 3.223558814807138 L10.477791031077997 3.2476011967699265 L10.488676831933539 3.272735065149735 L10.505234054187792 3.298726009557803 L10.527509978772418 3.3253589381218953 L10.555528085225191 3.352391675881899 L10.589309264893428 3.3795917071359627 L10.628878892001822 3.4067484228892146 L10.67423853938116 3.4336241310589006 L10.725402027310954 3.459974068494455 L10.803175607021416 3.494965661756557 L10.936919341701861 3.563868908659202 L11.027284525598802 3.61747367747012 L11.132580082048296 3.6860633078233405 L11.250563068863814 3.7701652562079615 L11.380431110555765 3.8711899103627645 L11.520197074353531 3.9895986847998017 L11.671246282285786 4.128837545693732 L11.827864899888482 4.28581220868181 L11.992849602497413 4.465578789572257 L12.142738694471289 4.6425847949340024 A13 13 0 0 1 11.869016063768331 5.303409682305528 L11.637866323705676 5.322584235646938 L11.3940903533205 5.333036602018475 L11.172346418080227 5.333288364124888 L10.967081756115686 5.324937187645923 L10.784524647978795 5.3098353742218665 L10.62125885701911 5.289440019301957 L10.478363228963449 5.265482507273828 L10.355407834227359 5.23952749802142 L10.253605704380526 5.213533959234861 L10.110312649516137 5.167684810631736 L10.030575631025565 5.137433377901471 L9.975765362316727 5.119887548081679 L9.924687252566592 5.106817429323494 L9.877504603045345 5.098040175530007 L9.834384375277217 5.093386600858348 L9.795457550024318 5.092689839973723 L9.760873768302803 5.095770707033259 L9.73078767112882 5.102441355940051 L9.705317918756409 5.112516261105266 L9.684593171439607 5.125792576431993 L9.66874074968649 5.142089776331402 L9.63611203788469 5.200824362957641 L9.482978171439607 5.4749999999999925 L9.32210203788469 5.744705637042345 L9.28755074968649 5.802330223668583 L9.281363171439606 5.824207423567992 L9.280227918756408 5.848793738894719 L9.284237671128821 5.875888644059934 L9.293503768302804 5.905279292966726 L9.308127550024318 5.9367701600262635 L9.328194375277217 5.9701333991416385 L9.353784603045344 6.005149824469979 L9.384977252566593 6.041622570676493 L9.42183536231673 6.079322451918308 L9.464435631025564 6.118016622098515 L9.530502649516139 6.171945189368247 L9.641855704380525 6.273116040765122 L9.71526783422736 6.348282501978563 L9.799223228963449 6.441787492726156 L9.891418857019111 6.553559980698027 L9.990714647978795 6.684754625778118 L10.095071756115686 6.835302812354061 L10.20493641808023 7.008891635875097 L10.315590353320502 7.20105339798151 L10.42842632370568 7.417395764353043 L10.527395543437123 7.627164587996177 A13 13 0 0 1 10.091965718871865 8.194627783461417 L9.863729475619252 8.15332302474273 L9.625554698512186 8.1003253714928 L9.411301343812664 8.043177001437304 L9.215192349118386 7.981983980593419 L9.042764360526046 7.920147492578656 L8.890340422773473 7.85819079641109 L8.758514505556866 7.7980655068067986 L8.646466365010044 7.741171695192528 L8.554860681507328 7.6897155347255834 L8.428316851946184 7.608341686346636 L8.35912645340708 7.558483587205171 L8.310724994234862 7.527349675629529 L8.264770124525548 7.50150492277716 L8.221466905245682 7.480814978359642 L8.181020397361813 7.465159634224172 L8.14360030650142 7.454411611150136 L8.109397551495427 7.44843655884911 L8.078610122242564 7.447093055964856 L8.051400653302506 7.450232610073323 L8.027945921370549 7.457692586614841 L8.008415632074176 7.469331564233173 L7.9616970870411805 7.517619886320402 L7.742819253992697 7.7428192539926926 L7.517619886320405 7.961697087041177 L7.469331564233176 8.008415632074172 L7.457692586614845 8.027945921370543 L7.450232610073327 8.051400653302503 L7.447093055964859 8.078610122242562 L7.448436558849114 8.109397551495423 L7.454411611150141 8.143600306501417 L7.465159634224175 8.18102039736181 L7.480814978359645 8.221466905245679 L7.5015049227771655 8.264770124525544 L7.527349675629533 8.310724994234858 L7.558483587205176 8.359126453407075 L7.608341686346639 8.42831685194618 L7.689715534725587 8.554860681507325 L7.741171695192532 8.646466365010042 L7.798065506806802 8.758514505556862 L7.858190796411094 8.89034042277347 L7.920147492578661 9.042764360526043 L7.981983980593423 9.215192349118382 L8.043177001437307 9.41130134381266 L8.100325371492804 9.625554698512182 L8.153323024742736 9.863729475619246 L8.19462778346142 10.091965718871862 A13 13 0 0 1 7.62716458799619 10.527395543437114 L7.417395764353056 10.428426323705668 L7.201053397981522 10.315590353320491 L7.008891635875109 10.20493641808022 L6.835302812354073 10.09507175611568 L6.6847546257781305 9.990714647978788 L6.55355998069804 9.891418857019104 L6.441787492726169 9.799223228963442 L6.348282501978575 9.715267834227351 L6.273116040765135 9.641855704380518 L6.171945189368261 9.53050264951613 L6.118016622098527 9.464435631025557 L6.07932245191832 9.42183536231672 L6.041622570676505 9.384977252566586 L6.005149824469991 9.353784603045337 L5.97013339914165 9.32819437527721 L5.936770160026276 9.308127550024311 L5.905279292966738 9.293503768302795 L5.875888644059946 9.284237671128812 L5.848793738894731 9.2802279187564 L5.824207423568003 9.2813631714396 L5.802330223668594 9.287550749686483 L5.7447056370423555 9.322102037884683 L5.475000000000004 9.4829781714396 L5.200824362957653 9.636112037884683 L5.142089776331414 9.668740749686483 L5.125792576432005 9.6845931714396 L5.112516261105277 9.705317918756402 L5.102441355940063 9.730787671128814 L5.095770707033272 9.760873768302794 L5.092689839973735 9.795457550024311 L5.093386600858361 9.83438437527721 L5.098040175530019 9.877504603045338 L5.106817429323506 9.924687252566585 L5.119887548081691 9.975765362316722 L5.137433377901483 10.030575631025558 L5.16768481063175 10.110312649516132 L5.213533959234875 10.253605704380519 L5.239527498021435 10.355407834227353 L5.265482507273841 10.478363228963442 L5.289440019301971 10.621258857019104 L5.309835374221881 10.784524647978788 L5.324937187645937 10.967081756115679 L5.333288364124902 11.17234641808022 L5.333036602018489 11.394090353320493 L5.3225842356469535 11.63786632370567 L5.303409682305543 11.869016063768322 A13 13 0 0 1 4.642584794934008 12.142738694471287 L4.4655787895722625 11.992849602497412 L4.285812208681814 11.82786489988848 L4.128837545693736 11.671246282285784 L3.9895986847998066 11.520197074353531 L3.871189910362769 11.380431110555763 L3.7701652562079664 11.250563068863812 L3.686063307823345 11.132580082048294 L3.6174736774701244 11.0272845255988 L3.5638689086592064 10.93691934170186 L3.494965661756561 10.803175607021416 L3.4599740684944593 10.725402027310952 L3.433624131058904 10.674238539381157 L3.406748422889219 10.62887889200182 L3.379591707135967 10.589309264893428 L3.3523916758819032 10.55552808522519 L3.3253589381218998 10.527509978772416 L3.298726009557807 10.50523405418779 L3.2727350651497393 10.488676831933537 L3.247601196769931 10.477791031077995 L3.2235588148071423 10.472524194308606 L3.200825599324059 10.472838699951975 L3.1362219914540237 10.491298341069143 L2.8340685438726014 10.576887797865297 L2.5296012540279627 10.653841877774429 L2.4644230678777994 10.670157163557235 L2.4445782729380605 10.681251401421987 L2.426390377775491 10.697833806843256 L2.4100667096909727 10.719828121114597 L2.395836502692363 10.74716256840692 L2.3839096722709963 10.779770549272039 L2.3745076878633764 10.817551310106078 L2.367842359647746 10.860406685495613 L2.3641087674762726 10.908253345666383 L2.363513545146297 10.960973806688436 L2.366275573903873 11.018457655699635 L2.3748587550752323 11.1033073481032 L2.3820586601945313 11.253584443384792 L2.3808181605887557 11.358645372662656 L2.374065576491429 11.484128814630145 L2.360222646090339 11.628356052619061 L2.3376667500297184 11.791337402941428 L2.3050047252351455 11.97158266539323 L2.2599449384731214 12.172014547131043 L2.202310201376293 12.386137580174617 L2.1291201268781603 12.618901814314995 L2.0507729755994224 12.837212578395427 A13 13 0 0 1 1.3416205203312117 12.930574270301722 L1.2094400000000032 12.73998 L1.0785000000000031 12.53409 L0.967410000000003 12.34218 L0.872010000000003 12.16024 L0.7938100000000029 11.99459 L0.7298400000000029 11.843 L0.6791400000000029 11.70727 L0.6401400000000029 11.58781 L0.6117500000000028 11.48665 L0.5798100000000028 11.33963 L0.5661400000000028 11.25545 L0.5539300000000028 11.19921 L0.5397100000000028 11.14844 L0.5237200000000026 11.10319 L0.5061900000000027 11.06352 L0.4873300000000027 11.02946 L0.4673700000000027 11.00105 L0.44655000000000267 10.97833 L0.4250900000000027 10.96131 L0.40323000000000264 10.95 L0.38119000000000264 10.94442 L0.3140100000000027 10.94553 L2.6819764901327035e-15 10.95 L-0.31400999999999735 10.94553 L-0.3811899999999973 10.94442 L-0.4032299999999973 10.95 L-0.42508999999999736 10.96131 L-0.44654999999999734 10.97833 L-0.4673699999999973 11.00105 L-0.48732999999999727 11.02946 L-0.5061899999999974 11.06352 L-0.5237199999999973 11.10319 L-0.5397099999999972 11.14844 L-0.5539299999999973 11.19921 L-0.5661399999999972 11.25545 L-0.5798099999999973 11.33963 L-0.6117499999999972 11.48665 L-0.6401399999999972 11.58781 L-0.6791399999999971 11.70727 L-0.7298399999999972 11.843 L-0.7938099999999971 11.99459 L-0.872009999999997 12.16024 L-0.967409999999997 12.34218 L-1.078499999999997 12.53409 L-1.209439999999997 12.73998 L-1.3416205203312055 12.930574270301722 A13 13 0 0 1 -2.0507729755994166 12.837212578395429 L-2.1291201268781546 12.618901814314997 L-2.202310201376288 12.38613758017462 L-2.259944938473116 12.172014547131045 L-2.30500472523514 11.971582665393228 L-2.337666750029713 11.79133740294143 L-2.3602226460903335 11.62835605261906 L-2.3740655764914242 11.484128814630147 L-2.3808181605887504 11.358645372662657 L-2.3820586601945264 11.253584443384794 L-2.3748587550752265 11.1033073481032 L-2.3662755739038683 11.018457655699637 L-2.363513545146292 10.960973806688438 L-2.3641087674762677 10.908253345666385 L-2.3678423596477405 10.860406685495613 L-2.3745076878633715 10.81755131010608 L-2.3839096722709914 10.77977054927204 L-2.395836502692358 10.747162568406921 L-2.410066709690968 10.719828121114599 L-2.426390377775486 10.697833806843258 L-2.4445782729380556 10.681251401421987 L-2.464423067877794 10.670157163557235 L-2.5296012540279578 10.653841877774429 L-2.8340685438725965 10.576887797865298 L-3.136221991454019 10.491298341069143 L-3.2008255993240544 10.472838699951975 L-3.2235588148071375 10.47252419430861 L-3.247601196769926 10.477791031077997 L-3.2727350651497344 10.488676831933539 L-3.298726009557802 10.505234054187792 L-3.325358938121895 10.527509978772418 L-3.3523916758818983 10.555528085225191 L-3.3795917071359627 10.589309264893428 L-3.406748422889214 10.628878892001822 L-3.4336241310588997 10.67423853938116 L-3.4599740684944544 10.725402027310954 L-3.4949656617565563 10.803175607021416 L-3.5638689086592015 10.936919341701861 L-3.617473677470119 11.027284525598802 L-3.68606330782334 11.132580082048296 L-3.770165256207961 11.250563068863814 L-3.8711899103627636 11.380431110555765 L-3.9895986847998013 11.520197074353533 L-4.128837545693731 11.671246282285786 L-4.285812208681809 11.827864899888482 L-4.465578789572256 11.992849602497413 L-4.642584794934002 12.142738694471289 A13 13 0 0 1 -5.303409682305538 11.869016063768326 L-5.322584235646948 11.637866323705671 L-5.333036602018483 11.394090353320493 L-5.333288364124897 11.172346418080224 L-5.324937187645932 10.96708175611568 L-5.309835374221875 10.78452464797879 L-5.289440019301965 10.621258857019106 L-5.265482507273836 10.478363228963444 L-5.239527498021429 10.355407834227353 L-5.213533959234869 10.25360570438052 L-5.167684810631744 10.110312649516132 L-5.137433377901478 10.03057563102556 L-5.119887548081686 9.975765362316723 L-5.106817429323501 9.924687252566587 L-5.098040175530014 9.877504603045342 L-5.093386600858356 9.834384375277212 L-5.09268983997373 9.795457550024315 L-5.0957707070332665 9.760873768302798 L-5.1024413559400585 9.730787671128814 L-5.112516261105273 9.705317918756405 L-5.1257925764320005 9.684593171439602 L-5.142089776331409 9.668740749686485 L-5.200824362957649 9.636112037884686 L-5.475 9.482978171439601 L-5.744705637042351 9.322102037884687 L-5.80233022366859 9.287550749686485 L-5.824207423567999 9.281363171439601 L-5.848793738894726 9.280227918756404 L-5.875888644059941 9.284237671128816 L-5.905279292966733 9.293503768302799 L-5.936770160026271 9.308127550024315 L-5.970133399141645 9.328194375277212 L-6.005149824469986 9.35378460304534 L-6.0416225706765 9.384977252566587 L-6.079322451918315 9.421835362316722 L-6.118016622098522 9.464435631025559 L-6.171945189368255 9.530502649516134 L-6.27311604076513 9.64185570438052 L-6.34828250197857 9.715267834227355 L-6.441787492726164 9.799223228963443 L-6.553559980698035 9.891418857019106 L-6.684754625778125 9.99071464797879 L-6.835302812354068 10.095071756115681 L-7.008891635875104 10.204936418080223 L-7.201053397981518 10.315590353320495 L-7.417395764353051 10.42842632370567 L-7.627164587996185 10.527395543437118 A13 13 0 0 1 -8.194627783461417 10.091965718871865 L-8.15332302474273 9.863729475619252 L-8.1003253714928 9.625554698512186 L-8.043177001437304 9.411301343812664 L-7.981983980593419 9.215192349118386 L-7.920147492578656 9.042764360526046 L-7.85819079641109 8.890340422773473 L-7.7980655068067986 8.758514505556866 L-7.741171695192528 8.646466365010044 L-7.6897155347255834 8.554860681507328 L-7.608341686346636 8.428316851946184 L-7.558483587205171 8.35912645340708 L-7.527349675629529 8.310724994234862 L-7.50150492277716 8.264770124525548 L-7.480814978359642 8.221466905245682 L-7.465159634224172 8.181020397361813 L-7.454411611150136 8.14360030650142 L-7.44843655884911 8.109397551495427 L-7.447093055964856 8.078610122242564 L-7.450232610073323 8.051400653302506 L-7.457692586614841 8.027945921370549 L-7.469331564233173 8.008415632074176 L-7.517619886320402 7.9616970870411805 L-7.7428192539926926 7.742819253992697 L-7.961697087041177 7.517619886320405 L-8.008415632074172 7.469331564233176 L-8.027945921370543 7.457692586614845 L-8.051400653302503 7.450232610073327 L-8.078610122242562 7.447093055964859 L-8.109397551495423 7.448436558849114 L-8.143600306501417 7.454411611150141 L-8.18102039736181 7.465159634224175 L-8.221466905245679 7.480814978359645 L-8.264770124525544 7.5015049227771655 L-8.310724994234858 7.527349675629533 L-8.359126453407075 7.558483587205176 L-8.42831685194618 7.608341686346639 L-8.554860681507325 7.689715534725587 L-8.646466365010042 7.741171695192532 L-8.758514505556862 7.798065506806802 L-8.89034042277347 7.858190796411094 L-9.042764360526043 7.920147492578661 L-9.215192349118382 7.981983980593423 L-9.41130134381266 8.043177001437307 L-9.625554698512182 8.100325371492804 L-9.863729475619246 8.153323024742736 L-10.091965718871862 8.19462778346142 A13 13 0 0 1 -10.527395543437112 7.627164587996192 L-10.428426323705668 7.417395764353058 L-10.315590353320491 7.201053397981524 L-10.20493641808022 7.008891635875111 L-10.09507175611568 6.835302812354075 L-9.990714647978788 6.684754625778131 L-9.891418857019104 6.553559980698041 L-9.799223228963442 6.441787492726169 L-9.715267834227351 6.348282501978576 L-9.641855704380518 6.273116040765136 L-9.53050264951613 6.1719451893682615 L-9.464435631025557 6.118016622098528 L-9.42183536231672 6.079322451918321 L-9.384977252566586 6.041622570676505 L-9.353784603045337 6.005149824469992 L-9.32819437527721 5.970133399141651 L-9.308127550024311 5.936770160026277 L-9.293503768302795 5.905279292966739 L-9.284237671128812 5.875888644059947 L-9.2802279187564 5.848793738894733 L-9.2813631714396 5.824207423568005 L-9.287550749686483 5.802330223668596 L-9.322102037884683 5.744705637042357 L-9.4829781714396 5.475000000000006 L-9.636112037884683 5.200824362957655 L-9.668740749686483 5.1420897763314155 L-9.6845931714396 5.125792576432007 L-9.705317918756402 5.112516261105279 L-9.730787671128814 5.102441355940065 L-9.760873768302794 5.095770707033273 L-9.795457550024311 5.092689839973736 L-9.83438437527721 5.093386600858362 L-9.877504603045338 5.09804017553002 L-9.924687252566585 5.106817429323508 L-9.975765362316722 5.119887548081692 L-10.030575631025558 5.137433377901484 L-10.110312649516132 5.167684810631751 L-10.253605704380519 5.2135339592348755 L-10.355407834227353 5.2395274980214355 L-10.478363228963442 5.265482507273843 L-10.621258857019104 5.2894400193019715 L-10.784524647978788 5.309835374221882 L-10.967081756115679 5.324937187645939 L-11.17234641808022 5.333288364124904 L-11.394090353320493 5.333036602018491 L-11.63786632370567 5.322584235646955 L-11.869016063768324 5.303409682305545 A13 13 0 0 1 -12.142738694471287 4.642584794934008 Z" id="SvgjsPath1510">
        </path>
      </g>
    </g>
  </g>
</svg>
